<?xml version="1.0" standalone="no"?>
<!DOCTYPE svg PUBLIC "-//W3C//DTD SVG 1.1//EN" "http://www.w3.org/Graphics/SVG/1.1/DTD/svg11.dtd" >
<svg xmlns="http://www.w3.org/2000/svg">
<metadata></metadata>
<defs>
<font id="gala_scriptitalic" horiz-adv-x="1132" >
<font-face units-per-em="2048" ascent="1638" descent="-410" />
<missing-glyph horiz-adv-x="606" />
<glyph horiz-adv-x="0" />
<glyph horiz-adv-x="682" />
<glyph unicode=" "  horiz-adv-x="606" />
<glyph unicode="&#x09;" horiz-adv-x="606" />
<glyph unicode="&#xa0;" horiz-adv-x="606" />
<glyph unicode="!" horiz-adv-x="912" d="M144 75q0 26 10.5 53t27.5 53t32 43q6 6 18.5 18t28.5 23.5t32 19t27 1.5q42 -19 57.5 -54t9.5 -73t-27.5 -74t-53 -57.5t-68.5 -23.5t-73 28q-21 17 -21 43zM283 402q-8 34 8 111t47.5 176.5t70.5 209.5t77.5 209.5t71 180t49.5 118.5q27 63 47.5 101.5t36.5 59.5 t27.5 27.5t21.5 8.5q8 2 20 2q55 0 90.5 -41t44.5 -90q11 -74 -34 -93q-2 0 -6.5 -4.5t-13.5 -19t-24 -41t-36 -71.5q-91 -186 -168.5 -376.5t-149.5 -385.5q-11 -28 -28.5 -46.5t-36.5 -30t-39 -15t-33 -3.5q-9 0 -24.5 1t-18.5 12z" />
<glyph unicode="&#x22;" horiz-adv-x="813" d="M151 1028q18 34 44.5 73t46.5 77t6 66q-11 28 -11 70t18 79t55 61.5t98 18.5q78 -8 109 -34t30 -66t-28.5 -87.5t-69 -95t-90 -90t-92 -73.5t-76 -46.5t-39.5 -5.5q-19 19 -1 53zM515 1028q18 34 44.5 73t46.5 77t7 66q-11 28 -11.5 70t17.5 79t55 61.5t98 18.5 q66 -19 92.5 -53t24 -74.5t-29.5 -87t-65.5 -91t-84 -83.5t-85.5 -66.5t-70.5 -40t-37.5 -2.5q-19 19 -1 53z" />
<glyph unicode="#" horiz-adv-x="1363" d="M62 399.5q-3 21.5 0.5 47t15 49.5t32.5 35q68 36 100 0q0 -2 6 -5t23 -6.5t46.5 -8.5t78.5 -10l25 -4q36 70 73 139t73 136q-59 4 -96 10.5t-59 14t-31.5 16t-12.5 18.5l-10 19q-9 25 -7.5 37t11 17.5t25.5 11.5t39 17q27 13 82 10.5t146 -12.5q34 63 59.5 112t37.5 76 q27 63 47.5 101.5t36.5 59.5t27.5 27.5t20.5 8.5q8 2 21 2q28 0 45.5 -11.5t29 -30.5t17 -41.5t9.5 -47.5q11 -74 -34 -93q-2 0 -9.5 -4.5t-22 -19t-32.5 -40t-39 -70.5l-24 -50q64 -6 123 -8.5t119 -6.5q42 76 73.5 134.5t44.5 89.5q27 63 47.5 101.5t36.5 59.5t27.5 27.5 t21.5 8.5q8 2 21 2q28 0 43 -6.5t22.5 -20t11.5 -31.5t8 -43q2 -17 -8.5 -39.5t-29.5 -54t-43.5 -70t-49.5 -90.5q-9 -17 -18 -36l-18 -38q34 -2 71 -2h77q61 -2 87.5 -4.5t35.5 -29.5q4 -9 8 -24t-6 -21q-38 -23 -130 -34.5t-209 -14.5q-38 -72 -78 -147t-82 -149h67 q61 -2 87 -7t36 -31q4 -9 6.5 -29.5t-6.5 -27.5q-30 -21 -102.5 -30.5t-166.5 -13.5q-38 -66 -74 -124t-69 -105q-34 -49 -54 -72t-48 -23q-9 0 -24.5 1t-19.5 12q-9 34 22.5 116.5t82.5 192.5q-70 0 -138.5 2t-129.5 6l-144 -235q-32 -51 -53 -73t-49 -22q-9 0 -24.5 1 t-19.5 12q-4 17 3 48.5t22 74t38 95t49 108.5l-49 4q-68 4 -103.5 7t-51.5 5.5t-19.5 5.5t-11.5 9q-9 8 -12 29.5zM575 480q66 -4 126.5 -7t125.5 -7q38 72 76 146t75 145q-66 0 -127.5 0.5t-116.5 2.5q-38 -66 -78 -137t-81 -143z" />
<glyph unicode="$" horiz-adv-x="1024" d="M8.5 194q10.5 43 36 83t62.5 67.5t73 27.5q27 0 34.5 -16.5t3.5 -38t-14.5 -44.5t-21.5 -36q-28 -44 -22.5 -70.5t32 -40.5t68.5 -19t85 -5q46 144 109.5 319.5t129.5 355.5q-15 21 -31 39t-32 35q-36 40 -66 86.5t-48 98t-21 106.5t16 111q21 68 72 129t119.5 109.5 t147 81.5t154.5 45q25 70 43 114.5t32 70t24.5 37t16.5 16.5q15 8 21 6q49 -4 67 -39t27 -73q13 -53 -15 -70q-6 -6 -13 -7q-4 -4 -10.5 -15.5t-21.5 -43.5q28 -4 55.5 -11.5t51.5 -20t41 -28.5t24 -37q19 -61 -66 -173q-6 -8 -23 -24.5t-38 -32t-40.5 -22t-31.5 5.5 q-9 8 -9 21t3.5 27t10.5 28.5t10 23.5q8 19 14.5 36t2.5 27q-11 38 -56 49q-38 -104 -100 -260.5t-134 -338.5q63 -66 112 -141.5t53 -173.5q4 -106 -36.5 -203t-112 -173.5t-166 -128t-199.5 -64.5q-21 -55 -37 -100.5t-27 -81.5q-8 -34 -30 -49q-15 -9 -21 -8.5t-21 11.5 q-13 8 -22.5 18.5t-6.5 23.5q6 36 17.5 80.5t26.5 99.5q-40 2 -81.5 8t-81.5 20t-74 37.5t-57 61.5q-19 30 -8.5 73zM485 135q85 40 154.5 116.5t86.5 167.5q9 55 -4 110t-39 106q-53 -133 -103.5 -260t-94.5 -240zM571 1200q-4 -55 25.5 -102t72.5 -97q51 138 98 262.5 t83 223.5q-55 -9 -104.5 -35t-87.5 -63t-61.5 -85.5t-25.5 -103.5z" />
<glyph unicode="%" horiz-adv-x="1097" d="M40 18q-6 10 4 24q64 121 145.5 239.5t173.5 240t190.5 249.5t197.5 270q51 74 87 119.5t60.5 72t38 38t23.5 17.5q18 7 22 5q25 -2 37.5 -13t17 -26.5t2.5 -34.5l-4 -38q-6 -53 -39 -70q-8 -6 -18 -7q-4 -2 -11 -10.5t-24.5 -28.5t-45 -55t-66.5 -90 q-101 -138 -190 -248.5t-171.5 -210t-163 -199t-162.5 -216.5q-19 -34 -47 -50q-19 -9 -24 -8t-16 12q-11 8 -17 18zM138.5 999.5q3.5 49.5 11.5 88.5q21 99 109 170t230 77q142 8 186 -59.5t6 -215.5q-21 -74 -48.5 -122.5t-70 -77t-100.5 -40.5t-138 -14 q-80 0 -119.5 28.5t-54.5 72t-11.5 93zM269 1058q-9 -47 19.5 -91t85.5 -45q30 0 61 13t57 34t44 45.5t23 47.5q6 23 11 47.5t-2 45.5t-30 36t-72 15t-85 -14t-58.5 -36t-36 -48.5t-17.5 -49.5zM480 322q19 74 47.5 122.5t71 77t100.5 41t137 13.5q80 0 120 -28t55 -72 t11 -93t-11 -89q-21 -99 -109.5 -170t-230.5 -77q-142 -8 -185.5 59.5t-5.5 215.5zM590.5 272.5q-4.5 -24.5 2 -46t29.5 -36t72 -14.5t85 14.5t59 36t36 48.5t17 49q9 47 -19 91t-85 46q-32 0 -62.5 -13.5t-56 -34t-43.5 -45.5t-24 -48t-10.5 -47.5z" />
<glyph unicode="&#x26;" horiz-adv-x="1158" d="M32 250q-2 85 34 190q46 127 198 258q102 91 250 184q-6 63 -1 123.5t24 109.5q32 89 88 144t105 85q61 38 131 60t135 22h24.5t24.5 -4q98 -15 140 -45q27 -19 33.5 -39t6.5 -35q-2 -30 -19 -54t-30 -37q-15 -15 -33 -27.5t-34 -12.5q-6 0 -7 4q-15 8 -17 24t-2 33 q0 32 -8.5 53.5t-59.5 23.5h-8q-42 0 -85.5 -16t-82.5 -42.5t-69 -60.5t-44 -72q-9 -28 -15.5 -62.5t-8.5 -72.5q97 49 184 86q68 28 117 42t74 14q4 0 11.5 -0.5t13.5 -8.5q2 -9 0 -17q-4 -19 -43 -42t-120 -66q-53 -27 -114 -59t-125 -70q6 -123 31.5 -259t61.5 -257 q6 4 11.5 10.5t9.5 10.5q51 46 98.5 94t86.5 96q44 49 59 73.5t17 30.5q-4 13 -6.5 24.5t-6.5 20.5q-4 11 -7 21t-3 19q0 25 23 36q11 6 23.5 8t24.5 2q51 0 72 -40q4 -8 6.5 -19.5t1.5 -27.5t-9.5 -36.5t-27.5 -45.5l-5 -10q-21 -30 -52.5 -72.5t-70.5 -91t-86 -99.5 t-101 -103q-6 -4 -10.5 -8.5t-9.5 -8.5q47 -140 89 -206q6 -9 16 -14t22 -9q9 -4 15.5 -7t12.5 -8q6 -6 9.5 -13.5t0.5 -22.5q-8 -15 -30 -20t-33 -5q-21 0 -45.5 6.5t-39.5 21.5q-25 30 -54.5 81.5t-61.5 116.5q-212 -150 -417 -150q-167 0 -239 104q-42 61 -44 144z M209 271q3 -57 30 -95q46 -63 144 -62q76 0 203 78q23 13 47.5 29t51.5 37q-25 55 -45 111t-39 113q-17 55 -36 124t-34 145q-101 -74 -182.5 -165t-119.5 -199q-23 -59 -20 -116z" />
<glyph unicode="'" horiz-adv-x="460" d="M147 1028q18 34 44.5 73t46.5 77t7 66q-11 28 -11.5 70t17.5 79t55 61.5t98 18.5q78 -8 109 -34t30 -66t-28.5 -87.5t-69 -95t-90 -90t-92 -73.5t-76 -46.5t-39.5 -5.5q-19 19 -1 53z" />
<glyph unicode="(" horiz-adv-x="747" d="M78.5 101.5q-10.5 82.5 1 187t58.5 234.5q47 131 116.5 251.5t147.5 224t159.5 183t153.5 128t129 59t85 -24.5q38 -47 32.5 -69t-33 -31.5t-62.5 -15t-56 -20.5t-76 -55t-126 -117.5t-149 -200t-142 -300.5q-66 -178 -72 -302.5t16.5 -205t58.5 -123.5t57 -56 q19 -13 45.5 -34t41 -41.5t8 -37t-52.5 -19.5q-46 -4 -80 0.5t-56.5 13t-35 19t-14.5 18.5q-2 6 -21.5 27.5t-46.5 62.5t-51.5 101.5t-35 143z" />
<glyph unicode=")" horiz-adv-x="834" d="M-226 -274q6 16 35.5 37t71 42t72.5 34q30 13 97.5 55.5t148 123.5t165 205t148.5 302q44 119 63 212.5t19.5 165.5t-9.5 123t-24.5 86t-29.5 56t-21 30t-24 15t-36 11t-33 10.5t-15 18t19 31.5t68 51q55 36 103.5 24.5t85.5 -59.5t59.5 -128t25.5 -183t-16 -224.5 t-66 -250.5t-112 -234.5t-135 -188t-139 -143t-125 -101t-93 -62.5t-41 -28q-8 -8 -27.5 -18t-49 -18.5t-67.5 -13.5t-80 -1q-44 4 -38 20z" />
<glyph unicode="*" horiz-adv-x="777" d="M74.5 709q26.5 36 78.5 76t114.5 75t107.5 56q-19 8 -47 14.5t-56.5 12t-54 10.5t-41.5 10q-17 9 -24.5 23.5t-8.5 30.5t5 32.5t13 29.5q23 38 61 36t78.5 -25.5t76.5 -59.5t57 -67q8 23 15.5 54.5t15 62.5t14 59.5t14.5 47.5q21 44 57 64.5t64 22.5q42 4 39 -33 t-30.5 -91t-67 -113t-73.5 -98q25 8 58 21t66 27t63.5 25.5t51.5 15.5q23 6 39.5 3t27 -12.5t16.5 -23t6 -24.5q2 -38 -38 -59t-97 -31.5t-118.5 -10.5t-101.5 6q6 -17 19 -39.5t26.5 -45.5t26 -44t15.5 -36q6 -19 1.5 -37t-15 -34t-25 -30.5t-27.5 -21.5 q-40 -28 -61.5 -4.5t-30.5 72t-7 107t10 100.5q-19 -19 -43.5 -46.5t-49.5 -55t-48.5 -52t-40.5 -40.5q-40 -32 -75 -32t-54 15q-28 21 -1.5 57z" />
<glyph unicode="+" horiz-adv-x="1052" d="M143 630q3 17 9.5 34t18 27.5t26.5 4.5q30 -13 105 -16t168 -1q27 80 51.5 153t45.5 122q8 17 30.5 31t47 22t43.5 8.5t17 -8.5q-15 -61 -41.5 -146t-58.5 -178q80 2 151 3.5t120 -0.5q19 0 25.5 -18.5t6.5 -40.5t-6.5 -40t-15.5 -18q-63 -9 -151 -15t-179 -6 q-23 -55 -46 -105t-44.5 -92t-43.5 -73t-41 -49q-6 -4 -23 -7.5t-34 -3.5t-26.5 7.5t4.5 24.5q27 38 59 119.5t66 180.5q-102 4 -181 17t-102 42q-4 4 -1 21z" />
<glyph unicode="," horiz-adv-x="475" d="M-61.5 -155.5q-2.5 5.5 3 11.5t11.5 6t33 17t55.5 40.5t47.5 49t8 42.5q-11 19 -22 62t-6 87.5t30.5 78.5t84.5 34t89 -20t41.5 -48.5t7 -59.5t-12.5 -56q-9 -23 -45 -67.5t-81.5 -87t-94 -75t-82.5 -32.5t-49.5 6t-18 11.5z" />
<glyph unicode="-" horiz-adv-x="824" d="M144 601q0 21 7.5 35.5t24.5 8.5q40 -15 89.5 -15t107 4.5t120.5 9.5t127 3q19 0 33 -22t22 -47.5t8 -47.5t-10 -22q-76 -9 -152.5 -16.5t-147 -7t-127 12t-91.5 42.5q-4 4 -7.5 22.5t-3.5 39.5z" />
<glyph unicode="." horiz-adv-x="502" d="M26.5 46.5q7.5 33.5 23.5 66.5t28 50q23 36 58.5 65.5t79.5 29.5q21 0 31.5 -20t12.5 -47.5t-2 -56t-11 -43.5q-8 -17 -20.5 -38t-32.5 -41t-48 -33t-68 -13t-49.5 23.5t-2 57z" />
<glyph unicode="/" horiz-adv-x="817" d="M-83 18q-6 10 3 24q64 121 146 239.5t174 240t190.5 249.5t197.5 270q51 74 87 119.5t60.5 72t38 38t22.5 17.5q19 7 23 5q25 -2 37 -13t17 -26.5t3 -34.5l-4 -38q-6 -53 -40 -70q-8 -6 -17 -7q-4 -2 -11.5 -10.5t-24.5 -28.5t-44.5 -55t-67.5 -90 q-101 -138 -189.5 -248.5t-171 -210t-163.5 -199t-162 -216.5q-19 -34 -48 -50q-19 -9 -23.5 -8t-15.5 12q-11 8 -17 18z" />
<glyph unicode="0" horiz-adv-x="1063" d="M74 255q-2 86 14 182t46.5 192.5t62.5 180t60.5 147t42.5 92.5q74 150 165 246.5t179 150.5t164 75t117 21q40 0 88.5 -9.5t83.5 -26.5t47.5 -43t-21.5 -60q-21 -15 -46 -18.5t-40 5.5q-15 15 -46 34t-98 19q-30 0 -74.5 -25.5t-97 -77t-107.5 -128t-104 -177.5 q-63 -129 -116 -264.5t-88 -256t-46.5 -216t13.5 -144.5q25 -40 63 -46t79.5 8.5t81.5 41t66 49.5q135 114 250.5 320.5t183.5 475.5q19 72 19 112t-6.5 67.5t-16 54t-9.5 75.5q0 36 23.5 46.5t69.5 12.5q27 0 50.5 -24.5t37.5 -66.5t18 -98t-7 -120q-23 -108 -65.5 -231.5 t-103.5 -244.5t-139.5 -232t-171.5 -195q-30 -27 -78.5 -56t-105.5 -53.5t-117.5 -40t-115.5 -12.5t-99.5 27.5t-69.5 81.5q-34 63 -36 149z" />
<glyph unicode="1" horiz-adv-x="582" d="M-6 47q0 9 8.5 16t18.5 11q9 0 17.5 4.5t8.5 14.5q6 13 27 70t51 141.5t67 189.5t76 214t76 213.5t65.5 188t46.5 137.5t20 63q2 11 7.5 24.5t7.5 25t-3.5 20t-28.5 8.5q-8 0 -28 4t-37 10.5t-22.5 17t15.5 27.5q59 51 140.5 56t158.5 -13q38 -15 -24.5 -192t-219.5 -553 q-40 -101 -79 -199t-72 -185.5t-57.5 -157.5t-34.5 -116q-4 -9 -1 -16t7 -12.5t6.5 -12.5t0.5 -18q-4 -27 -19 -26.5t-55 0.5q-13 0 -41.5 3t-55 8.5t-42.5 14t-5 19.5z" />
<glyph unicode="2" horiz-adv-x="999" d="M-97 34q9 76 69 158.5t147.5 166t193.5 166t210 161.5q66 49 129 96t115 90.5t91 83.5t60 74q25 42 46.5 105t22.5 123t-29.5 102.5t-111.5 42.5q-72 0 -129 -20.5t-96 -57t-59 -82t-20 -96.5q0 -19 2 -39t0 -36t-10.5 -26.5t-30.5 -10.5q-11 0 -31.5 4t-39.5 12.5 t-33 22t-14 33.5q0 55 21 125.5t72 133t138.5 106t221.5 43.5q129 0 207 -35t106 -102.5t8.5 -165t-84.5 -222.5q-46 -95 -117 -168t-156 -133.5t-178 -117.5t-181 -121.5t-166 -144t-131 -186.5l529 14q11 17 40.5 34t50.5 19q13 0 13 -21t-8.5 -48.5t-22.5 -53t-27 -35.5 q-11 -8 -78.5 -16t-161.5 -14t-199.5 -7.5t-191.5 1t-140 13t-47 29.5z" />
<glyph unicode="3" horiz-adv-x="1048" d="M-70 68.5q-19 30.5 7 85.5l11 20q10 19 26.5 45t35 50.5t35 35t27 1t10.5 -53.5q0 -23 3.5 -48.5t23.5 -47t64.5 -36t126.5 -14.5q47 0 108.5 32.5t122.5 87.5t114 126t83 151q30 91 15 141t-55.5 76.5t-94.5 37t-101.5 19t-78 23.5t-20.5 51q9 25 76.5 83t192.5 147 q53 42 113.5 88.5t112 88t85.5 75.5t38 51q-6 9 -80 17t-203 8q-53 0 -93.5 -32.5t-78.5 -71.5q-27 -23 -52.5 -46t-46.5 -37t-34 -15t-13 20q0 19 18 67.5t55 98.5t94.5 90t137.5 40q119 0 253 -8.5t253 -24.5q25 0 32.5 -12t7.5 -22q-2 -28 -41 -72.5t-99.5 -97.5 t-134.5 -110t-147 -109t-135.5 -94.5t-100.5 -67.5q40 -6 109 -23t131 -57t93 -108t-5 -175q-169 -495 -631 -534q-44 -4 -83 -5t-69 -1t-76.5 3t-84.5 18t-57 45.5z" />
<glyph unicode="4" horiz-adv-x="1141" d="M241 673q74 199 118.5 327t67 204t28.5 108t4 40q-9 4 -24.5 4t-30.5 2t-27.5 5.5t-16.5 15.5q0 30 38 60.5t88.5 55t100.5 39.5t77 15q42 0 41.5 -45.5t-26 -121t-68 -171.5t-87 -195.5t-82.5 -196.5t-55 -170q2 -6 13 -12t37 -10.5t69.5 -8.5t111.5 -4q55 0 105.5 1 t99.5 7h11q47 121 95.5 252t88.5 243t64 190.5t22 95.5q-4 6 -21 10t-30.5 10.5t-15.5 18.5t21 35q6 8 22 20t39 23.5t50.5 20t53.5 8.5q66 0 58.5 -68t-55.5 -191.5t-123 -293t-143 -374.5h26q13 0 21 -10.5t11.5 -25.5t2.5 -31t-3 -26q-9 -21 -36.5 -23.5t-67.5 -2.5 q-49 -135 -90 -245t-56 -171q0 -9 9.5 -24.5t14 -28.5t-5.5 -22.5t-50 -9.5q-15 0 -32.5 7.5t-31.5 19t-23.5 26.5t-5.5 32q0 2 13 39t33 94t46.5 127t53.5 142q-46 -6 -98 -6.5t-107 -0.5q-413 0 -343 191z" />
<glyph unicode="5" horiz-adv-x="1078" d="M0 140q-4 30 11.5 73t39 83t52 69t49.5 31q13 0 10 -15t-11.5 -38.5t-16 -55t-1.5 -61.5q4 -21 12.5 -40t28 -33.5t54 -24t89.5 -9.5q59 0 127 28.5t135.5 83.5t126 138.5t98.5 191.5q40 106 33.5 178.5t-38 117t-79 64.5t-89.5 21q-40 6 -75.5 -5.5t-71.5 -25.5 t-72.5 -27.5t-75.5 -13.5q-34 0 -42 45t4.5 112t41 148.5t64.5 154.5t76.5 128t78.5 70q66 25 152.5 32.5t179.5 5.5t183 -11.5t164 -18.5q19 0 13.5 -21t-23.5 -45.5t-42 -43.5t-41 -15q-53 11 -121 17t-141 5t-142.5 -8.5t-122.5 -21.5q-13 -11 -35 -43.5t-47.5 -76 t-50 -90t-42.5 -85t-26.5 -63.5t-1.5 -23q66 0 132 15t138 17q66 0 143.5 -16t132 -65.5t69.5 -143t-42 -249.5q-64 -180 -148.5 -293t-176.5 -176.5t-185 -86t-175 -22.5q-97 0 -154.5 11.5t-89.5 30.5t-43.5 43.5t-15.5 52.5z" />
<glyph unicode="6" horiz-adv-x="1024" d="M26.5 263.5q-1.5 83.5 11.5 174.5t39.5 187t57 181t62 155.5t55.5 113.5q80 138 176.5 227.5t191.5 141.5t179.5 72t139.5 20q34 0 86 -14t93 -37t56 -51.5t-25 -54.5q-13 -13 -31 -5.5t-45.5 21.5t-65.5 28t-89 14q-46 0 -105.5 -20.5t-127 -66t-134.5 -118.5t-126 -178 q-49 -85 -91 -189.5t-72.5 -209.5t-45.5 -203.5t-13 -175.5t25.5 -123.5t71.5 -46.5q207 0 394 277q32 51 46.5 102.5t11.5 94t-24 75.5t-61 50q-49 15 -86 15.5t-70 -6.5t-69 -14.5t-84 -7.5q-27 0 -26 27q13 36 60.5 56.5t105.5 32t115.5 14.5t93.5 3q85 -6 141.5 -38 t76.5 -87q9 -25 14 -57t-2.5 -75t-28.5 -95t-62 -116q-104 -169 -262 -262t-332 -93q-137 0 -197 117q-27 61 -28.5 144.5z" />
<glyph unicode="7" horiz-adv-x="1046" d="M-140 15q0 4 1.5 10.5t11.5 16.5l47 51q224 239 394.5 423t296 321.5t210.5 234t138.5 159t80 96t35.5 46.5h-546q-11 -4 -27.5 -21t-36 -34t-40.5 -28.5t-38 -3.5q-30 13 -34 42.5t11 61.5t45.5 58.5t70.5 34.5q8 4 22 5.5t44 3.5t83.5 3t137.5 1h207.5h294.5 q13 0 30 -1t31 -3.5t23.5 -9.5t8.5 -18q-6 -27 -65 -101t-152.5 -179t-211.5 -231t-239 -253t-238.5 -247.5t-209.5 -213.5t-149 -151t-59 -60q-8 -9 -37 -14.5t-60.5 -8.5t-56 -1t-24.5 11z" />
<glyph unicode="8" horiz-adv-x="1080" d="M42 271.5q2 83.5 34 183.5q19 66 58 126t88 109.5t108 90t121 70.5q-74 34 -106 127t8 222q23 82 94 150t165.5 118.5t199 80t193.5 33.5q9 0 25.5 -1t30.5 -6t24.5 -17.5t10.5 -34.5q0 -21 -22 -30.5t-42 -9.5q-6 0 -15.5 1t-19.5 6q-108 0 -209.5 -48t-171.5 -137 q-40 -53 -63.5 -110t-27.5 -110t13.5 -98t56.5 -71q137 11 251 100q57 47 100.5 106t74.5 118t50 108.5t25 75.5q2 13 21 19t40 5t39 -7t20 -17q13 -72 -6 -141t-64.5 -132.5t-116 -122t-157.5 -105.5q68 -32 97.5 -87t28 -121t-29 -139t-73 -145.5t-102.5 -137t-118 -113.5 q-99 -85 -214.5 -129.5t-240.5 -48.5h-11q-49 0 -88 33t-60 93t-19 143.5zM202.5 275q-7.5 -76 13.5 -129t78 -53q34 0 79.5 23.5t93 63.5t95 91t89 106t74 110t49.5 101q9 34 13 75.5t-2 77.5t-21 60t-43 24h-6q-63 -6 -125.5 -32.5t-117.5 -61.5t-97.5 -74t-61.5 -69 q-44 -66 -73.5 -151.5t-37 -161.5z" />
<glyph unicode="9" horiz-adv-x="1048" d="M11 127q6 11 19.5 22.5t29.5 17.5t33 6.5t30 -6.5q15 -15 55 -40.5t89 -25.5q114 0 230 99.5t225 288.5q80 140 139 275t95 250.5t45.5 207.5t-9.5 149q-15 34 -39 51t-73 21q-47 0 -100.5 -22t-106.5 -60.5t-100.5 -91.5t-81.5 -116q-27 -46 -43 -96t-15 -93.5t21 -79.5 t64 -53q49 -15 86 -15.5t70 6.5t69 14.5t84 7.5q34 0 26 -19q-11 -28 -59.5 -50t-108 -35.5t-117.5 -20t-90 -6.5q-108 0 -161 50.5t-62.5 126t17 164.5t75.5 165q57 91 127 153t147 98t154.5 51t149.5 15q97 0 159.5 -21t91.5 -85q25 -55 24.5 -129t-17.5 -157.5 t-45.5 -171.5t-61.5 -168t-66 -147t-58 -109q-80 -138 -173 -239.5t-188.5 -169t-189.5 -101.5t-173 -36q-40 0 -80 13t-72 32t-51 41t-14 39z" />
<glyph unicode=":" horiz-adv-x="640" d="M83.5 182q5.5 28 20 55.5t25.5 45.5q23 36 58.5 65t79.5 29q21 0 28.5 -23.5t7.5 -55t-6.5 -63.5t-13.5 -47q-8 -17 -23 -39t-37 -40t-45.5 -26.5t-48.5 2.5q-34 17 -42.5 43t-3 54zM259.5 731q7.5 33 24 66.5t27.5 50.5q23 36 58.5 65t79.5 29q21 0 31.5 -19.5t12.5 -47 t-2 -56t-11 -43.5q-8 -17 -20 -38t-32 -41t-48.5 -33.5t-68.5 -13.5t-49.5 24t-2 57z" />
<glyph unicode=";" horiz-adv-x="534" d="M-61.5 -155.5q-2.5 5.5 3 11.5t11.5 6t33 17t55.5 40.5t47.5 49t8 42.5q-11 19 -22 62t-6 87.5t30.5 78.5t84.5 34t89 -20t41.5 -48.5t7 -59.5t-12.5 -56q-9 -23 -45 -67.5t-81.5 -87t-94 -75t-82.5 -32.5t-49.5 6t-18 11.5zM197.5 634q7.5 33 23.5 66.5t27 50.5 q23 36 59 65.5t80 29.5q21 0 31.5 -20t12 -47.5t-2 -56t-11.5 -43.5q-8 -17 -20 -38t-32 -41t-48.5 -33t-68.5 -13t-49 23.5t-1.5 56.5z" />
<glyph unicode="&#x3c;" horiz-adv-x="927" d="M145.5 629.5q-8.5 41.5 0.5 64.5q9 28 52 70t104.5 88.5t132.5 93t136.5 84.5t118.5 61.5t76 23.5h4q23 0 32 -19q11 -27 -1 -42t-33 -30q-46 -34 -107.5 -69t-128 -76t-130.5 -90t-116 -112q4 -27 36.5 -87.5t73 -128t80.5 -125t59 -80.5q17 -21 2.5 -40t-41 -33 t-55 -22.5t-37.5 -8.5h-13.5t-13.5 2q-4 2 -10.5 7.5t-19.5 26.5q-9 19 -31 57.5t-47.5 87t-51 102.5t-44.5 103.5t-27.5 91z" />
<glyph unicode="=" horiz-adv-x="1103" d="M144 584q0 17 7.5 28.5t24.5 5.5q40 -15 111 -17t153.5 1t167 6t149.5 1q19 0 33 -19t21.5 -41t7.5 -41t-9 -19q-76 -9 -174.5 -15t-193.5 -3t-173.5 16.5t-113.5 43.5q-4 4 -7.5 20t-3.5 33zM286 914q0 17 8 28.5t25 5.5q40 -15 111 -17t153.5 1t166.5 6t149 1 q19 0 33 -19t21.5 -41t7.5 -41t-9 -19q-76 -9 -174.5 -15t-193.5 -3t-173.5 16.5t-112.5 43.5q-4 4 -8 20t-4 33z" />
<glyph unicode="&#x3e;" horiz-adv-x="813" d="M102 212q-8 25 2 50.5t31 37.5q40 23 101.5 58t126 75.5t120.5 82.5t84 76q8 15 -4.5 47t-36 73t-52 86.5t-55 86t-44.5 72t-20 46.5q-4 17 -4 38t6.5 38t21 29.5t36.5 12.5q4 0 13.5 2t23 0t27.5 -10.5t29 -29.5q21 -28 60 -93t75 -139t59.5 -144t14.5 -110 q0 -2 -3 -5.5t-11.5 -14t-25 -28.5t-44.5 -48q-15 -21 -54 -53.5t-87 -68.5t-102 -71t-99.5 -64.5t-78 -47.5t-38.5 -18q-27 0 -46.5 6t-25.5 28z" />
<glyph unicode="?" horiz-adv-x="855" d="M83.5 48q-1.5 18 3 38t12.5 35q8 17 20 35t29 33.5t38 26t45 10.5q17 0 27.5 -15.5t13.5 -37t-2 -46.5t-16 -42q-23 -36 -54 -57.5t-75 -21.5q-21 0 -30.5 12t-11 30zM155 1075.5q23 45.5 85 91t156.5 80.5t214.5 35q82 0 140.5 -15t92.5 -50.5t39.5 -91t-18.5 -135.5 q-17 -53 -59 -106t-96 -100.5t-113.5 -89.5t-112 -73t-90 -51t-49.5 -24q-17 -6 -23.5 -12.5t-7.5 -14t2 -19t3 -26.5v-35t-9.5 -37t-34.5 -27.5t-74 -4.5q-28 2 -38.5 23.5t-7 53t20.5 67.5t44 68q17 21 53 44.5t81.5 50.5t95 54.5t93 57.5t75.5 61.5t44 63.5q23 64 21 105 t-20 64.5t-49.5 32.5t-65.5 9q-101 0 -167 -25t-109 -50.5t-68.5 -41.5t-44.5 -1q-27 23 -4 68.5z" />
<glyph unicode="@" horiz-adv-x="1234" d="M2 300.5q6 88.5 30.5 176.5t64.5 167.5t83 131.5q57 66 131 123t159.5 97.5t180 64.5t191.5 24q76 0 154.5 -28.5t140 -81.5t94 -128t15.5 -166q-15 -87 -51 -179t-95 -171t-140.5 -131t-189.5 -60q-27 0 -42 11.5t-22.5 29.5t-8.5 41t3 45q-49 -30 -104.5 -46 t-115.5 -16h-2q-74 0 -107 31t-40 79.5t7.5 106.5t35.5 111t55 106t81.5 95.5t106 68.5t130.5 26q17 0 49.5 -4t66.5 -12.5t62.5 -21t37.5 -31.5q9 -15 2 -33t-28 -18q-27 0 -51.5 10.5t-56.5 10.5q-55 0 -104.5 -35t-88.5 -86t-67.5 -111t-41.5 -109q-17 -59 -15 -82.5 t6 -27.5q19 0 64.5 42.5t121.5 144.5q66 89 90.5 139.5t41.5 82.5q4 6 22 10t26 4q9 0 25 -8t18 -25q0 -4 1 -7.5t0 -15t-3.5 -33t-10.5 -61.5q-15 -74 -32 -148t-34 -152q42 17 74 68.5t53.5 114t32 128t10.5 110.5q-2 36 -11.5 81.5t-37 85.5t-75.5 67.5t-128 27.5 q-40 0 -105.5 -12.5t-137.5 -57t-144 -130.5t-125 -232q-23 -63 -42 -134t-11 -131t50.5 -99.5t141.5 -39.5q83 0 159 4.5t132.5 11t91.5 12.5l36 6h2l3 -2q8 -2 15.5 -7.5t9.5 -15.5q4 -15 -11.5 -27.5t-32.5 -21.5q-25 -13 -84.5 -26.5t-133.5 -25t-152.5 -19t-141.5 -7.5 q-110 0 -173.5 44.5t-90 115.5t-20.5 159.5z" />
<glyph unicode="A" horiz-adv-x="1084" d="M-157 38q-1 3 -1 6q0 17 29 32q8 6 45 43.5t96.5 102t139 154t174.5 195.5q-78 19 -100 45q-11 17 0 41t49 22q36 -13 127 -19q66 70 150.5 167.5t172 203t168 207t137.5 179.5q-21 6 -46.5 3t-46.5 8t-8 33t45.5 48.5t79 51t91 41.5t83.5 20h11q30 0 45 -14q6 -6 8 -22 q1 -6 1 -13q-1 -14 -3 -35q-4 -32 -15.5 -86t-32.5 -140q-19 -74 -51 -177t-70 -220t-77 -239t-69.5 -233t-47.5 -204q-13 -69 -13 -118q0 -17 2 -32l7 -78q-17 -13 -40.5 -13t-49 7.5t-49.5 20t-37 27.5q-11 11 -11 25q0 68 20.5 157t52 189.5t68.5 207t69 209.5t56 199 t28 174q-114 -142 -233.5 -280.5t-235.5 -283.5q78 -5 162 -5h28q23 -2 34 -18t13 -35q0 -40 -28 -44q-60 -8 -121 -8h-21q-72 2 -154 10q-95 -110 -180 -206.5t-149.5 -170.5t-104.5 -118.5t-44 -46.5q-9 -8 -33 -10q-7 0 -13 -1q-18 0 -36 3q-26 4 -47 13.5t-24 24.5z" />
<glyph unicode="B" horiz-adv-x="1124" d="M-1 38q5 10 14.5 18t18 17t12.5 18q13 36 47 132.5t77.5 225.5t91 275t90.5 282.5t74 247.5t42 168q-11 4 -35.5 5t-45.5 6.5t-31.5 18t6.5 38.5q13 19 56 43t94 45t100.5 34t75.5 13q44 0 47 -31q1 -7 1 -15q0 -26 -8 -58l23 11q44 21 116 43q71 21 147 29q26 3 51 3 q49 1 93 -9q68 -14 105 -68q30 -42 32 -105q0 -6 1 -12q0 -57 -18 -123q-19 -72 -55 -145.5t-82.5 -134t-99.5 -102t-104 -49.5q55 -27 85.5 -74t40.5 -105q5 -31 5 -65q0 -27 -4 -57q-8 -64 -29 -128q-44 -112 -131 -193.5t-197.5 -133.5t-235 -77.5t-241.5 -25.5l-69 6 q-8 -6 -21 -10t-25 -5.5t-21 -1.5h-10q-19 0 -45 4.5t-37 25.5q-3 5 -3 10t2 9zM201 101q2 0 2 -2q4 0 14.5 -2t30.5 -2q59 0 132 17t148 51t146 82.5t124 112.5q52 63 82 139q24 61 24 131q0 17 -1 34q-13 142 -163 159q-12 0 -46 -1h-23q-23 0 -46 1q-35 2 -61.5 8.5 t-26.5 21.5q0 11 10.5 21t24.5 17.5t28 11.5t22 4l53 -2q34 0 88 23.5t113 64.5t113 95q53 54 85 116q32 64 33 131q0 66 -45 129q-22 32 -70 36q-14 1 -29 1q-35 -1 -73 -7q-54 -10 -105 -28.5t-81 -31.5q-8 -25 -17.5 -54.5t-20.5 -63.5q-32 -101 -79.5 -231.5 t-110.5 -293.5q-40 -101 -79.5 -202.5t-76.5 -192.5t-67.5 -167.5t-51.5 -125.5z" />
<glyph unicode="C" horiz-adv-x="1058" d="M86 284q-3 35 -3 71q1 55 7 113q12 96 37 195t58 191t67 169t65 128q49 87 121 171.5t160 152t190.5 108t210.5 40.5q46 0 95 -3.5t94.5 -19t81 -44.5t50.5 -81q5 -13 5 -28q0 -58 -72 -144q-9 -13 -24 -30.5t-32.5 -30.5t-32.5 -20.5t-24 -0.5q-13 13 -11.5 36t8 48.5 t12.5 49.5t4 37q-9 40 -31 64.5t-51.5 37t-63.5 14.5h-23l-45 -2q-34 -13 -74 -37t-80 -58q-93 -76 -173.5 -188t-146 -239t-113 -260.5t-71.5 -253.5q-11 -63 -17 -126q-2 -19 -1 -37q0 -41 9 -79q14 -54 58 -87t129 -33q95 0 194.5 59t190.5 169q19 21 47.5 33t45.5 12 q23 0 20 -15t-16.5 -35t-30.5 -39t-23 -27q-44 -51 -87 -97.5t-98 -82.5q-61 -42 -135 -60.5t-165 -18.5q-82 0 -155.5 23.5t-119.5 103.5q-33 63 -41 151z" />
<glyph unicode="D" horiz-adv-x="1082" d="M-36 49q8 4 16.5 11.5t13.5 26.5q15 34 48.5 131t77 226t90 276t88 283.5t72 246.5t41.5 167q-21 5 -49 5q-15 0 -30 3t-24.5 10.5t-11.5 19t9 30.5q13 19 56 42.5t94 44.5t100.5 34t75.5 13q38 1 44 -25q2 -10 2 -23q0 -21 -6 -50q21 11 53.5 24.5t71 25.5t83 20.5 t94.5 8.5q55 0 105 -15t88 -45.5t61 -76.5t25 -109q1 -18 1 -36q1 -94 -25 -206q-30 -134 -84 -272t-120 -265t-135 -217q-51 -68 -118 -132.5t-146 -114.5t-167 -80.5t-181 -30.5q-49 0 -89 7.5t-67 17.5q-6 -15 -7 -16q-4 -9 -17.5 -13.5t-27.5 -7.5t-25 -3h-12 q-19 0 -42.5 9.5t-25.5 54.5zM155 108q43 -6 84 -6q111 0 201 46q122 64 231 195q64 80 130 197.5t121 247.5t94.5 260t53.5 234q4 25 4 51q0 13 -1 25q-3 38 -17.5 67t-42 48t-74.5 19q-106 0 -178.5 -22.5t-108.5 -37.5q-11 -23 -35.5 -85.5t-58 -152.5t-71.5 -198.5 t-77.5 -220t-79.5 -220.5t-73 -199.5t-59.5 -156.5t-42.5 -91z" />
<glyph unicode="E" horiz-adv-x="1069" d="M-23 17q0 17 20 28.5t30 34.5q4 11 17 49t35 97.5t48.5 136.5t54.5 164q-15 2 -37 7t-42 13.5t-35 20.5t-15 31q0 13 7.5 26.5t32.5 14.5q9 0 40.5 -7t78.5 -11q66 192 112 341.5t73.5 252t39 154.5t11.5 50q-9 2 -29.5 3t-40.5 4t-34 10.5t-14 22.5q0 25 39 52.5t95 52 t116.5 40.5t105.5 16q9 0 12.5 -5.5t6 -13t10 -13.5t26.5 -6q70 0 162.5 10.5t202.5 10.5q47 0 89.5 -2.5t73 -11t48.5 -25t18 -44.5q0 -44 -19 -80t-41.5 -61.5t-43.5 -39.5t-27 -14q-17 0 -28.5 22.5t-22.5 66.5h-17t-17.5 1t-36 1.5t-73 2.5t-127 6t-197.5 9 q-55 -210 -132 -412t-159 -412q119 -6 249 -6q21 0 34 -21t13 -42q0 -19 -18 -27.5t-44.5 -12t-56 -3.5h-51.5q-40 0 -82 2t-85 5q-44 -110 -83 -204.5t-67 -164.5h76h244.5h135.5t64 -1t36 -1q17 0 33 15t31 35t30.5 36t32.5 16t23.5 -18t6.5 -41q0 -63 -18 -98.5 t-48.5 -53.5t-70 -22t-85.5 -4q-59 0 -134 4t-149.5 9.5t-141 11t-108.5 9.5q-8 -15 -10.5 -22.5t-4.5 -9.5q-4 -9 -17 -14t-27.5 -8t-26 -3h-12.5q-6 0 -20.5 2t-28.5 7t-25.5 12.5t-11.5 18.5z" />
<glyph unicode="F" horiz-adv-x="942" d="M-61 17q0 17 20 28.5t30 34.5q4 11 17 49t35 97.5t48.5 136.5t54.5 164q-15 2 -37 7t-41.5 13.5t-35 20.5t-15.5 31q0 13 7.5 26.5t32.5 14.5q9 0 40.5 -7t78.5 -11q66 192 112 341.5t73.5 252t39 154.5t11.5 50q-9 2 -29.5 3t-40.5 4t-34 10.5t-14 22.5q0 25 39 52.5 t95 52t116.5 40.5t106.5 16q11 0 8 -13t5 -23l43 2q70 0 152 8.5t192 8.5q47 0 89.5 -2.5t73 -11t48.5 -25t18 -44.5q0 -44 -19 -80t-41.5 -61.5t-43.5 -39.5t-27 -14q-17 0 -28.5 22.5t-22.5 66.5h-15t-13.5 1t-31 1.5t-68 2.5t-124.5 6t-197 9q-55 -210 -132 -412 t-158 -412q119 -6 248 -6q21 0 34 -21t13 -42q0 -19 -18 -27.5t-44.5 -12t-56 -3.5h-51.5q-40 0 -82 2t-85 5q-23 -55 -49.5 -124t-54 -139t-54 -133.5t-49.5 -107.5q-6 -9 -18 -14t-26.5 -8t-25.5 -3h-13q-6 0 -20 2t-28.5 7t-26 12.5t-11.5 18.5z" />
<glyph unicode="G" horiz-adv-x="1170" d="M100 517q18 96 46 192.5t60.5 181t64 151.5t51.5 103q49 87 122.5 173.5t163.5 156t193.5 112t214.5 42.5q42 0 90.5 -5t97 -18t91 -36t74.5 -57q9 -13 9 -23q1 -1 1 -3q0 -7 -2 -12q-8 -19 -31.5 -38.5t-40.5 -4.5q-23 21 -60 32t-78 16t-83.5 5h-78.5 q-66 -6 -133.5 -45t-128 -94t-111 -119.5t-82.5 -120.5q-30 -51 -78.5 -145t-94 -206t-79 -228t-33.5 -210.5t44 -154.5t154 -60q95 0 194.5 58t188.5 166q30 70 59.5 138.5t54.5 144.5q-6 6 -24 8.5t-39 1.5t-40 -3.5t-26 -8.5q-27 -8 -49.5 -26t-53.5 -18q-25 0 -24.5 19 t11.5 42t28 44.5t27 27.5q4 4 40 11.5t86 14t106 11.5q35 3 65 3q18 0 35 -1q43 -3 67 -16.5t10 -41.5q-23 -49 -56 -119.5t-68 -147t-69 -152.5t-61.5 -136.5t-44.5 -99.5l-17 -39l-15 -10q-4 0 -18.5 1t-32.5 4t-34 8.5t-23 15.5q-6 6 -5 17t14 49q4 11 8.5 25.5 t10.5 31.5q-83 -76 -199 -106q-77 -20 -159 -20q-40 0 -82 5q-91 8 -145 53t-77 115q-24 70 -24 156q0 90 18 189z" />
<glyph unicode="H" horiz-adv-x="1158" d="M0 32q-4 5 -4 10q0 6 6 13q2 6 11 9q8 4 16.5 12.5t14.5 25.5q4 11 19 54l37.5 107.5t51 148t60.5 176.5q-83 19 -108 45q-9 8 -10 19.5t3.5 22t14 18t21.5 7.5q4 0 21 -3t89 -18q27 63 60 157.5t63 197t55 201t36 170.5q-9 4 -22.5 5t-26.5 3q-15 0 -30.5 2.5t-25 10.5 t-11.5 20t10 29q15 19 57.5 43t93 44.5t99.5 34t76 13.5q28 0 28 -52q-1 -4 -1 -10q-2 -62 -26 -155.5t-61 -208t-75 -220t-71 -188t-48 -114.5l383 -23q21 -2 35 -17t20 -33t0 -33.5t-25 -15.5q-61 -4 -121 -4q-51 0 -103 3q-110 7 -231 20q-44 -108 -81.5 -203.5 t-68 -167.5t-48.5 -115.5t-20 -47.5q-6 -13 -29.5 -20t-51 -5t-51 9.5t-31.5 22.5zM711 70q2 4 33.5 84.5t78 206.5t102 280.5t108 308.5t93 288.5t57.5 219.5q-15 8 -41.5 11t-35.5 21q-9 23 16 45t64 40t78 28.5t60 10.5q54 0 62 -56q2 -15 2 -34q0 -50 -17 -124 q-23 -102 -74 -243.5t-118.5 -314.5t-146 -371t-156.5 -410q-4 -19 -2 -26.5t6 -13.5q8 -8 7 -19q-2 -13 -15 -19q-13 -10 -32 -10q-7 -1 -15 1q-30 4 -58.5 19t-46.5 35q-12 14 -12 28q0 7 3 14z" />
<glyph unicode="I" horiz-adv-x="572" d="M-8 51q2 9 9.5 15t19.5 12q9 4 18.5 10t13.5 14q127 317 252 654.5t216 669.5q-11 4 -32 7.5t-43.5 9.5t-41.5 14.5t-23 21.5q-9 21 10 41t53 36t78.5 28.5t88 21t78.5 10.5q25 2 41 2h11q20 -4 20 -37q0 -16 -5 -40q-15 -71 -73 -234q-27 -76 -66 -179.5t-83.5 -220 t-91 -238t-88 -232.5t-75.5 -202t-51 -146q-6 -19 -3 -26.5t6 -13.5q9 -9 8 -19q-2 -13 -15 -19q-4 -4 -15.5 -7.5t-45.5 -3.5q-9 0 -37.5 2t-58 7.5t-52.5 16t-23 25.5z" />
<glyph unicode="J" horiz-adv-x="566" d="M-630 -180q2 9 10.5 23.5t20 24t22 9.5t19.5 -19q21 -46 67.5 -71.5t111.5 -25.5q51 0 109 19t114.5 60.5t109.5 109.5t95 169q-2 -6 18 46.5t54 141.5t78 206t89.5 239t87 241.5t73 214.5t46.5 154q9 38 9 53q0 9 -3 11q-11 6 -27.5 7t-32.5 2.5t-30.5 6.5t-19.5 16 q-2 6 -2 13q0 23 31 47q41 29 99.5 52t117.5 37t82 14q13 0 24.5 -2.5t16.5 -21.5q2 -11 2 -28q0 -13 -2 -30q-3 -39 -22 -109q-91 -275 -205 -539.5t-231 -543.5q-40 -87 -79 -177t-85.5 -173.5t-103.5 -154.5t-132.5 -120.5t-173.5 -73.5q-63 -15 -138 -15q-42 0 -87 5 q-27 4 -53 22t-47 44.5t-31 56.5q-6 16 -6 32q0 14 4 27z" />
<glyph unicode="K" horiz-adv-x="1164" d="M-4 34q-4 5 -4 10q0 6 6 13q3 7 11 9q8 4 16.5 12.5t14.5 25.5q4 11 23.5 69t49 140.5t63.5 182t67 196.5h-2q-11 0 -28.5 3t-20.5 18q-2 15 4.5 22.5t18 12.5t25.5 8t25 8q28 87 58 177.5t55.5 176.5t48 163t38.5 139q-11 4 -27.5 4t-33.5 2t-32 5.5t-21 17.5 q-15 27 6.5 53t62.5 48t94 39q54 17 100 25q42 8 71 8h7q32 -1 34 -14q1 -7 1 -15q1 -47 -21 -125q-24 -91 -61.5 -196.5t-77.5 -211.5t-66 -184q85 68 185.5 156.5t195.5 179.5t173.5 175.5t120.5 146.5q19 27 44.5 43t56 24.5t60.5 11.5t59 5q22 0 28 -12q3 -7 4 -16 q0 -6 -2 -14q-4 -17 -15.5 -34t-20.5 -25l-567 -506q4 -36 12.5 -109t20 -164t25.5 -190.5t27.5 -189t26.5 -158.5t25 -99q4 -15 11 -19t13 -6q4 -2 9.5 -4t9.5 -9q6 -19 -11 -31.5t-43.5 -19t-53 -9.5t-38.5 -3q-53 0 -66.5 9.5t-14.5 13.5q-2 2 -5 12.5t-10.5 55 t-23 136.5t-39.5 260q-17 112 -32.5 216.5t-24.5 165.5q-57 -44 -106.5 -81t-92.5 -66q-51 -135 -101.5 -258t-90.5 -219.5t-64.5 -155.5t-26.5 -62q-4 -9 -17 -14t-27 -8t-25.5 -3h-13.5q-17 0 -43.5 5.5t-36.5 26.5z" />
<glyph unicode="L" horiz-adv-x="1024" d="M11 36q0 11 8 16t18 9.5t19.5 9.5t13.5 14q6 13 34.5 88t68 182.5t87 234.5t91 246.5t78 216t51.5 145.5q21 63 34 104.5t19.5 67.5t8.5 38t2 16q-13 8 -35 10.5t-42.5 6.5t-38.5 11.5t-26 26.5q-8 23 12 44t56 38t81.5 29t88.5 20t77 10h20q18 0 27 -2q21 -9 18 -49.5 t-17 -89.5t-32 -97.5t-28 -76.5q-53 -146 -110.5 -289.5t-115.5 -288.5t-113 -292t-102 -297h281.5h148.5t65.5 -1.5t33.5 -1.5q19 0 34 16t30 35t30.5 35t32.5 16q32 0 35 -35v-12q-1 -30 -13 -65q-16 -42 -43 -78.5t-55 -38.5q-49 -5 -112 -5h-21q-76 1 -157.5 4.5 t-159 10.5t-140.5 12q4 -8 4 -15q-4 -23 -43 -29q-20 -3 -42 -4q-21 0 -43 3q-46 6 -82.5 20t-36.5 31z" />
<glyph unicode="M" horiz-adv-x="1534" d="M38 32q-3 4 -3 9t3 9q6 9 14.5 17.5t18 17t12.5 17.5q2 6 10.5 28t14.5 39q101 265 196.5 529.5t180.5 541.5q32 99 40 136t8 46q-11 4 -27.5 4t-33.5 2t-31 5.5t-20 17.5q-9 17 2 35t31 34t41 28.5t32 17.5q34 23 78.5 42t81.5 20h3q35 0 54 -24q11 -15 11 -43 q0 -21 -6 -48q-2 -25 -2 -55q1 -52 7 -118q10 -102 30 -213.5t49.5 -223.5t63.5 -199q161 190 322.5 381t312.5 394q-11 4 -28 8.5t-28.5 12.5t-12.5 20t16 33q6 8 32.5 21t62.5 25.5t76 22t70 9.5q42 -1 52 -15q5 -7 5.5 -19.5t-5.5 -30.5q-10 -36 -37.5 -97.5 t-61.5 -158.5q-25 -72 -63 -176t-80.5 -222.5t-86.5 -243t-82.5 -237t-68 -205.5t-40.5 -148q-2 -8 0.5 -19.5t5.5 -22.5t2 -20.5t-12 -15.5q-13 -10 -35 -10h-6q-26 2 -53.5 10t-51 19t-32.5 23q-21 23 -21 45q2 11 36 102.5t102 275.5q66 178 136.5 356t127.5 362 q-17 -36 -60 -101.5t-100 -142t-122 -156t-126 -144t-109 -105.5t-73 -41q-28 0 -49 9.5t-42 47.5t-44.5 116.5t-59.5 215.5q-15 57 -27.5 113t-22.5 103q-15 -46 -41.5 -117t-59.5 -155.5t-70 -177t-73 -183t-69.5 -171t-58 -141t-38.5 -95.5t-14 -33q-4 -8 -15.5 -12.5 t-25 -7.5t-26.5 -4t-19 -1q-51 0 -68 32z" />
<glyph unicode="N" horiz-adv-x="1219" d="M-1 50q5 10 13.5 18t18 17.5t13.5 16.5q4 6 7.5 19.5t11.5 30.5q17 47 44.5 123t61.5 168t71 196t75 209q53 155 101.5 299t70.5 258q-9 4 -22.5 5t-26.5 3q-13 0 -28.5 2.5t-25.5 9.5t-12 19t9 31q6 9 34.5 31t64.5 43q17 11 50 32t67 31q16 5 30 5q17 0 31 -6 q28 -12 34 -67q0 -8 5 -59t13.5 -130t19.5 -177.5t27 -200.5q8 -55 19 -134t26 -161.5t38 -160t53 -130.5q30 80 62.5 168t66.5 178t66.5 178t62.5 172q30 85 68 181.5t48 189.5q-8 4 -16.5 6t-17.5 6q-15 2 -26.5 5.5t-15.5 14.5t1 24t14 22q6 8 24 21t43.5 25.5t56 22 t60.5 9.5q25 0 49 -10q9 0 15 -13q12 -25 12 -64q0 -17 -2 -37q-8 -64 -30.5 -143.5t-56 -168t-68.5 -172.5t-67 -157.5t-51 -122.5q-44 -106 -87.5 -206.5t-80.5 -187.5t-64.5 -156.5t-36.5 -114.5q-4 -19 -22 -45.5t-39 -26.5q-61 -1 -73 37q-5 16 -4 35q0 26 9 58 q-11 47 -36 153.5t-55.5 245t-62.5 295t-61 308.5q-28 -82 -55.5 -161.5t-69.5 -187.5q-55 -140 -107 -273t-94.5 -236.5t-70 -169t-29.5 -68.5q-4 -8 -15.5 -12.5t-24.5 -7.5t-25.5 -4t-20.5 -1q-51 0 -66 32q-3 4 -3 9t2 9z" />
<glyph unicode="O" d="M72 313q2 91 20 189.5t47.5 197t62.5 186t63.5 155t51.5 101.5q68 118 166.5 225.5t214.5 176.5q116 70 244 87q27 4 54 4q100 0 197 -50q11 -6 30 -16t36 -23.5t27 -29.5q7 -10 7 -22q0 -7 -2 -13q-4 -9 -16 -18t-27 -14.5t-33 -6.5t-34 9q-11 6 -26 17t-35 21.5t-44 19 t-50 8.5q-63 0 -132 -41t-134.5 -103.5t-121.5 -134.5t-94 -134q-61 -101 -122.5 -232t-103.5 -264q-40 -134 -50 -257q-2 -22 -2 -43q0 -96 36 -166q19 -34 53 -38q6 -1 12 0q29 0 63 13q40 16 84.5 46t84.5 63.5t70.5 64.5t45.5 48q97 118 184 266t159 355q27 76 36.5 126 t11.5 89q2 28 2 54v21v15q0 31 3 68q0 19 8.5 30.5t20 16t23 5.5t16.5 1q38 0 61 -23.5t34 -60.5q12 -36 13 -82v-19q0 -35 -3 -71q-4 -44 -11.5 -84.5t-13.5 -63.5q-27 -99 -72 -209.5t-108.5 -219.5t-143.5 -208.5t-174.5 -176.5t-203.5 -122.5t-233 -45.5q-95 0 -150 42 q-56 40 -80 110q-23 64 -22 147v14z" />
<glyph unicode="P" horiz-adv-x="1027" d="M16 50q5 10 13.5 18t18 16.5t13.5 17.5q6 13 26.5 74t52 151t69.5 203t77 232q28 87 58 174.5t54.5 171t44.5 159.5t31 138q-9 4 -22.5 5t-26.5 3q-23 0 -40 2.5t-25 18.5q-6 13 -1 25.5t9 15.5q15 19 57.5 43t93 44.5t99.5 34t76 13.5q4 0 12.5 -3t15 -14t11.5 -34 q2 -10 2 -25q0 -17 -3 -40q17 17 55 35t81.5 31.5t86 22t69.5 8.5q119 0 175 -49q55 -48 69 -124q5 -31 6 -65q0 -50 -12 -105q-20 -93 -52 -182q-80 -220 -232.5 -318t-393.5 -98h-23t-31 4t-27.5 10.5t-11.5 21.5q0 27 35 43t79 16q85 0 147 15.5t108 51.5t81.5 96.5 t67.5 151.5q23 64 42 136t21 134v10q0 55 -17 92q-18 40 -69 40q-85 0 -157 -24t-124 -50q-55 -154 -107 -307.5t-114 -318.5q-55 -140 -108.5 -273t-96 -236.5t-69 -169t-28.5 -68.5q-6 -9 -19 -14t-27.5 -8t-19.5 -3h-17q-19 0 -45 5.5t-37 26.5q-3 4 -3 9t2 9z" />
<glyph unicode="Q" horiz-adv-x="1158" d="M72 313q2 91 20 189.5t47.5 197t62.5 186t63.5 155t51.5 101.5q68 118 166.5 225.5t215 177t243.5 86.5q28 4 54 4q100 0 197 -50q11 -6 30 -16t36 -23.5t27 -29.5q7 -10 7 -22q0 -6 -2 -13q-4 -9 -16 -18t-27 -14.5t-33 -6.5t-34 9q-11 6 -26 17t-35 21.5t-44 19 t-50 8.5q-63 0 -132 -41t-134.5 -103.5t-121.5 -134.5t-94 -134q-61 -101 -122.5 -232t-103 -264.5t-50.5 -256.5q-2 -22 -2 -43q0 -95 36 -166q19 -34 53 -38h12q29 0 63 13q40 16 84.5 46t84.5 63.5t70.5 64.5t45.5 48q97 118 184 266t159 355q27 76 36.5 126t11.5 89 q2 28 2 54v21v15q0 30 3 68q0 19 8.5 30.5t20 16t23 5.5t16.5 1q38 0 61 -23.5t34.5 -60.5t12.5 -82v-19q0 -36 -3 -71q-4 -45 -11.5 -85t-13.5 -63q-27 -93 -68.5 -196t-98.5 -206.5t-130 -200t-158 -174.5q51 -27 99.5 -42t80.5 -15q19 0 29 6q19 8 36 7q42 0 45 -24 q1 -3 1 -7q0 -32 -96 -81q-89 -45 -174 -45h-4q-61 0 -111 21t-79 57q-70 -38 -146.5 -60t-160.5 -22q-95 0 -150 41.5t-80 110.5q-22 65 -22 147v14z" />
<glyph unicode="R" horiz-adv-x="1039" d="M-6 34q-3 4 -3 9t3 9q6 9 14.5 17.5t18 17t13.5 17.5q6 13 27.5 76t54 155t72 206.5t79.5 234.5q28 87 56.5 174t53.5 170.5t45 159.5t31 138q-11 4 -36 5t-45.5 6.5t-30 19t7.5 40.5q11 19 54.5 42.5t96 43.5t101.5 34t72 14q25 0 36 -11.5t13 -29.5t-2.5 -40.5 t-10.5 -43.5q19 19 56 38t80.5 34t87 24.5t72.5 9.5q85 0 136 -27.5t76 -74t27 -106.5q0 -12 1 -24q0 -48 -8 -100q-10 -66 -30 -132.5t-39 -123.5q-27 -70 -61 -135.5t-79.5 -121t-104.5 -100.5t-134 -73q9 -27 14.5 -73.5t11.5 -102t11.5 -113.5t13 -106.5t20 -79.5 t29.5 -35q4 -2 9.5 -4t9.5 -9q4 -9 0 -15t-6 -10q-9 -13 -43 -23.5t-72 -13.5q-14 -1 -28 -1q-21 0 -41 3q-32 5 -38 20q0 2 -0.5 8.5t-4.5 35t-11.5 87t-24.5 165.5q-11 68 -21 131.5t-15 101.5q-13 -2 -41.5 -3t-58 1t-52.5 10.5t-23 27.5q0 28 37 45t81 17q91 0 155.5 21 t111 63.5t82.5 110t70 162.5q27 74 49 155q20 82 26 151q1 17 2 32q0 49 -13 83q-17 46 -66 45q-85 0 -158 -26.5t-126 -56.5q-49 -148 -102.5 -297t-114.5 -308q-55 -140 -109 -275t-97.5 -241t-72 -172.5t-30.5 -69.5q-4 -9 -17 -14t-27 -8t-25.5 -3h-13.5 q-17 0 -43.5 5.5t-38.5 26.5z" />
<glyph unicode="S" horiz-adv-x="1005" d="M8 194q10 43 36 83t63 67.5t73 27.5q27 0 34.5 -16.5t3.5 -38t-14.5 -44.5t-21.5 -36q-23 -37 -23 -61q1 -6 1 -10q6 -26 32 -40t68 -19t85 -5q59 0 121.5 26t116.5 69.5t93 100.5t50 121q4 25 4 50q0 37 -10 71q-16 58 -47.5 114.5t-72.5 106t-79 90.5q-36 40 -66 86.5 t-48 98t-21 106.5v15q0 48 16 96q25 76 86.5 143.5t142 117.5t169.5 79.5t169 29.5q27 0 68.5 -4.5t82.5 -16t74 -32.5t44 -53q3 -11 3 -24q0 -57 -69 -149q-6 -8 -23 -24.5t-38 -32t-41 -21.5t-31 5q-9 8 -9 21t3.5 27t10.5 28.5t10 23.5q8 19 14.5 36t2.5 27q-9 38 -50 48 t-105 10q-66 0 -127 -21.5t-108.5 -60.5t-76.5 -93t-33 -117v-7q-1 -47 23 -91q26 -46 67 -91.5t89 -92t91 -99.5t72 -114.5t33 -135.5v-18q0 -99 -40 -191q-44 -100 -118.5 -178t-174 -127t-207.5 -57q-19 -2 -37 -3t-37 -1q-42 0 -86.5 5t-87 19t-79.5 39t-62 64 q-12 19 -12 44q-1 14 3 29z" />
<glyph unicode="T" horiz-adv-x="917" d="M20 56q8 12 26 22q9 4 18.5 9.5t13.5 13.5q6 11 28.5 75.5t56.5 161t77.5 215t91.5 242.5q63 163 120.5 332.5t101.5 344.5q-34 0 -55 -2t-43 -3t-48.5 -3t-68.5 -4q-28 0 -44 -9.5t-41 -30.5q-15 -13 -26.5 -20.5t-26.5 -5.5q-25 12 -27 44v6q0 30 13 61 q14 35 41.5 64.5t59.5 36.5q70 13 152 16q61 2 126 2h44q90 -1 185.5 -4.5t192.5 -3.5h68.5t50.5 2q13 0 25.5 2.5t28.5 2.5q32 0 36 -36v-8q0 -15 -5 -35q-7 -26 -16.5 -52t-22.5 -48t-27 -31q-9 -6 -15 -6q-11 0 -19.5 8.5t-15 18t-16 19t-25.5 9.5q-72 4 -132.5 6 t-126.5 4q-32 -70 -80.5 -183t-102 -246t-108.5 -275t-102 -272t-82.5 -237t-48.5 -170q-4 -21 -1 -30.5t13 -28.5q0 -9 -16 -21q-10 -11 -42 -12h-11q-27 0 -56 4q-35 5 -67 12.5t-44 16.5q-10 9 -10 17q0 5 2 9z" />
<glyph unicode="U" horiz-adv-x="1088" d="M78 256q-3 32 -3 65q0 97 25 196q33 132 86 271t112.5 288t101.5 312q4 21 4 31.5v14.5q-9 4 -22.5 5.5t-26.5 3.5q-15 2 -29.5 6t-23 11.5t-9.5 19.5t10 29q13 19 55 40t92.5 39t98.5 30.5t73 12.5q40 -1 50 -27q6 -16 7 -35q0 -13 -3 -28q-7 -37 -22 -78t-24 -69 q-27 -80 -64 -175.5t-77 -200.5q-27 -66 -62.5 -160t-68 -196.5t-54.5 -203.5q-20 -94 -20 -170v-11q2 -80 32.5 -130t104.5 -50q119 0 250 161q93 114 168 252.5t134.5 288t104.5 304t79 300.5q-9 4 -22.5 5t-27.5 3q-11 0 -27 3.5t-28.5 10.5t-14.5 19t15 29 q13 25 46.5 49.5t74.5 43.5q41 18 82 30q35 10 62 10h9q18 -4 20 -24q1 -11 1 -22q0 -10 -1 -20q-9 -93 -40.5 -208.5t-74 -237t-92 -237.5t-96.5 -207q-27 -51 -64 -118t-85 -139.5t-105 -141.5t-119.5 -124t-132 -88t-141.5 -33q-63 0 -118.5 13t-97.5 42.5t-69.5 77 t-32.5 117.5z" />
<glyph unicode="V" horiz-adv-x="1107" d="M84 36q-7 13 -7 28q0 36 37 86q21 93 50 217t59.5 258.5t62 267.5t56 245t41.5 190.5t23 105.5q-9 4 -25.5 3.5t-31.5 1.5t-28.5 7t-18.5 18q-11 19 2 39t40.5 38t63.5 34t71 27.5t63.5 18t41.5 6.5q40 0 50 -33q6 -20 5 -45q0 -15 -2 -33q-6 -46 -18 -90.5t-18 -67.5 q-49 -224 -107 -446t-122 -451q138 163 239.5 282.5t175.5 206.5t124 145t83.5 97t54.5 64.5t38 47.5t33 43.5t39 53.5q-11 4 -35 6t-44 7.5t-29.5 18t7.5 37.5q6 8 33.5 29.5t66.5 44t84 40.5t87 18q53 0 53 -40q0 -16 -9 -38q-30 -78 -146 -233q-55 -74 -138.5 -174.5 t-179 -213t-194.5 -230t-184 -226.5t-149.5 -201t-89.5 -153q-9 -27 -7.5 -39t5.5 -16q8 -15 -1.5 -23.5t-26.5 -13.5t-37 -6t-33 -1q-85 0 -108 42z" />
<glyph unicode="W" horiz-adv-x="1816" d="M82 57q-3 9 -3 20q0 12 4 25q6 11 35 53q19 95 45.5 219.5t54 259t55 268t50 244.5t37.5 190t19 103q-17 6 -43 6q-21 4 -38 6.5t-23 18.5q-11 19 3 38.5t41.5 37.5t64.5 33.5t72 27.5t62.5 19t39.5 7q9 0 24 -2t21 -13q4 -6 6 -19.5t-1 -41t-10.5 -74t-22.5 -120.5 q-49 -229 -109 -454.5t-125 -459.5q99 129 202.5 256t205.5 255t202.5 259t193.5 270q8 15 37.5 39.5t63.5 47.5t65.5 40t46.5 17q9 0 15 -7.5t2 -17.5q-9 -59 -29 -148t-47 -195t-57 -222t-60.5 -227t-60 -211.5t-50.5 -175.5q184 226 372 445.5t376 462.5q23 30 33 46 t14 24q-9 4 -20.5 4t-23.5 2q-11 0 -26 3.5t-26.5 11t-14.5 20t12 27.5q6 8 32.5 30t66.5 44.5t85.5 40.5t87.5 18q52 0 52 -39q1 -15 -9 -39q-32 -78 -148 -233q-55 -72 -138.5 -172.5t-178 -213.5t-194 -231.5t-185 -227.5t-149 -201t-88.5 -152q-9 -23 -3.5 -44t1.5 -30 t-17 -14t-27 -8t-25.5 -3h-13.5q-21 0 -42 6.5t-37 20t-21.5 32.5t3.5 43q2 8 10.5 21.5t23.5 33.5q11 44 28.5 117t38.5 165t45.5 195.5t48 208.5t44.5 205.5t38 185.5q-74 -95 -159.5 -202t-171.5 -217t-166.5 -218t-148 -202.5t-117 -171.5t-68.5 -124q-11 -27 -8 -39.5 t5 -15.5q8 -15 0 -24t-22 -12.5t-30.5 -5.5t-27.5 -2q-21 0 -42 5.5t-36.5 19t-21.5 32.5z" />
<glyph unicode="X" horiz-adv-x="1204" d="M-116 36q-1 4 -1 7q-1 13 11 21q14 10 23 14q9 6 64 59t144 141t205 204.5t246 251.5q15 15 29.5 30t29.5 32q-61 300 -102.5 471.5t-52.5 190.5q-23 11 -48.5 28.5t-31.5 45.5q-6 27 7.5 42t35.5 23.5t47.5 10.5t42.5 2q25 0 58 -4t67 -15q13 -4 23.5 -24t19 -45.5 t14.5 -51t9 -40.5q27 -114 43 -227t39 -230q21 15 60 56.5t85 94t93.5 108.5t86.5 102.5t62.5 75.5t23.5 27q4 9 -0.5 13t-12 8t-16.5 8t-10 13q-9 25 11.5 43t51.5 29.5t64.5 17t48.5 5.5q49 0 68 -12q18 -11 18 -28q0 -18 -17 -46q-16 -26 -39 -54q-119 -165 -264 -311 t-293 -300q25 -180 47.5 -359.5t47.5 -364.5q4 -15 6.5 -26.5t8.5 -36.5q-4 -15 -17.5 -22.5t-30.5 -11.5t-35 -4h-33h-30t-42 4t-37 12.5t-16 25.5q2 11 9.5 17t17 9.5t19 8.5t15.5 14q0 28 -10.5 100.5t-25 158.5t-30.5 171.5t-27 136.5q-121 -123 -237 -238t-207 -205 t-148 -145t-61 -59t-10.5 -6.5t-23.5 -2.5q-2 0 -15 1t-29 4.5t-31.5 10.5t-17.5 20z" />
<glyph unicode="Y" horiz-adv-x="972" d="M-125 33q0 29 78 45q2 2 11 9.5t31 30t59 63.5t96 107q102 116 202.5 233.5t195.5 242.5q-27 66 -48.5 144t-39.5 157.5t-32.5 153.5t-25.5 135q-8 40 -13.5 74t-9.5 44q-15 9 -40.5 16.5t-33.5 28.5q-8 25 11.5 45t49.5 35t62.5 23.5t49.5 8.5q30 0 47 -8.5t26.5 -24.5 t13.5 -40t10 -54q27 -146 41.5 -294t41.5 -309q87 108 161 200t127 162t84.5 115.5t37.5 58.5q4 9 -1 13.5t-12.5 8t-16 7.5t-10.5 13q-9 25 11.5 43t52 29.5t64.5 17t48 5.5q82 0 83 -38v-2q0 -37 -43 -102q-114 -176 -255.5 -342.5t-296.5 -346.5q9 -34 20 -73 q4 -13 4 -25q0 -27 -18 -53q-11 -13 -23.5 -10.5t-25 14t-24 25.5t-16.5 24q-106 -123 -196.5 -236t-157.5 -200.5t-108 -141.5t-45 -57q-8 -8 -34 -8h-39t-65 3t-61.5 9.5t-27.5 20.5z" />
<glyph unicode="Z" horiz-adv-x="1152" d="M-88 36q-1 2 -1 4q0 8 11 19q6 8 39 56t115 126q68 64 146 148.5t163 177.5t177 190.5t187 192.5q125 125 209.5 219t138.5 160.5t81.5 106t38.5 54.5q-40 2 -78.5 4t-94.5 2t-140.5 -2t-217.5 -7q-13 0 -25 -11.5t-26.5 -24t-32.5 -23t-46 -10.5q-13 0 -25.5 11.5 t-16.5 38.5q-1 7 -1 14q0 42 21 76q24 39 84 50q47 11 102.5 15t113 4t113.5 -3t105 -5q8 0 45 2t87 3h51h53q56 -1 103.5 -4.5t78 -11.5t30.5 -21q2 -9 -8.5 -31t-52.5 -75q-76 -95 -142 -175.5t-138 -163t-157.5 -172.5t-199.5 -200q-95 -91 -183 -182t-166.5 -171.5 t-146 -150t-120.5 -118.5q74 0 158.5 2t172.5 4.5t176 4.5t166 2q13 -2 23.5 13.5t24 35t31.5 37t44 17.5q17 0 24 -11.5t9 -30.5q2 -16 2 -30q1 -42 -13 -72q-18 -42 -53 -67.5t-85.5 -38t-106.5 -12.5q-66 0 -149 3t-168 7.5t-167 10t-142 9.5q-8 -2 -21 -5.5t-38 -7.5 q-15 -4 -44.5 -7t-59.5 -3q-9 0 -22.5 3t-23 8.5t-12.5 15.5z" />
<glyph unicode="[" horiz-adv-x="845" d="M66 -106q0 36 15.5 96.5t38 136.5t53 159.5t59 164t55 150.5t43.5 121q9 28 32 98.5t51.5 158t62.5 183t66.5 177t61.5 139.5t50 71q27 15 66.5 20t84.5 4t86.5 -5t71.5 -5q30 0 45.5 -13.5t17.5 -32.5t-11.5 -37t-41.5 -27q-17 -6 -38 -7t-43 -3t-42 -6t-33 -15 q-6 -9 -29.5 -64t-59.5 -150t-85 -225t-106 -285q-49 -131 -94 -254.5t-80 -222t-57.5 -164t-26.5 -82.5q6 -4 19 -6.5t22 -6.5q27 -6 50.5 -13.5t33.5 -24.5q13 -27 -7 -45.5t-56 -30t-82.5 -15.5t-88 1t-72 20t-32.5 40z" />
<glyph unicode="\" horiz-adv-x="582" d="M143 1260q-1 24 1 34.5t6 15.5q4 6 6.5 8t6.5 4q32 13 65.5 3.5t50.5 -34.5q27 -30 13 -53q0 -4 -4 -7q0 -4 -1 -11.5t0 -24.5t4 -46.5t9 -77.5q17 -114 34 -255t34 -284t34 -276t34 -228q6 -28 -4 -41q-4 -13 -17 -23.5t-28 -9.5q-9 2 -19 7t-11 14q-21 63 -39 149 t-36 186t-33.5 207t-30.5 211t-28.5 200t-26.5 172q-11 59 -15 97.5t-5 62.5z" />
<glyph unicode="]" horiz-adv-x="912" d="M-2 -99q11 28 34 39t51.5 14.5t56 7.5t46.5 21q4 8 27.5 70.5t60.5 161t83.5 224.5t95.5 263q55 154 99.5 280.5t78 222.5t52.5 154t21 73q-6 6 -23 7.5t-36 2.5t-39 3t-31 8q-30 15 -31.5 34t14 35t40 28.5t45.5 12.5q23 0 65.5 3.5t89 5.5t88 -4t60.5 -23 q6 -8 -9 -62.5t-41 -136t-59 -178.5t-66 -187t-59.5 -163t-40.5 -107q-21 -53 -47.5 -126t-56.5 -154.5t-62.5 -165t-63 -157.5t-58.5 -132.5t-49 -91.5q-8 -8 -37.5 -18t-70 -18.5t-84 -12.5t-79 1t-55 20t-10.5 45z" />
<glyph unicode="^" horiz-adv-x="1323" d="M145 802q7 21 20 48q4 6 38 33t86 66t114.5 83.5t122.5 85.5t110.5 72.5t78.5 42.5q44 21 69.5 33t38.5 17.5t18 7.5t7 2q42 2 93 -36t96.5 -88t81.5 -101.5t51 -77.5q11 -19 10 -35t-5.5 -29.5t-12 -22t-9.5 -12.5q-13 -23 -32 -34t-38 -14t-38 1t-32 11 q-17 8 -49.5 56.5t-68.5 103.5t-73 96.5t-63 35.5q-46 -21 -115 -67.5t-142 -100.5t-139.5 -107t-108.5 -87q-23 -19 -51.5 -22.5t-47.5 9.5q-17 9 -10 30z" />
<glyph unicode="_" horiz-adv-x="800" d="M-25 44.5q0 19.5 8 33t25 7.5q40 -15 122 -15t180 5t193.5 9.5t160.5 2.5q19 0 33 -20.5t21.5 -45.5t7.5 -46t-9 -21q-49 -6 -116.5 -11.5t-141.5 -9t-148 -3.5t-138.5 5.5t-114 17t-71.5 32.5q-4 4 -8 22t-4 37.5z" />
<glyph unicode="`" horiz-adv-x="589" d="M144 1252q2 17 17 27t33 15t35.5 3t26.5 -9q6 -6 26 -24t45.5 -42t52 -52t44.5 -54t22.5 -46t-12.5 -29q-27 -13 -77 5t-99 51t-84.5 75t-29.5 80z" />
<glyph unicode="a" horiz-adv-x="895" d="M-8 248q9 142 78.5 268.5t171 221t223 149.5t233.5 55q23 0 54 -3.5t60.5 -13t56 -24.5t41.5 -38q8 -18 8 -34q0 -9 -2 -17q-9 -28 -36 -29q-9 0 -19 4t-23 8q-25 8 -60 17t-86 9q-49 0 -103 -24.5t-103.5 -61.5t-91 -80.5t-68.5 -81.5q-108 -157 -142 -279 q-20 -72 -20 -119q0 -33 10 -54q11 -17 42 -11t65 23t65 37t43 31q40 38 99.5 103.5t113.5 138.5t92 146q36 69 36 122v6q-2 21 7.5 37t30.5 16h2q2 0 10.5 -2t20 -9.5t24.5 -22t26 -38.5q12 -25 12 -63q0 -21 -3 -45q-10 -70 -39.5 -150t-73 -165t-91.5 -156v-5 q0 -21 11.5 -22t24 1t23.5 0t11 -23q0 -28 -22 -46t-56 -24q-15 -3 -32 -3q-19 0 -38 4q-36 7 -62 25q-24 18 -32 47q-2 7 -2 15q0 24 17 56q-76 -59 -150 -91q-112 -53 -231 -53q-44 0 -69.5 25.5t-38.5 62.5q-14 36 -16 80q-2 31 -2 59v21z" />
<glyph unicode="b" horiz-adv-x="921" d="M-8 64q11 46 38 128.5t62 186t78.5 221t88 232t90 221t85.5 189t71.5 132.5t50.5 54q10 2 20 2q30 0 54 -19q32 -25 50 -58t19 -64.5t-20 -38.5q-19 -6 -43.5 -37.5t-53 -80.5t-61 -113.5t-64.5 -138.5q72 51 149.5 80.5t153.5 29.5q34 0 69.5 -9.5t63 -32.5t45.5 -60.5 t18 -92.5q0 -66 -26.5 -151t-72 -173t-109 -173.5t-138.5 -150.5t-157.5 -106t-166.5 -41q-101 0 -148 36q-2 -2 -1 -6q-5 -20 -31 -28q-14 -4 -29 -5q-11 0 -23 3q-26 6 -47 22q-16 13 -16 32q0 5 1 10zM186 190q-2 -15 -2 -27q0 -45 26 -51q16 -4 34 -4q38 0 81 19 q64 28 130 82.5t128 127.5t110 149.5t76 149.5q25 64 25 114q0 7 -1 14q-5 53 -31 70q-18 12 -42 12q-11 0 -23 -2q-39 -8 -85.5 -34.5t-90 -59.5t-79.5 -69t-53 -61q-34 -49 -65.5 -102t-58.5 -105q-23 -63 -43.5 -118.5t-35.5 -104.5z" />
<glyph unicode="c" horiz-adv-x="804" d="M-8 265q9 142 72 265.5t157 215.5t207.5 144t225.5 52q83 0 125 -22q41 -22 55 -54q8 -20 9 -41q1 -14 -3 -28q-8 -37 -27.5 -68t-41.5 -50t-33 -15q-27 8 -32.5 33t-8.5 52.5t-10.5 49.5t-37.5 22q-49 0 -93 -17t-82 -45.5t-69 -64.5t-58 -74q-55 -78 -91 -153.5 t-55 -138.5t-19 -108.5t19 -64.5q17 -19 52 -19h2q33 0 77 14q44 15 94 44.5t99 72.5q63 55 109.5 95t80.5 40q19 0 19 -23.5t-21 -60.5t-60.5 -82.5t-98.5 -89.5q-110 -80 -214 -115q-94 -31 -192 -31h-23q-44 2 -70.5 29.5t-40.5 68t-18 86.5q-4 37 -4 68v13z" />
<glyph unicode="d" horiz-adv-x="944" d="M-17 248q9 142 74.5 268.5t164 220.5t216.5 149t229 55q32 0 77 -8t83 -28q36 99 72 186.5t67 154t56 106.5t42 44q10 2 20 2q29 0 51 -19q29 -25 43 -58q13 -29 13 -57v-8q-2 -32 -23 -39q-11 -4 -36.5 -51t-59 -123t-73 -172.5t-80.5 -198t-80 -202t-70 -183 t-53 -139.5t-28 -74q-11 -34 -35.5 -52t-48.5 -24q-16 -4 -29 -4q-6 0 -12 1q-17 3 -15 13q0 4 18 61.5t50 152.5q-91 -95 -192.5 -158.5t-188.5 -63.5q-61 0 -109 13.5t-82 43.5q-33 31 -49 77q-13 37 -13 88q0 12 1 26zM147 182q1 -46 12 -70q8 -12 25 -12q8 0 18 2 q32 8 67.5 26t67 40t42.5 33q40 38 96 102.5t107 137.5q52 73 86 146q33 69 32 122v6q-2 21 7.5 37t30.5 16h2q2 0 11 -2t23 -9q4 11 7.5 21.5t7.5 19.5q-23 8 -54 14.5t-73 6.5q-49 0 -103.5 -24.5t-103.5 -61.5t-91 -80.5t-68 -81.5q-55 -78 -88 -151q-32 -72 -47 -132 q-14 -56 -14 -100v-6z" />
<glyph unicode="e" horiz-adv-x="805" d="M-8 223q0 60 8 118.5t20 108t26 75.5q99 216 254 316.5t371 100.5q116 0 161.5 -39.5t45.5 -96.5q0 -91 -62.5 -161t-149 -119.5t-176.5 -80t-147 -43.5q-15 -4 -39.5 -5t-34.5 14q-6 9 4 22t19 22q38 30 107 58.5t137.5 64t118.5 80t50 108.5q-2 25 -12 48.5t-39 23.5 q-87 0 -165.5 -53t-141.5 -133.5t-107 -173.5q-43 -94 -63 -174q-14 -56 -14 -99q1 -18 3 -34q8 -53 50 -53q114 0 192.5 39.5t132 87t85.5 87.5t55 40q35 0 39 -28q1 -5 0 -9q0 -25 -18 -59q-22 -41 -70 -89.5t-120 -89t-166 -68t-208 -27.5q-53 0 -85 31t-46.5 80.5 t-14.5 109.5z" />
<glyph unicode="f" horiz-adv-x="658" d="M-264 -526q17 65 56 173t95 247.5t117.5 290.5t124.5 301.5t116 279.5q-42 15 -70.5 29.5t-26.5 40.5q2 19 13.5 32.5t26.5 13.5q8 0 30.5 -8.5t65.5 -18.5q19 51 47.5 119.5t62 140.5t67.5 143t63.5 128t52 93t32.5 42q30 15 67 15t74 -14t69 -40t55 -60q9 -15 12 -35 q1 -7 1 -14q0 -12 -3 -23q-6 -17 -20 -28.5t-37 -11.5q-23 2 -44 6t-41 4t-38.5 -6.5t-41.5 -25.5q-4 -4 -19 -31.5t-36 -69.5t-45.5 -92t-47.5 -99.5t-42 -92t-28 -67.5q49 -8 92.5 -9.5t81.5 -5.5q30 -2 57 -3t46.5 -6.5t31 -18t9.5 -36.5q0 -23 -17 -33.5t-43.5 -12.5 t-58.5 0t-65 4q-13 2 -26 3t-29 3q17 -51 17 -108q0 -13 -1 -27q-4 -76 -23 -157.5t-61 -176.5q-40 -91 -108 -194.5t-151.5 -203t-174.5 -189.5t-173 -154q-25 -51 -55 -78q-28 -25 -53 -25h-4q-8 1 -8 17.5t8 48.5zM-53 -277q19 13 56 52t83.5 101.5t95.5 146t91 186 t70 221t32 249.5q-53 -119 -112.5 -252t-116.5 -262t-109 -243.5t-90 -198.5z" />
<glyph unicode="g" horiz-adv-x="826" d="M-178 -802q-4 4 -4 10q0 7 8 16q13 16 62 31q34 11 82.5 43.5t99.5 80.5t99.5 110t84.5 132q49 97 101.5 211.5t101.5 231.5q-49 -30 -99.5 -47t-99.5 -17q-61 0 -111 17t-86 50.5t-54 83.5q-15 43 -15 99v19q9 142 68 265.5t148.5 213.5t199.5 142t222 52q23 0 54 -3.5 t60.5 -13t56 -24.5t41.5 -38q8 -18 8 -34q0 -9 -2 -17q-9 -28 -36 -29q-9 0 -19 4t-23 8q-25 8 -60 17t-86 9q-49 0 -96.5 -23.5t-90.5 -60.5t-78 -80t-61 -81q-55 -78 -83.5 -151.5t-40.5 -134.5q-8 -45 -8 -82q0 -13 1 -25q4 -46 15 -71q11 -17 42.5 -9.5t67.5 25.5 t67.5 40t42.5 33q40 38 86.5 103.5t86 138.5t64.5 146q23 68 23 120v8q-2 21 7.5 37t30.5 16h2q2 0 11 -1t21.5 -8.5t26 -22t22.5 -40.5q15 -44 15 -93v-23q-5 -61 -28 -125q-19 -82 -61 -190q-30 -80 -65 -166t-71 -172t-74 -169.5t-74 -157.5q-30 -61 -91 -136 t-135 -140.5t-152.5 -110t-143.5 -44.5q-25 0 -48.5 7.5t-32.5 19.5zM652 607h-1q0 -1 3 -2q0 2 -2 2z" />
<glyph unicode="h" horiz-adv-x="919" d="M-34 64q11 46 37.5 128.5t62 186t79 221t88 232t90 221t85.5 189t71 132.5t50 54q10 2 20 2q31 0 57 -19q35 -25 57 -58t24.5 -64.5t-18.5 -38.5q-21 -8 -48 -44t-59.5 -94t-68.5 -132.5t-72 -158.5q2 2 4 2t5 2q9 13 46.5 32t86 38t104 33t105.5 17q10 1 20 1 q39 0 69 -10q38 -12 51 -47q15 -45 15 -97q-1 -22 -3 -44q-8 -78 -33.5 -158t-62.5 -157.5t-70.5 -143t-57 -112t-23.5 -63.5q0 -21 11.5 -22t23.5 1t23.5 0t11.5 -23q0 -34 -42.5 -51t-93 -17t-93 16t-42.5 48q0 13 24.5 70t60.5 134t76 164t69 162q30 76 43 128q5 21 5 35 q0 20 -11 24q-24 10 -57 10q-14 1 -31 -1q-54 -6 -108 -24.5t-99.5 -40.5t-62.5 -39q-9 -9 -16 -15.5t-14 -12.5q-42 -102 -81 -202t-69.5 -185t-51 -148.5t-26.5 -94.5q-5 -20 -33 -28q-15 -4 -32 -5q-13 0 -27 3q-31 6 -53 22q-17 13 -17 31q0 5 1 11z" />
<glyph unicode="i" horiz-adv-x="432" d="M-27 101q-5 -13 -5 -25q0 -16 8 -29q14 -25 38 -37q20 -11 43 -10h7q26 2 40 23q23 40 60 114.5t78.5 164t83.5 184t74 178.5q32 86 48 148q11 42 12 67q0 12 -3 20q-11 29 -43 37q-17 4 -35 5q-16 1 -32 -3q-36 -6 -67.5 -22.5t-42.5 -31.5q-27 -42 -27 -66v-8 q6 -25 27 -50q6 -8 -10.5 -59t-45.5 -124t-65 -156t-67.5 -154.5t-53.5 -118.5zM338 1081v5q0 13 2 26q2 16 7 28q4 11 15.5 27t27.5 29.5t36 20.5q10 3 21 4q12 0 25 -5q23 -9 32.5 -25.5t9.5 -34.5t-5 -37t-8 -31q-9 -24 -43 -48q-21 -14 -45 -14q-16 0 -34 6 q-21 8 -31 21t-10 28z" />
<glyph unicode="j" horiz-adv-x="483" d="M-504 -538q9 -12 32.5 -19.5t48.5 -7.5q64 0 143 44.5t153 110t134.5 140.5t91.5 135q49 102 102 221t101.5 237.5t90 230.5t71 201t44.5 151q12 44 12 65q0 8 -2 13q-9 25 -46 25q-7 0 -14 -1q-50 -5 -109 -27.5t-108 -52t-61 -44.5q-11 -17 -9 -29.5t11.5 -20 t24.5 -10.5t30 -3q15 -2 29.5 -3t23.5 -4q8 6 -2.5 -36t-35 -115t-61 -170t-80 -202t-91 -210.5t-92.5 -196.5q-36 -70 -84.5 -131.5t-99.5 -110t-99.5 -80.5t-82.5 -44q-49 -15 -62 -30q-8 -9 -8 -16q0 -6 4 -10zM418 1166v8q0 11 2 24q3 16 7 27t15 27.5t27 29.5t37 20 q10 3 20 3q13 0 26 -4q23 -9 32.5 -25.5t9.5 -34.5t-5 -37t-9 -30q-9 -25 -43 -48q-21 -15 -45 -15q-16 0 -33 6q-21 8 -30.5 21t-10.5 28z" />
<glyph unicode="k" horiz-adv-x="845" d="M-32 64q11 46 36.5 128.5t60 186t75 221t83 232t86.5 221t82 189t68 132.5t49 54q10 2 20 2q31 0 58 -19q36 -25 57 -58t24.5 -64.5t-17.5 -38.5q-28 -9 -69 -76.5t-87 -169t-96.5 -225t-95.5 -244.5q34 40 97.5 107t133.5 133.5t134.5 115t100.5 48.5q85 0 129 -9.5 t44 -47.5q0 -23 -23 -39t-52.5 -29.5t-60.5 -23t-48 -16.5q-21 -11 -54.5 -37t-73 -59t-84 -72t-88.5 -79q8 -30 21 -74.5t28 -93t33.5 -97t34.5 -87t30 -64.5t24 -28q19 -4 37 -5.5t31 -7.5t20.5 -15t4.5 -28q-2 -6 -30.5 -16.5t-65.5 -14.5q-12 -1 -25 -1q-25 0 -50 5 q-38 8 -57 36q-15 21 -35 67.5t-42 102.5t-43.5 113.5t-36.5 101.5q-34 -32 -62.5 -54t-49.5 -35q-40 -108 -70.5 -188.5t-45.5 -113.5q-9 -19 -35 -25.5t-51.5 -2.5t-42.5 20q-13 12 -13 29q0 6 2 13z" />
<glyph unicode="l" horiz-adv-x="419" d="M-38 59q11 46 36 128t59 186.5t75 222t84.5 233t86 223t81.5 190t69.5 132.5t49.5 54q10 2 20 2q30 0 54 -19q32 -25 50 -58q19 -35 19 -67q0 -29 -20 -36q-13 -6 -49.5 -76t-84.5 -177.5t-103 -240t-107.5 -260.5t-96 -239t-66.5 -177q-11 -32 -40.5 -54t-58.5 -28 q-8 -2 -16 -2q-18 0 -32 10q-13 10 -13 31q0 10 3 22z" />
<glyph unicode="m" horiz-adv-x="1384" d="M-4 101l14 31q15 31 37.5 81.5t52 115t59 129.5t56 128t44.5 110t25.5 73t-1.5 20q-9 4 -23.5 5t-30.5 2q-15 0 -30 3t-24.5 10.5t-11.5 20t10 29.5q11 15 56.5 41.5t101.5 46.5q56 19 107 25q9 1 17 1q38 0 55 -21q8 -11 -3.5 -40.5t-34.5 -111.5q11 15 49 41t88.5 49.5 t104.5 40.5q46 14 86 14h14q46 -3 72 -31q24 -24 25 -75q0 -8 -1 -16q44 25 115 56t143 49q58 14 107 14h24q59 -4 76 -51q15 -45 15 -97q0 -22 -2 -44q-8 -78 -36 -158t-65 -158.5t-71.5 -144t-58 -112t-23.5 -63.5q0 -21 11.5 -22t23.5 1t23.5 0t11.5 -23q0 -23 -19 -38 t-47.5 -22.5t-62.5 -7.5t-62.5 6.5t-47.5 21t-19 36.5q0 13 25 71t61 137t75.5 167t69 165t43.5 130q6 22 5 36q0 20 -11 24q-19 8 -43 8q-19 0 -41 -5q-50 -12 -100 -40.5t-92.5 -65.5t-59.5 -71q-15 -30 -48.5 -103t-72 -161.5t-78.5 -177.5t-68 -152q-11 -25 -38 -27.5 t-51.5 8t-40.5 30.5t-5 43q30 63 73 154.5t84.5 185.5t77.5 178.5t53 133.5q-2 13 -5.5 27.5t-22.5 23.5q-18 10 -43 10q-17 1 -39 -5q-50 -12 -100 -40t-91.5 -61t-56.5 -58q-9 -15 -33 -64t-54.5 -114.5t-62.5 -138.5t-60.5 -135.5t-47.5 -106.5t-21 -49q-13 -21 -39 -23 h-8q-23 0 -43 10q-24 12 -38 36q-8 13 -8 29q0 12 5 26z" />
<glyph unicode="n" horiz-adv-x="953" d="M-8 101l14 32q15 32 38.5 83t53 115.5t59 132t56 131t45.5 111t26.5 74t-1.5 20.5q-9 4 -23.5 5t-30.5 3q-15 0 -30 3t-24.5 10.5t-11.5 19.5t10 29q11 15 56.5 43t101.5 49.5t107 27.5q10 1 19 2q36 0 53 -21q8 -11 -3.5 -44.5t-34.5 -114.5q9 13 45.5 33t84.5 40 t103 37q55 16 105 20q12 1 22 1q36 -1 64 -9q37 -12 50 -45q15 -45 14 -97q0 -22 -2 -44q-8 -78 -34.5 -158t-63.5 -157.5t-70 -143t-57 -112t-24 -63.5q0 -21 11.5 -22t24 1t23.5 0t11 -23q0 -23 -19 -38t-47 -22.5t-62.5 -7.5t-63 6.5t-47.5 21t-19 36.5q0 13 25 70 t60 134t75 164t69 162q30 76 42 128q5 21 4 34q0 21 -11 25q-23 10 -55 10q-16 -1 -35 -3q-56 -8 -111 -26.5t-99.5 -44t-57.5 -44.5q-9 -15 -35 -67t-59 -123.5t-69 -150t-66.5 -146t-51.5 -114t-23 -51.5q-13 -21 -39 -23h-8q-23 0 -43 10q-24 12 -38 36q-8 13 -8 29 q0 12 5 26z" />
<glyph unicode="o" horiz-adv-x="817" d="M-8 269q9 142 68 265.5t148.5 213.5t199.5 142t222 52q23 0 54 -3.5t60.5 -13t56 -24.5t41.5 -38q8 -18 8 -34q0 -9 -2 -17q-9 -28 -36 -29q-9 0 -19 4t-23 8q-25 8 -60 17t-86 9q-49 0 -96.5 -23.5t-90.5 -60.5t-78 -80t-61 -81q-55 -78 -83.5 -151.5t-40.5 -134.5 q-9 -45 -8 -82q0 -13 1 -25q4 -46 15 -71q11 -17 42.5 -9.5t67.5 25.5t67.5 40t42.5 33q40 38 86.5 103.5t86 138.5t64.5 146q23 68 23 120v8q-2 21 7.5 37t30.5 16h2q2 0 11 -1t21.5 -8.5t26 -22t22.5 -40.5q16 -44 16 -94q1 -23 -3 -47q-10 -77 -46.5 -155t-91.5 -150 t-120.5 -128t-138.5 -90t-141 -34q-61 0 -111 17t-86 50.5t-54 83.5q-15 43 -15 99v19z" />
<glyph unicode="p" horiz-adv-x="948" d="M-218 -501q11 46 38.5 132t65.5 195.5t82.5 233.5t93 246.5t96 236t88 201t74 141t52.5 57.5q9 2 18 2q25 0 47 -14q29 -18 48 -44q72 49 148 76.5t148 27.5q34 0 69.5 -9.5t63 -32.5t45.5 -60.5t18 -92.5q0 -66 -27 -151t-72.5 -173t-109 -173.5t-138 -150.5t-157 -106 t-166.5 -41q-64 0 -106 14t-64 47q-40 -101 -75 -195.5t-63.5 -174.5t-47.5 -138.5t-25 -87.5q-6 -21 -32 -29q-14 -4 -28 -4q-12 0 -24 3q-26 6 -46 22q-15 12 -15 31q0 5 1 11zM205 170v-11q0 -41 26 -47q16 -4 34 -4q37 0 81 19q64 28 130 82.5t128 127.5t110 149.5 t76 149.5q24 64 24 114v14q-4 53 -30 70q-19 12 -43 12q-11 0 -23 -2q-39 -8 -85.5 -34.5t-90 -59.5t-79.5 -69t-53 -61q-55 -78 -100.5 -164t-73 -160t-31.5 -126z" />
<glyph unicode="q" horiz-adv-x="1025" d="M11 248q9 142 81.5 276t178.5 237.5t230.5 166t236.5 62.5q19 0 43.5 -3t49 -8.5t48.5 -16t43 -23.5q23 32 36 34q10 2 20 2q30 0 54 -19q32 -25 50 -58q19 -35 19 -67q0 -29 -20 -36q-25 -9 -61 -63.5t-78.5 -140t-89 -193.5t-93 -222.5t-89 -228.5t-77 -210.5 t-57 -168.5t-30.5 -103q-6 -21 -32 -29q-14 -4 -28 -4q-12 0 -24 3q-26 6 -45.5 22t-14.5 42q9 40 30 108.5t51.5 156.5t66.5 190.5t76 208.5q-82 -72 -166 -117.5t-156 -45.5q-61 0 -109.5 13.5t-81.5 43.5t-49 77q-13 39 -13 93v21zM182 190q-2 -18 -2 -32q0 -29 8 -46 q8 -12 25 -12q8 0 17 2q32 8 68 26t67 40t43 33q27 25 64.5 66.5t78.5 92t80.5 106t71 110t50.5 103.5q17 44 17 78v7q-2 21 7.5 37t30.5 16h2q2 0 12 -1.5t26 -11.5q4 11 9.5 20.5t9.5 19.5q-23 8 -56.5 16.5t-78.5 8.5q-49 0 -103 -25t-103.5 -62t-91 -80.5t-68.5 -81.5 q-55 -78 -94 -158.5t-61.5 -149.5t-28.5 -122z" />
<glyph unicode="r" horiz-adv-x="826" d="M-4 101l23 51t55 126t69 162t65.5 159t42.5 116.5t3 37.5q-9 4 -23.5 5t-29.5 2q-15 0 -30.5 3t-24.5 10.5t-11 20t9 29.5q11 15 57 42.5t101 49.5q56 23 108 29q10 1 18 1q37 0 54 -22q8 -11 -4 -44t-34 -115q15 19 73 48.5t130 52t147 31.5q20 2 38 2q50 0 86 -18 q22 -12 22 -38q0 -7 -2 -15q-8 -38 -36 -71.5t-70 -46.5q-11 -3 -21 -3q-30 0 -60 26q-22 20 -61 20q-9 0 -20 -1q-54 -6 -110 -26.5t-102.5 -49t-59.5 -47.5q-9 -15 -32 -63.5t-52.5 -114t-61.5 -138.5t-58.5 -135.5t-45.5 -105.5t-21 -48q-13 -21 -39 -23h-8q-23 0 -43 10 q-24 12 -38 36q-8 13 -8 29q0 12 5 26z" />
<glyph unicode="s" horiz-adv-x="781" d="M-64 141q8 32 31.5 59.5t55.5 45.5t59 18q25 0 34 -8.5t13 -18.5q8 -19 3 -33t-14.5 -27.5t-19 -26t-9.5 -25.5q6 -8 20 -12.5t31 -7.5t34.5 -3.5t30.5 -0.5q34 0 74.5 12t77.5 34t64.5 54t37.5 72q3 14 3 28q0 31 -14 59q-20 40 -55 77t-75.5 73t-71 75t-43.5 83 q-5 18 -5 37q0 29 12 63q21 53 70.5 95.5t111 73t128 47.5t121.5 17q2 0 32.5 -1t67 -8.5t72 -24t48.5 -44.5q4 -10 4 -21q0 -16 -8 -34q-13 -30 -38.5 -57.5t-56 -46.5t-53.5 -19q-19 0 -27.5 9.5t-10.5 24t2 29.5t10 28q4 17 -5 26.5t-21 14.5t-27.5 6t-26.5 1 q-46 0 -85.5 -12.5t-70 -34.5t-48.5 -50t-18 -59q0 -25 19 -50.5t49.5 -52t65.5 -56t66.5 -62.5t53 -69t25.5 -78q1 -11 1 -22q0 -76 -38 -134q-43 -66 -112 -109.5t-152.5 -66t-161.5 -28.5q-30 0 -65 3t-68.5 12.5t-62.5 24.5t-50 42q-17 20 -17 44q0 7 2 15z" />
<glyph unicode="t" horiz-adv-x="521" d="M13 64q11 46 35 127.5t58 184t74 218t84 229.5q-57 4 -102.5 16t-72.5 35q-4 4 -7.5 14.5t-3.5 20t7.5 15t24.5 -0.5q32 -13 82 -15q16 -1 33 -1q35 0 73 3q40 102 77.5 195t72 163.5t62 113t44.5 46.5q10 2 20 2q29 0 51 -19q29 -25 43 -58q13 -29 13 -57v-8 q-2 -32 -23 -38q-8 -4 -24 -29.5t-37.5 -69.5t-49 -101.5t-56.5 -126.5q32 2 62.5 3t60.5 -1q19 0 33.5 -13t22 -27.5t7.5 -27.5t-10 -13q-51 -8 -107 -12.5t-112 -8.5q-42 -97 -84 -200t-80.5 -197t-70 -174.5t-52.5 -132.5q-6 -13 -2 -24.5t9.5 -21.5t11.5 -19.5t6 -21.5 q0 -32 -78 -32q-40 0 -72 12q-25 10 -25 36q0 7 2 16z" />
<glyph unicode="u" horiz-adv-x="915" d="M10 202q10 84 43.5 184.5t68.5 189t61 152.5q23 55 23 70q0 2 -1 4q-8 17 -27 27.5t-36 21t-26.5 23t5.5 32.5q4 8 40 16.5t84.5 16t100.5 9.5h20q39 0 68 -6q9 -2 -4 -37.5t-38.5 -92.5t-59.5 -130t-67.5 -149t-61 -148t-39.5 -129q-7 -35 -8 -61q0 -16 4 -30 q8 -34 43 -34q157 0 305 188q101 127 155 225.5t80.5 172.5t35 123t19.5 80q6 13 34.5 18.5t62.5 3t65.5 -14t42.5 -32.5q-15 -25 -32 -62.5t-40 -87.5q-25 -57 -55 -126t-59.5 -140t-55 -138.5t-41.5 -121.5t-18 -88t15 -38q36 -9 55 -22.5t24.5 -27t1 -24.5t-16.5 -13 q-17 -4 -61 -8q-22 -2 -44 -2t-44 2q-46 4 -79 16.5t-28 38.5q4 15 21 61.5t44 109.5l-48 -44q-42 -36 -93 -67t-106 -55t-111 -38t-107 -14q-77 0 -101 56q-16 39 -17 91q0 23 3 49z" />
<glyph unicode="v" horiz-adv-x="921" d="M24 202q10 84 43.5 184.5t68.5 189.5q34 88 60 152q22 55 23 70q0 2 -1 4q-8 17 -26.5 27.5t-36 21t-27 23t6.5 32.5q4 8 43.5 19.5t93.5 21t110 13.5q22 2 41 2q29 0 51 -4q9 -2 -5 -38t-41.5 -95t-64.5 -133t-72 -151.5t-65.5 -150.5t-44.5 -131q-10 -40 -10 -68 q1 -13 3 -25q6 -35 42 -35q157 0 305 188q70 87 119.5 157t83 125t52.5 100.5t28 85.5q4 17 -12 31t-36 27.5t-32.5 28.5t-1.5 34q6 8 48 20t92 18q34 4 66 4q16 0 30 -1q46 -3 58 -22q1 -2 1 -5q-1 -12 -9 -42q-12 -40 -37 -102.5t-63.5 -141t-89 -159.5t-112 -158.5 t-131.5 -138.5q-42 -36 -96 -67t-113 -55t-117.5 -38t-110.5 -14q-78 0 -102 56q-16 39 -16 91q1 23 4 49z" />
<glyph unicode="w" horiz-adv-x="1517" d="M46 202q10 84 43.5 184.5t68.5 189t61 152.5q23 55 23 70q0 2 -1 4q-8 17 -27 27.5t-36 21t-26.5 23t5.5 32.5q4 8 44 19.5t94 21t110 13.5q22 2 41 2q29 0 51 -4q9 -2 -2 -38t-35 -93t-56 -129t-61.5 -148t-54 -147t-34.5 -128q-6 -32 -6 -56q0 -20 4 -35q8 -34 44 -34 q49 0 112.5 38t135.5 131q101 127 155 227.5t80.5 176t35 128t19.5 82.5q6 13 32.5 18t60.5 1t65.5 -14.5t46.5 -29.5q1 -1 1 -2q0 -10 -20 -62q-23 -60 -66 -148q-19 -49 -43.5 -109t-46.5 -120.5t-38 -117.5t-19 -101q-1 -9 -1 -18q0 -32 10 -54q12 -26 47 -26 q59 0 117.5 38t130.5 131q70 87 119.5 157t82.5 125t52 100.5t29 85.5q4 17 -12.5 31t-36 27.5t-32 28.5t-1.5 34q6 8 48 20t92 18q35 4 66 4q16 0 30 -1q46 -3 58 -22q1 -1 1 -5q1 -10 -9 -38q-12 -38 -38 -99t-64 -136.5t-87 -156.5t-107 -162.5t-124 -149.5 q-49 -51 -89 -85t-85.5 -56t-101.5 -30.5t-136 -8.5q-47 0 -74.5 20t-39.5 55q-9 28 -9 63q0 10 1 20q3 48 14 100q-19 -21 -39 -41t-41 -37q-42 -36 -93 -67t-106 -55t-111 -38t-107 -14q-77 0 -101 56q-16 39 -17 91q0 23 3 49z" />
<glyph unicode="x" horiz-adv-x="876" d="M-201 16q-8 6 -8.5 15t8.5 20q8 11 22 20t31 14.5t35 8.5t31 3q57 0 117 32t117 80.5t107 101.5t90 97q0 87 -11.5 182t-58.5 176q-15 -2 -30.5 -4t-27.5 -1t-20.5 8.5t-10.5 23.5q-1 7 -1 14q1 30 21 60q26 36 66.5 60.5t87.5 32.5q19 3 36 4q27 0 51 -8 q28 -11 43.5 -55t22 -100t9.5 -113.5t7 -95.5q63 66 120.5 130.5t106.5 125.5q9 13 3 24.5t-16.5 22.5t-20 22.5t-4.5 26.5q4 15 28 24q24 10 57 12q14 1 28 1q19 -1 39 -3q34 -4 60 -13t36 -25q3 -5 3 -11q0 -12 -13 -26q-80 -97 -188 -215.5t-224 -234.5q2 -36 3 -79.5 t4 -87t7.5 -86.5t15.5 -77l36 6q36 9 48.5 -6t4.5 -32q-9 -21 -39.5 -42t-67.5 -35t-73 -16t-53 15q0 2 -2.5 8.5t-9.5 32.5t-20 78t-36 147q-30 -28 -82.5 -76t-113 -93.5t-122 -80.5t-111.5 -37q-6 0 -35 1t-57.5 6t-45.5 17z" />
<glyph unicode="y" horiz-adv-x="874" d="M-90 -538q-3 4 -3 10q0 7 7 16q14 15 63 30q34 11 84.5 43.5t104.5 81t105 110t87 131.5q30 59 60 123.5t60 130.5q-36 -32 -66.5 -56.5t-62.5 -41.5t-69 -25.5t-83 -8.5q-78 0 -106 54q-24 47 -24 113q0 11 1 23q4 81 29.5 178.5t55 183t50.5 146.5q18 52 18 68 q0 3 -1 5q-8 17 -26 30.5t-34 26t-24.5 27.5t6.5 36q4 8 43 21t88 20q28 5 56 5q20 0 41 -3q47 -5 68 -35q4 -6 -8.5 -43t-34 -93t-49 -124.5t-53.5 -139.5t-45.5 -138t-25.5 -119q-2 -18 -2 -34q0 -30 8 -51q11 -32 47 -32q57 0 128 43.5t137 106.5q44 102 81 197t61.5 166 t35 111t3.5 34q-8 19 -34.5 27.5t-50 17t-35 22.5t9.5 47q11 15 55.5 26.5t96 11.5t96 -13.5t55.5 -43.5q2 -5 2 -14q0 -20 -10 -57q-13 -54 -40.5 -133t-67 -177.5t-86 -205.5t-98 -218t-100.5 -214q-30 -61 -91 -135.5t-135 -140t-152.5 -110t-143.5 -44.5 q-25 0 -48.5 7.5t-33.5 19.5z" />
<glyph unicode="z" horiz-adv-x="925" d="M-112 38q4 30 20 49t39 31.5t46.5 23t44.5 25.5q64 53 150.5 127t179.5 158.5t184 173.5t165 174h-29h-74t-111.5 -2.5t-109 -10.5t-65.5 -23q-15 -19 -30 -45.5t-30.5 -47.5t-32.5 -29.5t-34 8.5q-21 21 -24 49.5t6 60t24 63.5t30 61q21 38 121 55q40 6 91.5 9.5 t115.5 3.5q63 0 124.5 -3t115.5 -6.5t96.5 -7.5t65.5 -6q11 4 23.5 -1t33.5 -41l-789 -750q22 2 51 2q22 0 47 -1q61 -3 121 -6q30 -2 58 -2t55 2q53 3 80 18q15 9 19.5 27t10.5 33q11 27 24.5 50t39.5 23q6 0 18 -4q9 -4 13 -15t4 -29q0 -21 -6 -53q-10 -59 -48 -131 q-11 -21 -72.5 -33t-149 -18t-186 -6t-185.5 3t-149 6t-73 5q-5 2 -13 6q-7 4 -6 17v7z" />
<glyph unicode="{" horiz-adv-x="788" d="M1.5 -253q-9.5 33 2 76.5t31.5 92t44.5 98t41.5 96.5q30 83 38 141t2 97t-20 64.5t-27 43.5t-20 34t1 37t27.5 36t47 34t61.5 46.5t71 73t76 114t75 168.5q19 53 56 108t82.5 100t96 73t97.5 28q13 0 36 -3.5t43 -12t30 -23t-1 -33.5q-11 -21 -18.5 -27.5t-19 -5.5 t-30.5 5t-53 4t-57 -15.5t-42 -46.5t-39 -81.5t-44 -118.5q-32 -89 -83.5 -150.5t-103.5 -107t-95 -82.5t-56 -75q-9 -27 -4.5 -45t15 -39t21 -46.5t13.5 -66t-6.5 -98.5t-40.5 -143q-11 -28 -34.5 -83.5t-40 -111.5t-15.5 -96.5t39 -40.5q25 0 45.5 3.5t37 5.5t25 1 t8.5 -10t-3 -24.5t-18 -29.5t-48.5 -24.5t-93.5 -10.5q-72 0 -106.5 19t-44 52z" />
<glyph unicode="|" horiz-adv-x="644" d="M13 -309q9 64 40.5 173t73.5 242t90 277t94.5 280.5t85.5 252.5t62 190q17 57 30.5 92.5t23.5 57.5t17 30.5t12 12.5q10 6 16 4q36 -4 60.5 -27t30.5 -51q9 -42 -12 -55q-2 -2 -7 -6q-4 -4 -16.5 -31t-42.5 -115q-23 -72 -62 -181t-83.5 -234t-93 -258t-92 -255 t-77.5 -223.5t-53 -162.5q-6 -28 -21 -38q-9 -9 -26 -13t-29 6q-9 6 -16 14t-5 18z" />
<glyph unicode="}" horiz-adv-x="703" d="M-203 -245q11 21 20 30.5t20 12.5t30 2t53 -1q66 0 123.5 84.5t106.5 222.5q32 87 83 151.5t103.5 114t95 89.5t55.5 78q9 27 6.5 45.5t-11 38.5t-17 46.5t-8.5 67t10.5 98.5t42.5 143q9 28 28.5 71t30.5 82t5.5 67.5t-43.5 28.5q-49 0 -82.5 -8.5t-33.5 8.5q0 9 -1 24.5 t11.5 29.5t43 24.5t90.5 10.5q72 0 109 -13.5t49.5 -37t5 -55.5t-25.5 -71t-40 -83.5t-39 -90.5q-38 -101 -48.5 -165t-3.5 -104t23 -60t31 -33t24.5 -24.5t2.5 -32.5q-8 -21 -28 -36t-47.5 -34t-61.5 -45.5t-71 -72t-76 -114t-75 -168.5q-21 -55 -61.5 -122.5t-92 -128 t-106.5 -101.5t-102 -41q-13 0 -38.5 4t-49.5 12.5t-38 21.5t-3 34z" />
<glyph unicode="~" horiz-adv-x="1171" d="M29.5 382q10.5 20 40 50.5t72 64.5t88 63.5t89 49.5t74.5 20q78 0 126 -28.5t83 -62t65.5 -62t75.5 -28.5q30 0 74 18t89.5 42t89 50.5t75 44.5t47.5 21t7 -18q-19 -40 -67.5 -91t-111 -95t-134 -74t-133.5 -30q-78 0 -126.5 29t-86 65.5t-74.5 65.5t-89 29 q-15 0 -52 -23.5t-79.5 -51t-80.5 -50.5t-53 -21q-19 2 -8.5 22z" />
<glyph unicode="&#xa1;" horiz-adv-x="627" d="M2 -161q36 102 75 211t73 222t62.5 227.5t47.5 226.5q-11 4 -30.5 4t-38 1t-35 5.5t-23.5 20.5q-9 21 6.5 40.5t42.5 37.5t55 31.5t44 19.5q57 27 117.5 46.5t126.5 15.5q28 -6 27.5 -60t-23.5 -139t-61 -192.5t-81 -217.5q-104 -260 -256 -586q-11 -23 -38 -25.5 t-51.5 10t-38.5 39t-1 62.5zM366 1147q6 27 20 60t35 58.5t47.5 39t58.5 2.5q36 -13 47.5 -38t8.5 -51.5t-15 -50.5t-20 -35q-19 -27 -42.5 -52.5t-40.5 -30.5q-44 -11 -76 17t-23 81z" />
<glyph unicode="&#xa2;" horiz-adv-x="804" d="M-8 265q8 121 54.5 228.5t119.5 195t164 148t188 86.5q25 72 43.5 117t33 71.5t25 38t15.5 16.5q15 8 21 6q49 -4 67 -39t28 -73q13 -53 -15 -70q-6 -6 -14 -8q-4 -4 -9.5 -12.5t-14.5 -28.5q68 -6 100.5 -30.5t41 -57t-2 -67.5t-28.5 -63.5t-39 -45.5t-32 -13 q-27 8 -32.5 32.5t-8.5 52t-11.5 50t-36.5 22.5l-8 -23q-27 -72 -59 -166.5t-72 -214.5l-72 -216q21 15 43.5 30.5t43.5 35.5q63 55 109.5 95t80.5 40q19 0 19 -23.5t-21 -60.5t-60.5 -82.5t-98.5 -89.5q-85 -63 -165 -97q-30 -91 -50 -153.5t-24 -77.5q-8 -34 -31 -49 q-15 -9 -20.5 -8.5t-20.5 11.5q-13 8 -23 18.5t-6 23.5q0 4 13.5 57t34.5 138q-34 -6 -68.5 -7.5t-68.5 -1.5q-44 2 -70.5 29.5t-40.5 68t-18.5 86t-3.5 81.5zM182 219.5q0 -45.5 19 -64.5q13 -15 37 -17.5t56 2.5q19 74 41 156.5t46 169.5l82 285q-34 -28 -62.5 -62.5 t-53.5 -68.5q-55 -78 -91 -153.5t-55 -138.5t-19 -108.5z" />
<glyph unicode="&#xa3;" horiz-adv-x="1156" d="M28 36q0 11 8 16t18 9.5t19.5 9.5t13.5 14q6 13 19 53t31 97t40 126t47 140q-49 9 -92 27t-79 50q-8 6 -14.5 23t-5.5 33t13.5 25.5t40.5 -1.5q46 -17 90.5 -22t93.5 -1q38 102 72 171q76 157 167 274.5t185 196.5t188 118t175 39q46 0 95 -4t94.5 -19t80.5 -44.5 t51 -80.5q23 -64 -67 -173q-9 -13 -24.5 -30t-32.5 -30.5t-32 -21t-25 0.5q-13 13 -11 35.5t8.5 48.5t12.5 49.5t4 36.5q-9 40 -32 68.5t-53.5 42.5t-64.5 15t-65 -12q-95 -40 -161 -85.5t-122 -111t-107 -159t-116 -226.5l-38 -80q51 4 109 8t126 0q30 -2 53 -22 t36.5 -44.5t13.5 -44.5t-15 -22q-110 -15 -207 -25.5t-182 -12.5q-11 -32 -20.5 -65t-21 -74t-27 -93t-37.5 -122h281.5h148.5t65.5 -1t33.5 -1q19 0 34 16t30 35t30.5 35t32.5 16q32 0 35 -35t-12.5 -77t-43 -79t-55.5 -38q-57 -6 -133 -5t-157.5 4.5t-159 10.5t-140.5 12 q4 -8 4 -15q-4 -23 -43 -29.5t-84.5 -0.5t-82.5 20t-37 31z" />
<glyph unicode="&#xa4;" horiz-adv-x="1202" d="M-28 269q0 15 20 23q44 17 65 28.5t41 25.5t51 38t94 67q4 2 6.5 3t6.5 3q-6 38 -4 76q9 127 56 237t121 199q-6 30 -18.5 48t-30.5 35.5t-39.5 41t-46.5 68.5q-8 13 6.5 39t36 49.5t41.5 39t26 9.5q66 -72 105 -116.5t43 -97.5q78 57 164 89t173 32q23 0 54.5 -4 t60.5 -13.5t56 -24.5t42 -38q13 -27 5 -51q0 -2 -1 -4q19 15 27.5 24t18.5 17.5t25.5 19t47.5 30.5q19 13 41.5 8.5t41.5 -17.5t29 -27t2 -22q-55 -47 -91 -80.5t-66.5 -56.5t-59 -39t-66.5 -31q6 -55 -8.5 -115.5t-42.5 -121.5t-69 -118.5t-88 -107.5q40 -44 74 -81.5 t55.5 -74.5t28.5 -75t-5 -82q-2 -6 -19 -22.5t-38 -31t-38 -19t-19 12.5q-4 38 -20 63.5t-38.5 51t-49 57t-53.5 78.5q-6 9 0 23q-51 -32 -104 -51t-104 -19q-138 0 -213 81q-57 -51 -93 -78.5t-64.5 -41t-56.5 -17t-70 -5.5q-6 0 -18 10.5t-21.5 25.5t-9.5 30zM426.5 446.5 q3.5 -46.5 15.5 -71.5q11 -17 42.5 -9t67.5 26t67.5 40t42.5 33q40 38 86.5 103t86 138t64 146t23.5 128q-2 21 7.5 37t30.5 16h1q4 0 22 -4.5t37 -25.5q15 9 29.5 20.5t29.5 23.5h-8q-9 0 -18.5 3.5t-22.5 7.5q-25 8 -60 17.5t-86 9.5q-49 0 -96.5 -24t-90.5 -61t-78 -79.5 t-61 -80.5q-55 -78 -83.5 -152t-40 -134.5t-8 -107z" />
<glyph unicode="&#xa5;" horiz-adv-x="1052" d="M-97 32q-2 30 78 46l45.5 45.5t51.5 54.5q-82 15 -118 46q-4 4 -7.5 20t-3.5 33t7.5 28.5t24.5 5.5q32 -11 84.5 -15t116.5 -4l120 135q-78 6 -138 19t-88 39q-4 4 -8 20t-4 33.5t8 29t25 5.5q44 -17 131 -18t183 3q49 59 91 111t74 95q-27 66 -48.5 144t-39.5 157.5 t-32 153.5t-26 135q-8 40 -13.5 74t-8.5 44q-15 9 -41 16.5t-33 28.5q-8 25 11 45t49.5 35t62.5 23.5t49 8.5q30 0 47.5 -8.5t27 -24.5t13 -40t9.5 -54q27 -146 42 -294t41 -309q87 108 161.5 200t127.5 162t84 115.5t37 58.5q4 9 -1 13.5t-12.5 8t-16 7.5t-10.5 13 q-9 25 11.5 43t52 29.5t64.5 17t49 5.5q82 0 82.5 -38t-43.5 -104q-114 -176 -255 -342t-296 -347q9 -34 20.5 -73.5t-15.5 -77.5q-11 -13 -23.5 -10.5t-24.5 14t-23.5 25.5t-17.5 24l-68 -80q30 2 56.5 1t51.5 -1q19 0 33 -19t22 -40.5t8 -40.5t-10 -19q-59 -8 -130 -12.5 t-145 -6.5l-100 -127q55 4 109 4.5t97 -0.5q19 0 33.5 -19t22 -41t7.5 -41t-10 -19q-76 -9 -172.5 -16t-191.5 -3q-53 -70 -84 -111t-35 -44q-8 -8 -34 -8h-39t-65.5 3t-62 9.5t-27.5 19.5z" />
<glyph unicode="&#xa6;" horiz-adv-x="614" d="M-19 -267q4 23 14.5 74t26.5 114.5t36 136.5t42.5 140t46.5 123t48 90q6 8 15 4q36 -4 55 -18t14 -42q-11 -51 -40 -135.5t-60 -174t-59.5 -171t-41.5 -128.5q-6 -28 -21 -38q-9 -9 -26.5 -13t-28.5 5q-9 6 -16 14.5t-5 18.5zM252 620q4 23 14.5 74t26.5 114.5t36 136.5 t42.5 140.5t46.5 123.5t48 90q7 8 16 4q36 -4 60.5 -27t30.5 -51q9 -42 -12 -55q-2 -4 -3.5 -3t-3.5 -3q-68 -125 -112 -256.5t-93 -274.5q-6 -28 -21 -38q-9 -9 -26.5 -13t-28.5 6q-9 6 -16 14.5t-5 17.5z" />
<glyph unicode="&#xa7;" horiz-adv-x="946" d="M-172.5 -38q7.5 32 31 59.5t56 45.5t58.5 18q25 0 35.5 -8.5t14.5 -17.5q8 -19 2 -33.5t-15.5 -27.5t-19 -25.5t-9.5 -25.5q6 -8 20 -12.5t31 -7.5t34 -4t31 -1q34 0 75.5 12.5t78.5 34.5t64.5 54t35.5 72q11 61 -24 110t-84 97q-27 17 -50.5 42.5t-46.5 53.5l-2 4 q-2 0 -2 2q-32 40 -46 85.5t6 100.5q17 42 51.5 77t78 62.5t94.5 47t101 31.5q-49 49 -78 104t-2 127q21 53 70 96t111 73t128 47t121 17q2 0 32.5 -0.5t67.5 -8.5t72 -24t48 -44q9 -25 -4 -55.5t-38.5 -58t-55.5 -46.5t-53 -19q-19 0 -27.5 9.5t-10.5 24t2 29.5t9 28 q4 17 -4.5 26.5t-21 14.5t-27.5 6t-26 1q-46 0 -86 -12.5t-70 -34t-48 -50t-18 -59.5q0 -25 19 -50.5t49 -52t65 -55.5t66.5 -62.5t53 -69.5t25.5 -78q4 -68 -19.5 -121t-65.5 -94t-97 -69t-115 -45q21 -27 36 -57.5t19 -62.5q6 -91 -37 -156.5t-112 -109t-153.5 -66.5 t-162.5 -28q-30 0 -65 2.5t-68.5 12t-63 25t-49.5 41.5q-23 27 -15.5 59zM273 550q0 -38 44.5 -79t97.5 -88q61 19 114 60t66 101q9 46 -9.5 84t-50.5 74q-13 4 -22.5 3.5t-15.5 -0.5q-46 0 -86.5 -12t-71 -34t-48.5 -50.5t-18 -58.5z" />
<glyph unicode="&#xa8;" horiz-adv-x="642" d="M144 1087q-2 40 14.5 71t65.5 25q25 -4 38 -17t17 -34q2 -13 1 -29t-8.5 -31.5t-20 -26t-29.5 -10.5q-21 0 -48.5 12.5t-29.5 39.5zM359.5 1122.5q2.5 22.5 23.5 43.5q17 23 61 17q23 -4 37 -17t18 -34q2 -11 0 -28t-9.5 -32.5t-19 -26t-28.5 -10.5q-25 0 -45 12.5 t-30 32.5t-7.5 42.5z" />
<glyph unicode="&#xa9;" horiz-adv-x="1113" d="M148 775q11 92 38 156q27 68 67.5 123t89 99.5t100.5 79t97 58.5q51 28 106.5 50t108.5 37.5t103 24t92 8.5q51 0 78.5 -20t32.5 -43.5t-12 -46.5t-55 -29l-69 10q-25 0 -74 -10.5t-107 -34t-117.5 -60.5t-105.5 -90q68 53 134.5 67t139.5 14h3q78 -2 115 -20t43 -27 q9 -13 3.5 -32t-11.5 -31q-21 -40 -53 -40l-34 15q-28 17 -63.5 24t-69.5 1t-65.5 -24t-49.5 -50q-15 -23 -37 -72t-31.5 -98.5t4.5 -87.5t75 -38q72 0 129 71q8 9 23 19.5t32 17t34 5.5t27 -16q9 -17 -4 -40q2 0 -4 -5q-51 -85 -128 -121.5t-181 -36.5q-44 0 -87.5 11.5 t-68.5 56.5q-23 36 -23.5 86.5t10.5 101.5t31 98.5t41 79.5q-46 -64 -76 -152t-38.5 -169t9.5 -136.5t67 -55.5q108 0 190.5 29t142.5 77.5t100.5 110t68 127t44.5 130t31 115.5q6 25 12.5 49.5t17.5 43.5t30 30.5t52 11.5h3q55 -6 73 -55t9.5 -118.5t-37 -147t-66.5 -140.5 q-59 -95 -139 -165t-176 -116.5t-205 -69t-223 -22.5q-89 0 -134.5 59.5t-59.5 145t-3 177.5z" />
<glyph unicode="&#xaa;" horiz-adv-x="895" d="M145 784q-7 48 7.5 106t35.5 111t55 106.5t81.5 96t106 68t130.5 25.5q17 0 49.5 -4t66.5 -12.5t62.5 -20.5t37.5 -31q9 -15 2 -33t-28 -18q-27 0 -51.5 10t-56.5 10q-55 0 -104.5 -35t-88.5 -86t-67 -111t-42 -109q-17 -59 -15 -82.5t6 -27.5q19 0 64.5 42.5 t121.5 145.5q66 89 90.5 139.5t41.5 82.5q8 8 23 11.5t29.5 1.5t26 -9.5t12.5 -22.5q0 -4 1 -8t0 -15t-3.5 -33t-10.5 -62q-15 -74 -32 -148t-34 -151l38 -17q38 -17 39 -34.5t-21 -29.5t-58 -19.5t-74 -7.5q-34 0 -50 14t-22 33t-4 40t4 36q-49 -30 -104 -46.5t-116 -16.5 h-2q-74 0 -107 31.5t-40 79.5z" />
<glyph unicode="&#xab;" horiz-adv-x="1024" d="M126.5 461q-8.5 42 0.5 64q9 27 52 69.5t104.5 89t132.5 93t136.5 84.5t118.5 61.5t76 23.5h4q23 0 32 -19q11 -27 -1 -42t-33 -30q-46 -34 -107.5 -69t-127.5 -76t-130.5 -90t-116.5 -112q4 -27 36.5 -87.5t73 -127.5t80.5 -125t59 -81q17 -21 2.5 -40t-41 -33 t-55 -22.5t-37.5 -8.5h-13.5t-13.5 2q-4 2 -10.5 7.5t-19.5 26.5q-9 19 -31 58t-47.5 87t-51 102t-44.5 103.5t-27.5 91.5zM453 527q0 2 3 6t11.5 14.5t25 28.5t44.5 48q15 21 54 53t87 68t102 71t99.5 64.5t78 47.5t38.5 18q27 0 46.5 -5.5t25.5 -28.5q8 -25 -2 -50.5 t-31 -36.5q-40 -23 -101.5 -58t-126 -76t-120.5 -82.5t-84 -75.5q-8 -15 4.5 -47.5t36 -73t52 -86t55 -86.5t45 -73t19.5 -46q4 -17 4 -37.5t-6.5 -38t-21 -29.5t-36.5 -12q-4 0 -13.5 -2t-23 0t-27.5 10.5t-29 29.5q-21 28 -60 92.5t-75 138.5t-59.5 144t-14.5 110z" />
<glyph unicode="&#xac;" horiz-adv-x="1232" d="M206 898q1 18 14 34.5t47 25.5q23 8 100 9.5t180 0.5t220 -4.5t215.5 -8.5t166.5 -11.5t78 -14.5q9 -8 -3 -43t-35 -83t-53 -104t-59.5 -104.5t-51.5 -83.5t-29 -43q-11 -11 -35 -6.5t-49.5 18t-49.5 29.5t-35 31q-8 9 3.5 30.5t31.5 47t44.5 54t46.5 53t36 42.5t12 26 q-4 9 -49.5 12t-104 2t-113.5 -4t-76 -3q-13 0 -49 -1t-81.5 -2t-96 0t-93 4t-73 8.5t-36.5 17.5q-9 17 -16.5 35t-6.5 36z" />
<glyph unicode="&#xad;" horiz-adv-x="821" d="M104 601q0 21 8 35.5t25 8.5q40 -15 89 -15t107 4.5t120.5 9.5t126.5 3q19 0 33.5 -22t22 -47.5t7.5 -47.5t-10 -22q-76 -9 -152.5 -16.5t-146.5 -7t-127 12t-91 42.5q-4 4 -8 22.5t-4 39.5z" />
<glyph unicode="&#xae;" horiz-adv-x="1139" d="M144 721.5q4 59.5 15.5 114.5t28.5 95q40 101 123 188t189.5 152.5t225 102.5t226.5 37q25 0 55 -5t45 -27l2 -65q-8 -21 -30.5 -30.5t-96.5 -1.5q-49 0 -119 -24.5t-148 -72.5h-2h17h10q9 -4 13 -9q6 -9 4 -25q23 11 47.5 19.5t48.5 8.5q95 0 137 -62.5t7 -158.5 q-21 -57 -65.5 -96t-104.5 -60q17 -104 30 -146q57 63 87.5 124.5t50.5 125t35.5 131t42.5 141.5q15 40 39 48t47.5 -2t45.5 -33t33 -44q9 -19 10.5 -58.5t-10 -91t-34.5 -112t-59 -119.5q-59 -95 -139.5 -165t-176 -116.5t-204.5 -69t-223 -22.5q-63 0 -104.5 29 t-64.5 75.5t-30.5 105.5t-3.5 118.5zM339.5 621q3.5 -52 22.5 -85t57 -33q102 0 181 27.5t140 70.5q-32 -6 -59 -6q-9 0 -18 1t-13 9q-9 30 -12 64.5t-10 66.5q-11 -6 -34 1.5t-27 22.5q-27 -61 -45 -103.5t-19 -45.5l-133 36q44 102 76 209t62 217q-40 -32 -72 -88 t-55 -119.5t-34 -128t-7.5 -116.5zM590 821q83 17 121.5 48t65.5 92q34 87 2 98.5t-112 -24.5q-15 -46 -34.5 -102.5t-42.5 -111.5z" />
<glyph unicode="&#xaf;" horiz-adv-x="927" d="M142 1159.5q0 10.5 7.5 16.5t28.5 -2q42 -15 105.5 -23t136.5 -12.5t150 -6.5t147 -4q19 0 34 -14t23.5 -30t8.5 -29.5t-9 -15.5q-82 -9 -175 -9t-179 9.5t-157 30t-109 53.5q-4 4 -8 15t-4 21.5z" />
<glyph unicode="&#xb0;" horiz-adv-x="1024" d="M250.5 952q3.5 49 11.5 89q21 99 109 170t230 77q142 8 186 -59.5t6 -215.5q-21 -74 -48.5 -122.5t-70.5 -77t-100.5 -41t-137.5 -13.5q-80 0 -119.5 28t-54.5 72t-11.5 93zM381 1011q-9 -47 19.5 -91t84.5 -46q30 0 61.5 13.5t57.5 34t44 45.5t23 48q6 23 10.5 47.5 t-2 45t-29.5 36t-72 15.5t-85 -14.5t-59 -36t-36 -48.5t-17 -49z" />
<glyph unicode="&#xb1;" horiz-adv-x="1044" d="M-16 80q3 17 9.5 34t18 27.5t26.5 4.5q23 -9 69.5 -13t108 -5t131.5 2t137.5 5t128 2.5t104.5 -0.5q19 0 25.5 -19t6.5 -41t-6.5 -40t-16.5 -18q-53 -6 -124 -11.5t-148 -7.5t-153.5 -1t-141 7.5t-112 19t-62.5 33.5q-4 4 -1 21zM259 582q3 17 9.5 34t18 28t26.5 5 q30 -13 106 -17t171 -1q27 80 49.5 152t43.5 123q8 17 30.5 31.5t47 22t43.5 8.5t17 -8q-15 -61 -39.5 -146.5t-57.5 -178.5q80 2 149 4t119 0q19 0 25.5 -19t6.5 -40.5t-6.5 -40t-16.5 -18.5q-61 -9 -147 -13.5t-177 -6.5q-38 -104 -80.5 -186t-80.5 -114q-6 -4 -23 -7.5 t-34 -3.5t-26.5 7.5t3.5 24.5q27 36 55.5 112t58.5 169q-106 4 -186.5 17t-103.5 41q-4 4 -1 21z" />
<glyph unicode="&#xb2;" horiz-adv-x="864" d="M127 961q4 34 28.5 69.5t61.5 71.5t80.5 71t85.5 69q53 42 96.5 79t60.5 61q28 46 33 62t5 20q-4 4 -8.5 6.5t-30.5 2.5q-27 0 -43 -6.5t-24.5 -15t-12.5 -17t-6 -14.5v-5q-4 -13 -22 -27.5t-29 -18.5h-6q-15 0 -39.5 8.5t-24.5 35.5q0 13 21.5 53t54.5 72q78 74 150 74 q70 0 105 -21t48 -47q23 -34 19 -83.5t-34 -108.5q-27 -53 -75 -86.5t-103 -65.5q-53 -32 -104.5 -66t-81.5 -91q38 2 76 10.5t76 8.5q11 0 16.5 -16t6.5 -36t-3.5 -39t-12.5 -27q-13 -6 -71 -12.5t-123.5 -7.5t-117.5 7t-52 30zM489 1030h2h-2z" />
<glyph unicode="&#xb3;" horiz-adv-x="895" d="M168 1001q6 25 19.5 47.5t30.5 35t27 3.5q15 -6 44.5 -18.5t70.5 -12.5q99 0 144 118q9 21 9.5 39t-3.5 29q-9 15 -36.5 21t-50.5 9q-21 8 -38 11t-27 14q-6 9 -3 29q4 15 27.5 32t74.5 53q19 15 40 30t38 29q15 9 22.5 16.5t11.5 13.5q-4 2 -11.5 2t-23.5 2t-42.5 5.5 t-68.5 13.5q-9 2 -10.5 14t1.5 28.5t10.5 31.5t17.5 24q4 4 16 7t65 3q55 0 117 -3.5t113 -11.5q17 0 22.5 -9.5t7.5 -13.5q2 -8 -1 -19t-16 -29t-41.5 -46.5t-75.5 -68.5q-28 -21 -58 -42t-51 -36q32 -6 59 -21t44 -37.5t20.5 -52t-7.5 -62.5q-23 -66 -59 -111.5t-84 -75 t-108 -43.5t-126 -20q-46 0 -71.5 6.5t-34.5 27.5q-11 13 -5 38z" />
<glyph unicode="&#xb4;" horiz-adv-x="618" d="M144 1070q6 20 26 46.5t48.5 54t56 52.5t49 43t29.5 23q9 8 28 10t39 -3t35 -15t19 -28q6 -38 -32 -80.5t-92 -76.5t-109.5 -51t-83.5 -4q-19 9 -13 29z" />
<glyph unicode="&#xb5;" horiz-adv-x="1024" d="M-262 -514q13 51 43.5 147t73.5 218t94 259t102 267q23 74 51.5 146t52 131t39 99t11.5 49q-8 17 -27 27.5t-36 21t-26.5 23t5.5 32.5q4 8 40 16.5t84.5 16t100.5 9.5t88 -6q9 -2 -4 -37.5t-38.5 -92.5t-59.5 -130t-67.5 -149t-61 -148t-39.5 -129t-4.5 -91t43.5 -34 q157 0 305 188q101 127 155 225.5t80.5 172.5t35 123t19.5 80q6 13 34.5 18.5t62.5 3t65.5 -14t42.5 -32.5q-15 -25 -32 -62.5t-40 -87.5q-25 -57 -55 -126t-59.5 -140t-55 -138.5t-41.5 -121.5t-18 -88t15 -38q36 -9 55 -22.5t24.5 -27t1 -24.5t-16.5 -13q-17 -4 -60.5 -8 t-89 0t-78.5 16.5t-28 38.5q4 15 21 61.5t44 109.5l-48 -44q-42 -36 -93 -67t-106 -55t-111 -38t-107 -14q-30 0 -55 9q-40 -114 -74 -218t-59.5 -183t-40.5 -123.5t-14 -38.5q-6 -21 -31 -28.5t-52 -2t-46.5 22t-14.5 42.5z" />
<glyph unicode="&#xb6;" horiz-adv-x="1266" d="M128 773q-1 69 23.5 140t73 137.5t115 118.5t147 83.5t171.5 31.5l810 4q6 0 12.5 -19t7.5 -40t-5 -36t-23 -10q-46 15 -112 15q0 -21 -13 -28q-2 -2 -8 -6q-4 -4 -16 -31t-42 -115q-25 -72 -63 -181t-82.5 -234t-93 -258t-92 -255t-77.5 -223.5t-53 -162.5 q-6 -28 -21 -38q-9 -9 -26.5 -13t-28.5 6q-9 6 -16 14t-5 18q9 64 40.5 173t73.5 242t90 277t94.5 280.5t85.5 252.5t62 190l26 83q-44 -4 -88 -6l-88 -4q-4 -6 -10 -9q-2 -2 -7 -6q-4 -4 -16.5 -31t-42.5 -115q-23 -72 -61.5 -181t-83.5 -234t-93 -258t-91.5 -255 t-78 -223.5t-53.5 -162.5q-6 -28 -21 -38q-9 -9 -26 -13t-29 6q-9 6 -15.5 14t-4.5 18q8 53 30.5 139.5t55.5 191.5t72 222.5t79 237.5q-44 -17 -103 -20t-121.5 14t-121 58.5t-102.5 114.5q-34 55 -35 124z" />
<glyph unicode="&#xb7;" horiz-adv-x="659" d="M228 628q0 21 2.5 46.5t12 48t27.5 38t50 15.5q30 0 52 -12.5t35.5 -32.5t19 -43.5t5.5 -46.5t-3.5 -46.5t-15 -43.5t-33.5 -33.5t-56 -13.5t-54 11.5t-29.5 29.5t-11 40t-1.5 43z" />
<glyph unicode="&#xb8;" horiz-adv-x="597" d="M57 -317q2 11 12.5 23.5t24.5 22t29 15.5t27 6h7q36 0 75 9.5t54 47.5q4 9 5 14t1 8h-13q-11 2 -25.5 3t-31.5 9q-23 9 -29 30q-8 30 27 89q11 21 21.5 34.5t10.5 14.5l4 4l112 42l-21 -40q-15 -27 -24.5 -52.5t-9.5 -36.5q99 -3 129 -47q23 -36 4 -84q-15 -42 -47.5 -70 t-74 -46t-88 -26t-92.5 -8q-17 0 -32 1t-25 3q-23 6 -26.5 18.5t-3.5 15.5z" />
<glyph unicode="&#xb9;" horiz-adv-x="675" d="M157 978q4 8 20 51.5t38 104.5t46.5 131t45.5 131.5t36 106t17 54.5q-2 0 -6.5 2t-6.5 2q-8 2 -21 6.5t-9 23.5q0 8 7.5 13.5t29 9.5t61.5 6.5t105 2.5q11 -3 17 -11q2 -9 -2 -33t-29 -98q-51 -127 -109.5 -252t-91.5 -262q-2 -15 -22.5 -21.5t-45.5 -7.5t-47.5 5.5 t-30.5 17.5q-2 4 -2 17z" />
<glyph unicode="&#xba;" horiz-adv-x="883" d="M142 879q4 56 13 101q11 55 43.5 104.5t82 87.5t115.5 61.5t146 27.5q163 8 211.5 -69t5.5 -244q-23 -83 -54.5 -138t-80 -88.5t-113.5 -47.5t-156 -16q-89 0 -135.5 33t-64 82.5t-13.5 105.5zM299.5 892q5.5 -25 20 -46t38 -34.5t55.5 -15.5q34 0 67.5 15.5t62 37 t47.5 48t24 49.5q6 25 11.5 52.5t-2 50t-32 39t-77.5 16.5q-55 0 -93 -15.5t-63.5 -39t-40 -52t-17.5 -53.5q-6 -27 -0.5 -52z" />
<glyph unicode="&#xbb;" horiz-adv-x="912" d="M-9 34q-8 25 1.5 50.5t30.5 36.5q40 23 101.5 58t126 76t120.5 82.5t84 75.5q8 15 -4.5 47.5t-36 73.5t-52 86.5t-55 86t-44.5 72t-20 46.5q-4 17 -4 38t6.5 38t21 29t36.5 12q4 0 13.5 2t23 0t27.5 -10.5t29 -28.5q21 -28 60 -93t75 -139t59.5 -144t14.5 -110 q0 -2 -3 -5.5t-11.5 -14t-25 -29t-44.5 -48.5q-15 -21 -53.5 -53t-87 -68t-102.5 -71t-99.5 -64.5t-78 -47.5t-37.5 -18q-27 0 -47 5.5t-25 28.5zM275 19q-11 27 1 42t33 30q46 34 107.5 69t128 76t131 90t115.5 112q-4 27 -36.5 87.5t-73 128t-80.5 125t-59 80.5 q-17 21 -2.5 40t41 33t55 22.5t37.5 8.5h13.5t13.5 -2q4 -2 10.5 -7.5t19.5 -26.5q9 -19 31 -57.5t47.5 -87t51.5 -102.5t44.5 -103.5t27.5 -91t-1 -64.5q-9 -28 -52 -70t-104.5 -88.5t-132.5 -94t-136.5 -84.5t-118.5 -60.5t-76 -23.5h-4q-23 0 -32 19z" />
<glyph unicode="&#xbc;" horiz-adv-x="1179" d="M167 722.5v9.5q4 8 19 48.5t36 98.5t44.5 125t43.5 126t34 100.5t16 51.5q-2 0 -6.5 1t-6.5 1q-8 4 -20 7.5t-10 22.5q2 8 9.5 12.5t28 8.5t57.5 6.5t100 2.5q9 -3 15 -11q0 -4 1 -10.5t-2 -20t-9.5 -36t-19.5 -58.5q-47 -119 -102.5 -238.5t-85.5 -248.5q-2 -15 -22 -22 t-44.5 -8t-46.5 6t-27 18q-2 2 -2 7.5zM281 -19q21 121 71 268t112.5 302.5t126 312t111.5 298.5q25 74 43.5 119.5t33 72.5t25 38t15.5 17q15 8 21 6q49 -4 67 -39t28 -73q13 -53 -15 -70q-6 -6 -14 -8q-2 -2 -7.5 -10.5t-15 -28.5t-23.5 -55t-35 -90q-49 -138 -110 -276.5 t-122.5 -272.5t-116.5 -262t-95 -245q-8 -34 -30 -49q-15 -9 -21 -8.5t-21 11.5q-13 8 -22.5 18.5t-5.5 23.5zM682 205q3 17 8 43q32 89 53 148t33.5 95t17 54t4.5 24q4 23 21 42t39 33t44.5 22.5t38.5 8.5q15 0 14 -22t-8.5 -50t-19 -58.5t-19.5 -47.5q-6 -17 -17 -54 t-21.5 -75t-19 -69.5t-10.5 -36.5q4 -4 16.5 -7t44.5 -3q15 0 30 24t29.5 60t27.5 79.5t24.5 83.5t19 70t11.5 42q6 19 40 39.5t62 20.5q25 0 29.5 -18t0 -42.5t-15 -49t-14.5 -38.5q-19 -47 -40.5 -104t-44.5 -114q-4 -15 -9.5 -27.5t-9.5 -21.5q15 -6 17 -25t-2.5 -39.5 t-14 -37t-19.5 -16.5h-10.5t-17.5 -1q-13 -40 -23.5 -71.5t-16.5 -48.5q0 -9 -11.5 -17.5t-41.5 -8.5q-13 0 -39 3.5t-41 30.5q4 4 11.5 24.5t26.5 77.5h-11q-127 0 -160 44q-9 17 -6 34z" />
<glyph unicode="&#xbd;" horiz-adv-x="1310" d="M167 722.5v9.5q4 8 19 48.5t36 98.5t44.5 125t43.5 126t34 100.5t16 51.5q-2 0 -6.5 1t-6.5 1q-8 4 -20 7.5t-10 22.5q2 8 9.5 12.5t28 8.5t57.5 6.5t100 2.5q9 -3 15 -11q0 -4 1 -10.5t-2 -20t-9.5 -36t-19.5 -58.5q-47 -119 -102.5 -238.5t-85.5 -248.5q-2 -15 -22 -22 t-44.5 -8t-46.5 6t-27 18q-2 2 -2 7.5zM281 -19q21 121 71 268t112.5 302.5t126 312t111.5 298.5q25 74 43.5 119.5t33 72.5t25 38t15.5 17q15 8 21 6q49 -4 67 -39t28 -73q13 -53 -15 -70q-6 -6 -14 -8q-2 -2 -7.5 -10.5t-15 -28.5t-23.5 -55t-35 -90q-49 -138 -110 -276.5 t-122.5 -272.5t-116.5 -262t-95 -245q-8 -34 -30 -49q-15 -9 -21 -8.5t-21 11.5q-13 8 -22.5 18.5t-5.5 23.5zM707 8q4 34 28.5 69t61.5 71t81 71t85 69q53 42 97 79t61 62q28 46 33 61.5t5 19.5q-4 4 -9 7t-31 3q-27 0 -43 -7t-24.5 -15.5t-12.5 -17t-6 -14.5v-5 q-4 -13 -21.5 -27.5t-29.5 -18.5h-5q-15 0 -40 8.5t-25 35.5q0 13 22 53t54 72q78 74 150 74q70 0 105 -21t48 -47q23 -34 19.5 -83.5t-34.5 -108.5q-27 -53 -75 -86t-103 -65q-53 -32 -104.5 -66.5t-81.5 -91.5q38 2 76 10.5t76 8.5q11 0 17 -16t6.5 -36t-4 -39t-12.5 -26 q-13 -6 -71 -12.5t-123 -7.5t-117.5 6.5t-52.5 30.5zM728 326h2h-2zM1070 76h1h-1z" />
<glyph unicode="&#xbe;" horiz-adv-x="1291" d="M143.5 862.5q6.5 24.5 19.5 47.5t30 35.5t27 2.5q15 -6 44.5 -18t71.5 -12q99 0 144 117q9 21 9 39t-4 30q-9 15 -36.5 20.5t-50.5 9.5q-21 8 -38 10.5t-26 14.5q-6 9 -4 28q4 15 27.5 32t74.5 53q19 15 40 30.5t38 28.5q15 9 22.5 17t11.5 14q-4 2 -11.5 1.5t-23.5 1.5 t-42.5 6t-68.5 13q-9 2 -10 14.5t2 28.5t10.5 31t16.5 25q4 4 16.5 6.5t65.5 2.5q55 0 116.5 -3.5t112.5 -11.5q17 0 23 -9.5t8 -13.5q2 -8 -1 -19t-16.5 -29t-42 -46.5t-75.5 -68.5q-28 -21 -57.5 -41.5t-50.5 -35.5q32 -6 58.5 -21t43.5 -38t21 -52.5t-8 -61.5 q-23 -66 -58.5 -111.5t-84 -75t-108.5 -44t-126 -19.5q-46 0 -71.5 6.5t-34.5 27.5q-11 13 -4.5 37.5zM394 -19q21 121 71.5 268t113 302.5t126 312t110.5 298.5q25 74 44 119.5t33 72.5t24.5 38t16.5 17q15 8 21 6q49 -4 67 -39t28 -73q13 -53 -16 -70q-6 -6 -13 -8 q-2 -2 -7.5 -10.5t-15 -28.5t-23.5 -55t-35 -90q-49 -138 -110 -276.5t-122.5 -272.5t-116.5 -262t-95 -245q-8 -34 -30 -49q-15 -9 -21 -8.5t-21 11.5q-13 8 -22.5 18.5t-6.5 23.5zM795.5 205q2.5 17 8.5 43q32 89 53 148t33.5 95t17 54t4.5 24q4 23 21 42t39 33t44.5 22.5 t37.5 8.5t14.5 -22t-8.5 -50t-19 -58.5t-19 -47.5q-6 -17 -17 -54t-21.5 -75t-19 -69.5t-10.5 -36.5q4 -4 16 -7t45 -3q15 0 30 24t29 60t27.5 79.5t25 83.5t19 70t11.5 42q6 19 40 39.5t62 20.5q25 0 29.5 -18t0 -42.5t-15 -49t-14.5 -38.5q-19 -47 -40.5 -104t-44.5 -114 q-4 -15 -9.5 -27.5t-9.5 -21.5q15 -6 17 -25t-3 -39.5t-14.5 -37t-18.5 -16.5h-10.5t-18.5 -1q-13 -40 -23.5 -71.5t-15.5 -48.5q0 -9 -11.5 -17.5t-41.5 -8.5q-13 0 -39 3.5t-41 30.5q4 4 11.5 24.5t26.5 77.5h-12q-127 0 -159 44q-9 17 -6.5 34z" />
<glyph unicode="&#xbf;" horiz-adv-x="735" d="M-61 -219q6 -56 40 -91t93 -50t140 -15q119 0 214 35t157 80.5t84.5 91t-3.5 67.5q-19 15 -44.5 -1t-68.5 -41.5t-109.5 -50t-166.5 -24.5q-34 0 -65.5 8.5t-50.5 32t-20 64.5t22 105q17 47 79 94t134 89.5t137 79.5t92 69q25 30 43 66.5t21.5 67.5t-7 53t-38.5 26 q-49 6 -74 -5t-35 -28t-9.5 -36.5t0.5 -35.5q0 -15 3 -26.5t2 -19t-7.5 -14t-23.5 -12.5q-11 -4 -49 -23.5t-90.5 -51t-112 -73t-113.5 -89t-96 -100.5t-59 -106q-25 -80 -19 -136zM551 733q-3 22 2 46.5t16 41.5q23 36 54 58t75 22q21 0 30.5 -12.5t11 -30.5t-3 -38 t-12.5 -35q-8 -17 -20 -35t-29 -33t-38 -25.5t-45 -10.5q-17 0 -27.5 15t-13.5 37z" />
<glyph unicode="&#xc0;" horiz-adv-x="1084" d="M-157 38q4 -15 24.5 -24.5t46 -13.5t49.5 -2.5t33 10.5q4 2 44 46.5t104.5 118.5t149.5 170.5t180 206.5q82 -8 154 -9.5t142 7.5q28 4 28 44q-2 19 -13 35t-34 18q-99 0 -190 5q116 144 235.5 282.5t233.5 281.5q-4 -78 -28 -174t-56 -199t-69 -209.5t-68.5 -207 t-52 -189.5t-20.5 -157q0 -13 11 -25q13 -15 37 -27.5t49.5 -20t49 -7.5t40.5 13l-7 78q-6 57 11 150t47.5 204t69.5 233t77 239t70 220t51 177q21 85 32.5 139.5t16 86.5t1.5 48t-8 22q-17 17 -56 14t-83.5 -20t-91 -41.5t-79 -51t-45.5 -48.5t8 -33t46.5 -8.5t46.5 -2.5 q-57 -78 -137.5 -179.5t-168 -207t-172 -203t-150.5 -167.5q-91 6 -127 19q-38 2 -49.5 -22t0.5 -41q23 -27 100 -45q-95 -106 -174.5 -195.5t-139 -154t-96.5 -102t-45 -43.5q-34 -17 -28 -38zM971 1966q2 17 17 27.5t33 15.5t35 3t27 -10q6 -6 25.5 -23.5t45 -41.5 t52.5 -52.5t45 -54t22.5 -45.5t-12.5 -29q-27 -13 -77 5t-99.5 51t-84.5 75t-29 79z" />
<glyph unicode="&#xc1;" horiz-adv-x="1149" d="M-157 38q-6 21 28 38q8 6 45 43.5t96.5 102t139 154t174.5 195.5q-78 19 -100 45q-11 17 0 41t49 22q36 -13 127 -19q66 70 150.5 167.5t172 203t168 207t137.5 179.5q-21 6 -46.5 3t-46.5 8t-8 33t45.5 48.5t79 51t91 41.5t83.5 20t56 -14q6 -6 8.5 -22t-2 -48t-16 -86 t-32.5 -140q-19 -74 -51 -177t-70 -220t-77 -239t-69.5 -233t-47.5 -204t-11 -150l7 -78q-17 -13 -40.5 -13t-49 7.5t-49.5 20t-37 27.5q-11 11 -11 25q0 68 20.5 157t52 189.5t68.5 207t69 209.5t56 199t28 174q-114 -142 -233.5 -280.5t-235.5 -283.5q91 -6 190 -5 q23 -2 34 -18t13 -35q0 -40 -28 -44q-70 -9 -142 -7.5t-154 9.5q-95 -110 -180 -206.5t-149.5 -170.5t-104.5 -118.5t-44 -46.5q-9 -9 -33 -10.5t-49.5 2.5t-46.5 13.5t-24 24.5zM1082.5 1785q5.5 20 25.5 46.5t48.5 54t56 52.5t49.5 43t29 23q9 8 28.5 10t39.5 -3t35 -15.5 t19 -27.5q6 -38 -32 -80.5t-92.5 -76.5t-109.5 -51t-83 -4q-19 9 -13.5 29z" />
<glyph unicode="&#xc2;" horiz-adv-x="1162" d="M-157 38q-6 21 28 38q8 6 45 43.5t96.5 102t139 154t174.5 195.5q-78 19 -100 45q-11 17 0 41t49 22q36 -13 127 -19q66 70 150.5 167.5t172 203t168 207t137.5 179.5q-21 6 -46.5 3t-46.5 8t-8 33t45.5 48.5t79 51t91 41.5t83.5 20t56 -14q6 -6 8.5 -22t-2 -48t-16 -86 t-32.5 -140q-19 -74 -51 -177t-70 -220t-77 -239t-69.5 -233t-47.5 -204t-11 -150l7 -78q-17 -13 -40.5 -13t-49 7.5t-49.5 20t-37 27.5q-11 11 -11 25q0 68 20.5 157t52 189.5t68.5 207t69 209.5t56 199t28 174q-114 -142 -233.5 -280.5t-235.5 -283.5q91 -6 190 -5 q23 -2 34 -18t13 -35q0 -40 -28 -44q-70 -9 -142 -7.5t-154 9.5q-95 -110 -180 -206.5t-149.5 -170.5t-104.5 -118.5t-44 -46.5q-9 -9 -33 -10.5t-49.5 2.5t-46.5 13.5t-24 24.5zM980 1839q4 13 31.5 36t62.5 45t69.5 38t51.5 16q15 0 48 -15t68 -37t63.5 -44.5t32.5 -38.5 q6 -11 -2.5 -27t-23 -30.5t-30.5 -24t-27 -9.5q-13 0 -32.5 16.5t-38.5 39t-35 44.5t-23 33q-6 -9 -22 -31t-35 -44.5t-39 -40t-33 -17.5q-11 0 -27.5 9.5t-29.5 23t-22.5 29.5t-6.5 29z" />
<glyph unicode="&#xc3;" horiz-adv-x="1226" d="M-157 38q-6 21 28 38q8 6 45 43.5t96.5 102t139 154t174.5 195.5q-78 19 -100 45q-11 17 0 41t49 22q36 -13 127 -19q66 70 150.5 167.5t172 203t168 207t137.5 179.5q-21 6 -46.5 3t-46.5 8t-8 33t45.5 48.5t79 51t91 41.5t83.5 20t56 -14q6 -6 8.5 -22t-2 -48t-16 -86 t-32.5 -140q-19 -74 -51 -177t-70 -220t-77 -239t-69.5 -233t-47.5 -204t-11 -150l7 -78q-17 -13 -40.5 -13t-49 7.5t-49.5 20t-37 27.5q-11 11 -11 25q0 68 20.5 157t52 189.5t68.5 207t69 209.5t56 199t28 174q-114 -142 -233.5 -280.5t-235.5 -283.5q91 -6 190 -5 q23 -2 34 -18t13 -35q0 -40 -28 -44q-70 -9 -142 -7.5t-154 9.5q-95 -110 -180 -206.5t-149.5 -170.5t-104.5 -118.5t-44 -46.5q-9 -9 -33 -10.5t-49.5 2.5t-46.5 13.5t-24 24.5zM955 1803.5q10 26.5 40.5 57t69.5 55t65 22.5q27 -2 49.5 -15t73.5 -40q21 0 52.5 19t61 36 t49.5 20.5t18 -28.5q-4 -40 -28 -72t-55 -54.5t-62.5 -37t-50.5 -16.5q-23 0 -41.5 8.5t-36.5 20t-36 22t-39 14.5q-15 0 -28.5 -7t-27 -14.5t-27.5 -14t-29 -4.5q-28 2 -18 28.5z" />
<glyph unicode="&#xc4;" d="M-159 44q0 2 14 15t64.5 64t147 156.5t259.5 291.5q-49 11 -77.5 26.5t-28.5 37.5q0 15 11.5 29.5t37.5 14.5q11 0 47.5 -7.5t85.5 -11.5q66 70 150.5 167.5t172 203t168 207t137.5 179.5q8 -2 -8.5 -3t-37.5 1.5t-40 10.5t-19 19q0 21 34.5 51.5t83.5 58t102 47t93 19.5 q23 0 39 -8.5t16 -40.5q0 -28 -12 -87t-39 -173q-17 -72 -48.5 -170.5t-68.5 -209.5t-73.5 -228.5t-68 -226.5t-50.5 -202t-19 -157q0 -19 2 -29l7 -78q-15 -13 -45 -13q-21 0 -46.5 7.5t-46.5 19t-35 25.5t-14 28q0 68 20.5 157t52 189.5t68.5 207t69 209.5t56 199t28 174 q-114 -142 -233.5 -280.5t-235.5 -283.5q91 -6 190 -5q21 0 34 -18t13 -35q0 -23 -16 -34.5t-38.5 -15t-48.5 -3t-45 0.5q-42 0 -85.5 3t-90.5 7q-95 -110 -180 -206.5t-149.5 -170.5t-104.5 -118.5t-44 -46.5q-11 -11 -45 -12q-36 0 -73 13.5t-37 34.5zM1028 1803 q-2 40 14 71.5t65 25.5q25 -4 38.5 -17t16.5 -34q2 -13 1 -29.5t-8.5 -31.5t-19.5 -25.5t-29 -10.5q-21 0 -48.5 12.5t-29.5 38.5zM1243 1839.5q3 22.5 24 43.5q17 23 60 17q23 -4 37 -17t18 -34q2 -11 0.5 -28.5t-9.5 -32.5t-19 -25.5t-28 -10.5q-25 0 -45 12.5t-30.5 32.5 t-7.5 42.5z" />
<glyph unicode="&#xc5;" d="M-157 38q-6 21 28 38q8 6 45 43.5t96.5 102t139 154t174.5 195.5q-78 19 -100 45q-11 17 0 41t49 22q36 -13 127 -19q66 70 150.5 167.5t172 203t168 207t137.5 179.5q-21 6 -46.5 3t-46.5 8t-8 33t45.5 48.5t79 51t91 41.5t83.5 20t56 -14q6 -6 8.5 -22t-2 -48t-16 -86 t-32.5 -140q-19 -74 -51 -177t-70 -220t-77 -239t-69.5 -233t-47.5 -204t-11 -150l7 -78q-17 -13 -40.5 -13t-49 7.5t-49.5 20t-37 27.5q-11 11 -11 25q0 68 20.5 157t52 189.5t68.5 207t69 209.5t56 199t28 174q-114 -142 -233.5 -280.5t-235.5 -283.5q91 -6 190 -5 q23 -2 34 -18t13 -35q0 -40 -28 -44q-70 -9 -142 -7.5t-154 9.5q-95 -110 -180 -206.5t-149.5 -170.5t-104.5 -118.5t-44 -46.5q-9 -9 -33 -10.5t-49.5 2.5t-46.5 13.5t-24 24.5zM1070 1856q-8 87 29.5 138.5t138.5 38.5q57 -9 79 -36t26 -51q4 -27 -4 -60t-25 -62.5 t-42.5 -50.5t-59.5 -21q-21 0 -45 6t-44.5 19t-36 33t-16.5 46zM1155 1875q2 -15 23.5 -24.5t42.5 -9.5q25 0 33.5 28.5t6.5 51.5q-4 21 -20 31.5t-37 10.5q-32 0 -41.5 -29.5t-7.5 -58.5z" />
<glyph unicode="&#xc6;" horiz-adv-x="1651" d="M-157 38q-6 21 28 38q8 6 45 43.5t96.5 102t139 154t174.5 195.5q-78 19 -100 45q-11 17 0 41t49 22q36 -13 127 -19q66 70 150.5 167.5t172 203t168 207t137.5 179.5q-21 6 -46.5 3t-46.5 8q-19 9 -9.5 29t38 42t72 43t92 35t99.5 17t95 -11q70 0 162 10.5t202 10.5 q47 0 89.5 -2.5t73 -11t48.5 -25t18 -44.5q0 -44 -19 -80t-41.5 -61.5t-43.5 -39.5t-27 -14q-17 0 -28.5 22.5t-22.5 66.5h-17t-17 1t-36 1.5t-72.5 2.5t-125 6t-196.5 9l-29 -123q-11 -49 -30 -109.5t-40 -131.5q-32 -114 -67 -228.5t-81 -231.5q119 -6 248 -6 q21 0 34.5 -21t13.5 -42q0 -28 -43.5 -36.5t-100.5 -8.5t-111 4.5t-73 4.5q-32 -110 -53 -205.5t-25 -163.5h239h133.5t65.5 -1t36 -1t33 15t31.5 35t30.5 36t32 16t23.5 -18t6.5 -41q0 -63 -18 -98.5t-48 -53.5t-70 -22t-85 -4q-23 0 -75 -4t-117.5 -5.5t-136 -0.5 t-128 9.5t-94.5 27.5t-37 51q0 83 29.5 196t70.5 240q-49 4 -102 8.5t-102.5 10.5t-91 10.5t-66.5 6.5q-95 -110 -180 -206.5t-149.5 -170.5t-104.5 -118.5t-44 -46.5q-9 -9 -33 -10.5t-49.5 2.5t-46.5 13.5t-24 24.5zM561 650l309 -34q28 82 55 162.5t49 157.5t37 147 t19 131q-114 -142 -233.5 -280.5t-235.5 -283.5z" />
<glyph unicode="&#xc7;" horiz-adv-x="1054" d="M85.5 284.5q-7.5 87.5 4 183t37 195t58.5 191.5t67 169t65 128q49 87 121 171.5t160 152t190.5 108t210.5 40.5q46 0 95 -3.5t94.5 -19t81 -44.5t50.5 -81q23 -64 -67 -172q-9 -13 -24 -30.5t-32.5 -30.5t-32.5 -20.5t-24 -0.5q-13 13 -11.5 36t8 48.5t12.5 49.5t4 37 q-9 40 -31 64.5t-51.5 37t-63.5 14t-68 -1.5q-34 -13 -74 -37t-80 -58q-93 -76 -173.5 -188t-146 -239t-113 -260.5t-71.5 -253.5q-11 -63 -17 -126t8 -116.5t58 -86.5t129 -33q95 0 194.5 59t190.5 169q19 21 47.5 33t45.5 12q23 0 20 -15t-16.5 -35t-30.5 -39t-23 -27 q-44 -51 -87 -97.5t-98 -82.5q-101 -68 -243 -77q-13 -27 -21.5 -49t-8.5 -33q99 -3 129 -47q23 -36 3 -84q-15 -42 -47 -70t-74 -46t-88.5 -26t-91.5 -8q-17 0 -32.5 1t-24.5 3q-23 6 -26.5 18.5t-3.5 15.5q2 11 12 23.5t24.5 22t29.5 15.5t26 6h8q36 0 75 9.5t54 47.5 q4 9 5 14t1 8h-14q-11 2 -25 3t-31 9q-23 9 -29 30q-8 30 27 89q9 17 17.5 29.5t12.5 16.5q-72 4 -135.5 29.5t-103.5 97.5q-34 64 -41.5 151.5z" />
<glyph unicode="&#xc8;" horiz-adv-x="1069" d="M-23 17q0 -11 11.5 -18.5t25.5 -12.5t28.5 -7t20.5 -2h13t25.5 3t27.5 7.5t17 14.5q2 2 5 9.5t10 22.5q42 -4 108.5 -9.5t141 -11t149.5 -9.5t134 -4q46 0 85.5 4t70 22t48.5 54t18 98q0 23 -6.5 41t-23.5 18t-32.5 -16t-30.5 -36t-31 -35t-33 -15t-35.5 1t-64.5 1 h-135.5h-244.5h-76q28 70 67 164.5t83 204.5q44 -4 85.5 -5.5t81.5 -1.5h52t55.5 3.5t44.5 12t18 27.5q0 21 -13 42t-34 21q-129 0 -249 6q82 210 159 412t132 412q119 -6 197.5 -9.5t127 -5.5t73 -2.5t36 -1.5t17.5 -1h17q11 -44 22.5 -66.5t28.5 -22.5q6 0 27 14 t43.5 39.5t41.5 61.5t19 80q0 28 -18 44.5t-48.5 25t-73 11t-89.5 2.5q-110 0 -202 -10.5t-163 -10.5q-19 0 -26.5 6t-10 13.5t-5.5 13t-13 5.5q-46 0 -106 -16t-116 -40.5t-95 -52t-39 -52.5q0 -15 14 -22.5t34 -10.5t40 -4t30 -3q0 2 -11.5 -50t-39 -154.5t-73 -252 t-112.5 -341.5q-47 4 -78.5 10.5t-40.5 6.5q-25 0 -32.5 -13t-7.5 -27q0 -19 15 -31t35 -20.5t42 -13.5t37 -7q-28 -87 -54.5 -164t-48.5 -136.5t-35.5 -97.5t-16.5 -49q-9 -23 -29.5 -34.5t-20.5 -28.5zM781 1966q2 17 17.5 27.5t33.5 15.5t35 3t26 -10q6 -6 26 -23.5 t45.5 -41.5t52 -52.5t44.5 -54t22.5 -45.5t-12.5 -29q-27 -13 -77 5t-99 51t-84 75t-30 79z" />
<glyph unicode="&#xc9;" horiz-adv-x="1069" d="M-23 17q0 17 20 28.5t30 34.5q4 11 17 49t35 97.5t48.5 136.5t54.5 164q-15 2 -37 7t-42 13.5t-35 20.5t-15 31q0 13 7.5 26.5t32.5 13.5q9 0 40.5 -6.5t78.5 -10.5q66 192 112 341.5t73.5 252t39 154.5t11.5 50q-9 2 -29.5 3t-40.5 4t-34 10.5t-14 22.5q0 25 39 52.5 t95 52t116.5 40.5t105.5 16q9 0 12.5 -5.5t6 -13t10 -13.5t26.5 -6q70 0 162.5 10.5t202.5 10.5q47 0 89.5 -2.5t73 -11t48.5 -25t18 -44.5q0 -44 -19 -80t-41.5 -61.5t-43.5 -39.5t-27 -14q-17 0 -28.5 22.5t-22.5 66.5h-17t-17.5 1t-36 1.5t-73 2.5t-127 6t-197.5 9 q-55 -210 -132 -412t-159 -412q119 -6 249 -6q21 0 34 -21t13 -42q0 -19 -18 -27.5t-44.5 -12t-56 -3.5h-51.5q-40 0 -82 2t-85 5q-44 -110 -83 -204.5t-67 -164.5h76h244.5h135.5t64 -1t36 -1q17 0 33 15t31 35t30.5 36t32.5 16t23.5 -18t6.5 -41q0 -63 -18 -98.5 t-48.5 -53.5t-70 -22t-85.5 -4q-59 0 -134 4t-149.5 9.5t-141 11t-108.5 9.5q-8 -15 -10.5 -22.5t-4.5 -9.5q-4 -9 -17 -14t-27.5 -8t-26 -3h-12.5q-6 0 -20.5 2t-28.5 7t-25.5 12.5t-11.5 18.5zM828.5 1785q5.5 20 25.5 46.5t48.5 54t56 52.5t49.5 43t29 23q9 8 28.5 10 t39.5 -3t35 -15.5t19 -27.5q6 -38 -32.5 -80.5t-92.5 -76.5t-109 -51t-83 -4q-19 9 -13.5 29z" />
<glyph unicode="&#xca;" horiz-adv-x="1069" d="M-23 17q0 17 20 28.5t30 34.5q4 11 17 49t35 97.5t48.5 136.5t54.5 164q-15 2 -37 7t-42 13.5t-35 20.5t-15 31q0 13 7.5 26.5t32.5 13.5q9 0 40.5 -6.5t78.5 -10.5q66 192 112 341.5t73.5 252t39 154.5t11.5 50q-9 2 -29.5 3t-40.5 4t-34 10.5t-14 22.5q0 25 39 52.5 t95 52t116.5 40.5t105.5 16q9 0 12.5 -5.5t6 -13t10 -13.5t26.5 -6q70 0 162.5 10.5t202.5 10.5q47 0 89.5 -2.5t73 -11t48.5 -25t18 -44.5q0 -44 -19 -80t-41.5 -61.5t-43.5 -39.5t-27 -14q-17 0 -28.5 22.5t-22.5 66.5h-17t-17.5 1t-36 1.5t-73 2.5t-127 6t-197.5 9 q-55 -210 -132 -412t-159 -412q119 -6 249 -6q21 0 34 -21t13 -42q0 -19 -18 -27.5t-44.5 -12t-56 -3.5h-51.5q-40 0 -82 2t-85 5q-44 -110 -83 -204.5t-67 -164.5h76h244.5h135.5t64 -1t36 -1q17 0 33 15t31 35t30.5 36t32.5 16t23.5 -18t6.5 -41q0 -63 -18 -98.5 t-48.5 -53.5t-70 -22t-85.5 -4q-59 0 -134 4t-149.5 9.5t-141 11t-108.5 9.5q-8 -15 -10.5 -22.5t-4.5 -9.5q-4 -9 -17 -14t-27.5 -8t-26 -3h-12.5q-6 0 -20.5 2t-28.5 7t-25.5 12.5t-11.5 18.5zM759 1839q4 13 31 36t62 45t69.5 38t51.5 16q15 0 48 -15t68.5 -37 t63.5 -44.5t32 -38.5q6 -11 -2.5 -27t-23 -30.5t-30.5 -24t-27 -9.5q-13 0 -32 16.5t-38 39t-35.5 44.5t-23.5 33q-6 -9 -22 -31t-35 -44.5t-39 -40t-33 -17.5q-11 0 -27.5 9.5t-29.5 23t-22.5 29.5t-5.5 29z" />
<glyph unicode="&#xcb;" horiz-adv-x="1069" d="M-23 17q0 17 20 28.5t30 34.5q4 11 17 49t35 97.5t48.5 136.5t54.5 164q-15 2 -37 7t-42 13.5t-35 20.5t-15 31q0 13 7.5 26.5t32.5 13.5q9 0 40.5 -6.5t78.5 -10.5q66 192 112 341.5t73.5 252t39 154.5t11.5 50q-9 2 -29.5 3t-40.5 4t-34 10.5t-14 22.5q0 25 39 52.5 t95 52t116.5 40.5t105.5 16q9 0 12.5 -5.5t6 -13t10 -13.5t26.5 -6q70 0 162.5 10.5t202.5 10.5q47 0 89.5 -2.5t73 -11t48.5 -25t18 -44.5q0 -44 -19 -80t-41.5 -61.5t-43.5 -39.5t-27 -14q-17 0 -28.5 22.5t-22.5 66.5h-17t-17.5 1t-36 1.5t-73 2.5t-127 6t-197.5 9 q-55 -210 -132 -412t-159 -412q119 -6 249 -6q21 0 34 -21t13 -42q0 -19 -18 -27.5t-44.5 -12t-56 -3.5h-51.5q-40 0 -82 2t-85 5q-44 -110 -83 -204.5t-67 -164.5h76h244.5h135.5t64 -1t36 -1q17 0 33 15t31 35t30.5 36t32.5 16t23.5 -18t6.5 -41q0 -63 -18 -98.5 t-48.5 -53.5t-70 -22t-85.5 -4q-59 0 -134 4t-149.5 9.5t-141 11t-108.5 9.5q-8 -15 -10.5 -22.5t-4.5 -9.5q-4 -9 -17 -14t-27.5 -8t-26 -3h-12.5q-6 0 -20.5 2t-28.5 7t-25.5 12.5t-11.5 18.5zM783 1803q-2 40 14.5 71.5t65.5 25.5q25 -4 38 -17t17 -34q2 -13 1 -29.5 t-8.5 -31.5t-20 -25.5t-29.5 -10.5q-21 0 -48.5 12.5t-29.5 38.5zM998.5 1839.5q2.5 22.5 23.5 43.5q17 23 61 17q23 -4 37 -17t18 -34q2 -11 0 -28.5t-9.5 -32.5t-19 -25.5t-28.5 -10.5q-25 0 -45 12.5t-30 32.5t-7.5 42.5z" />
<glyph unicode="&#xcc;" horiz-adv-x="553" d="M-27 51q0 -15 23 -25.5t52.5 -16t58 -7.5t37.5 -2q34 0 45.5 4t15.5 7q13 6 15 19q2 9 -8 19q-4 6 -6.5 13.5t3.5 26.5q17 55 51 146t75.5 202t88 232.5t91 238t83.5 220t66 179.5q59 163 74 234t-16 77q-17 2 -52 -1t-78.5 -11.5t-88 -21t-78.5 -28.5t-53 -36t-10 -41 q4 -13 23 -21.5t41.5 -14.5t43.5 -9.5t33 -7.5q-91 -332 -216.5 -669.5t-252.5 -654.5q-4 -8 -13.5 -14t-18.5 -10q-11 -6 -19 -11.5t-10 -15.5zM440 1966q2 17 17 27.5t33 15.5t35 3t27 -10q6 -6 25.5 -23.5t45.5 -41.5t52.5 -52.5t44.5 -54t22.5 -45.5t-12.5 -29 q-27 -13 -77 5t-99.5 51t-84.5 75t-29 79z" />
<glyph unicode="&#xcd;" horiz-adv-x="553" d="M-27 51q2 9 10 15t19 12q9 4 18.5 10t13.5 14q127 317 252 654.5t217 669.5q-11 4 -32.5 7.5t-44 9.5t-41.5 14.5t-23 21.5q-9 21 10 41t53 36t78.5 28.5t88 21t78.5 11t52 1.5q30 -6 15 -77t-73 -234q-27 -76 -66 -179.5t-83.5 -220t-91 -238t-88 -232.5t-75.5 -202 t-51 -146q-6 -19 -3 -26.5t6 -13.5q9 -9 8 -19q-2 -13 -15 -19q-4 -4 -15.5 -7.5t-45.5 -3.5q-9 0 -37.5 2t-58 7.5t-52.5 16t-23 25.5zM546 1785q6 20 26 46.5t48.5 54t56 52.5t49 43t29.5 23q9 8 28 10t39 -3t35 -15.5t19 -27.5q6 -38 -32 -80.5t-92 -76.5t-109.5 -51 t-83.5 -4q-19 9 -13 29z" />
<glyph unicode="&#xce;" horiz-adv-x="553" d="M-27 51q2 9 10 15t19 12q9 4 18.5 10t13.5 14q127 317 252 654.5t217 669.5q-11 4 -32.5 7.5t-44 9.5t-41.5 14.5t-23 21.5q-9 21 10 41t53 36t78.5 28.5t88 21t78.5 11t52 1.5q30 -6 15 -77t-73 -234q-27 -76 -66 -179.5t-83.5 -220t-91 -238t-88 -232.5t-75.5 -202 t-51 -146q-6 -19 -3 -26.5t6 -13.5q9 -9 8 -19q-2 -13 -15 -19q-4 -4 -15.5 -7.5t-45.5 -3.5q-9 0 -37.5 2t-58 7.5t-52.5 16t-23 25.5zM408 1839q4 13 31 36t62.5 45t69.5 38t51 16q15 0 48.5 -15t68.5 -37t63.5 -44.5t31.5 -38.5q6 -11 -2.5 -27t-22.5 -30.5t-30.5 -24 t-27.5 -9.5q-13 0 -32 16.5t-38 39t-35 44.5l-24 33q-6 -9 -22 -31t-35 -44.5t-39 -40t-33 -17.5q-11 0 -27.5 9.5t-29.5 23t-22.5 29.5t-5.5 29z" />
<glyph unicode="&#xcf;" horiz-adv-x="553" d="M-27 51q2 9 10 15t19 12q9 4 18.5 10t13.5 14q127 317 252 654.5t217 669.5q-11 4 -32.5 7.5t-44 9.5t-41.5 14.5t-23 21.5q-9 21 10 41t53 36t78.5 28.5t88 21t78.5 11t52 1.5q30 -6 15 -77t-73 -234q-27 -76 -66 -179.5t-83.5 -220t-91 -238t-88 -232.5t-75.5 -202 t-51 -146q-6 -19 -3 -26.5t6 -13.5q9 -9 8 -19q-2 -13 -15 -19q-4 -4 -15.5 -7.5t-45.5 -3.5q-9 0 -37.5 2t-58 7.5t-52.5 16t-23 25.5zM429 1803q-2 40 14 71.5t65 25.5q25 -4 38 -17t17 -34q2 -13 1 -29.5t-8.5 -31.5t-20 -25.5t-29.5 -10.5q-21 0 -48.5 12.5t-28.5 38.5z M644 1839.5q3 22.5 23 43.5q17 23 61 17q23 -4 37 -17t18 -34q2 -11 0 -28.5t-9.5 -32.5t-19 -25.5t-28.5 -10.5q-25 0 -44.5 12.5t-30 32.5t-7.5 42.5z" />
<glyph unicode="&#xd0;" horiz-adv-x="1024" d="M-36 49q8 4 16.5 11.5t13.5 26.5q11 27 33 89.5t51.5 148.5t64.5 190.5t69 212.5q-55 6 -96.5 18.5t-66.5 32.5q-4 4 -7.5 14.5t-3.5 20t7.5 15.5t24.5 0q30 -11 74 -14t95 -1q30 97 58.5 188.5t51.5 171t39 142.5t23 101q-21 6 -49 5q-15 0 -30 3t-24.5 10.5t-11.5 19 t9 30.5q13 19 56 42.5t94 44.5t100.5 34t75.5 13q38 0 44 -25.5t-4 -72.5q21 11 53.5 24.5t71 25.5t83 20.5t94.5 8.5q55 0 105 -15t88 -45.5t61 -76.5t25 -109q6 -108 -24.5 -242.5t-84 -272t-119.5 -264.5t-135 -217q-51 -68 -118 -132.5t-146 -114.5t-167 -80.5 t-181 -30.5q-49 0 -89 7.5t-67 17.5q-6 -15 -7 -16q-4 -9 -17.5 -13.5t-27.5 -7.5t-25 -3h-12q-19 0 -42.5 9.5t-25.5 54.5zM155 108q163 -23 285.5 40.5t230.5 194.5q64 80 130 197.5t121 247.5t94.5 260t53.5 234q6 38 3 76t-17.5 67t-42 48t-74.5 19q-106 0 -178.5 -22.5 t-108.5 -37.5q-11 -21 -34 -79t-52 -139.5t-65 -182t-74 -204.5q38 4 75 4.5t73 -0.5q19 0 33 -13.5t21.5 -27.5t7.5 -27.5t-9 -13.5q-55 -8 -116 -13.5t-121 -9.5q-38 -106 -74 -206.5t-67.5 -184t-56 -143t-38.5 -84.5z" />
<glyph unicode="&#xd1;" horiz-adv-x="1217" d="M-1 49.5q5 9.5 13.5 18l18 18t13.5 16.5q4 6 7.5 19.5t11.5 30.5q17 47 44.5 123t61.5 168t71 196t75 209q53 155 101.5 299t70.5 258q-9 4 -22.5 5t-26.5 3q-13 0 -28.5 2.5t-25.5 9.5t-12 19t9 31q6 9 34.5 31t64.5 43q17 11 50 32t67 31.5t61.5 -1.5t33.5 -67 q0 -8 5 -59t13.5 -130t19.5 -177.5t27 -200.5q8 -55 19 -134t26 -161.5t38 -160t53 -130.5q30 80 62.5 168t66.5 178t66.5 178t62.5 172q30 85 68 181.5t48 189.5q-8 4 -16.5 6t-17.5 6q-15 2 -26.5 5.5t-15.5 14.5t1 24t14 22q6 8 24 21t43.5 25.5t56 22t60.5 9.5 q25 0 49 -10q9 0 15 -13q17 -36 9.5 -100.5t-30 -144t-56 -168t-68.5 -172.5t-67 -157.5t-51 -122.5q-44 -106 -87.5 -206.5t-80.5 -187.5t-64.5 -156.5t-36.5 -114.5q-4 -19 -22 -45.5t-39 -26.5q-61 0 -72.5 37.5t4.5 92.5q-11 47 -36 153.5t-55.5 245t-62.5 295 t-61 308.5q-28 -82 -55.5 -161.5t-69.5 -187.5q-55 -140 -107 -273t-94.5 -236.5t-70 -169t-29.5 -68.5q-4 -8 -15.5 -12.5t-24.5 -7.5t-25.5 -4t-20.5 -1q-51 0 -66 32q-6 8 -1 17.5zM725.5 1803.5q10.5 26.5 40.5 57t69 55t66 22.5t49.5 -15t73.5 -40q21 0 52 19t60.5 36 t49.5 20.5t18 -28.5q-4 -40 -27.5 -72t-55 -54.5t-62.5 -37t-50 -16.5q-23 0 -42 8.5t-37 20t-36 22t-39 14.5q-15 0 -28 -7t-26.5 -14.5t-27.5 -14t-30 -4.5q-28 2 -17.5 28.5z" />
<glyph unicode="&#xd2;" d="M72 313q-2 -91 22.5 -160.5t79.5 -111t150 -41.5q123 0 232.5 45.5t204 122.5t174.5 176.5t143.5 208.5t109 220t71.5 209q6 23 13.5 63t11.5 84.5t3 90t-12.5 82.5t-34.5 60.5t-61 23.5q-6 0 -17 -1t-22.5 -5.5t-20 -16t-8.5 -30.5q-4 -47 -3 -83t-1.5 -75t-12 -89.5 t-36.5 -125.5q-72 -207 -159 -355t-184 -266q-15 -17 -45.5 -48t-70.5 -64.5t-84.5 -63.5t-85 -46t-75 -12.5t-52.5 37.5q-44 85 -34.5 208.5t51 257t103.5 264.5t122 232q38 63 94 134.5t121.5 134t134.5 103.5t132 41q27 0 50.5 -8.5t43.5 -19t35 -22t26 -16.5 q15 -9 33.5 -8.5t33.5 6t27.5 14.5t15.5 18q6 19 -4.5 35t-27.5 29.5t-36 24t-30 15.5q-123 63 -250.5 46t-244 -86.5t-215 -177t-166.5 -225.5q-21 -34 -51.5 -101.5t-63.5 -155t-62.5 -186t-47.5 -197t-20 -189.5zM819 1966q2 17 17 27.5t33 15.5t35.5 3t26.5 -10 q6 -6 26 -23.5t45.5 -41.5t52 -52.5t44.5 -54t22.5 -45.5t-12.5 -29q-27 -13 -77 5t-99 51t-84 75t-30 79z" />
<glyph unicode="&#xd3;" d="M72 313q2 91 20 189.5t47.5 197t62.5 186t63.5 155t51.5 101.5q68 118 166.5 225.5t215 177t244 86.5t250.5 -46q11 -6 30 -16t36 -23.5t27.5 -29.5t4.5 -35q-4 -9 -16 -18t-27 -14.5t-33 -6.5t-34 9q-11 6 -26 17t-35 21.5t-44 19t-50 8.5q-63 0 -132 -41t-134.5 -103.5 t-121.5 -134.5t-94 -134q-61 -101 -122.5 -232t-103 -264.5t-51 -256.5t34.5 -209q19 -34 53 -37.5t74.5 12.5t85 46t84.5 63.5t70.5 64.5t45.5 48q97 118 184 266t159 355q27 76 36.5 126t12 89t1.5 75t3 83q0 19 8.5 30.5t20 16t23 5.5t16.5 1q38 0 61 -23.5t34.5 -60.5 t12.5 -82.5t-3 -90t-11.5 -84.5t-13.5 -63q-27 -99 -72 -209.5t-108.5 -219.5t-143.5 -208.5t-174.5 -176.5t-203.5 -122.5t-233 -45.5q-95 0 -150 41.5t-79.5 111t-22.5 160.5zM874 1785q6 20 26 46.5t48.5 54t56 52.5t49 43t29.5 23q9 8 28 10t39 -3t35 -15.5t19 -27.5 q6 -38 -32 -80.5t-92 -76.5t-109.5 -51t-83.5 -4q-19 9 -13 29z" />
<glyph unicode="&#xd4;" d="M72 313q2 91 20 189.5t47.5 197t62.5 186t63.5 155t51.5 101.5q68 118 166.5 225.5t215 177t244 86.5t250.5 -46q11 -6 30 -16t36 -23.5t27.5 -29.5t4.5 -35q-4 -9 -16 -18t-27 -14.5t-33 -6.5t-34 9q-11 6 -26 17t-35 21.5t-44 19t-50 8.5q-63 0 -132 -41t-134.5 -103.5 t-121.5 -134.5t-94 -134q-61 -101 -122.5 -232t-103 -264.5t-51 -256.5t34.5 -209q19 -34 53 -37.5t74.5 12.5t85 46t84.5 63.5t70.5 64.5t45.5 48q97 118 184 266t159 355q27 76 36.5 126t12 89t1.5 75t3 83q0 19 8.5 30.5t20 16t23 5.5t16.5 1q38 0 61 -23.5t34.5 -60.5 t12.5 -82.5t-3 -90t-11.5 -84.5t-13.5 -63q-27 -99 -72 -209.5t-108.5 -219.5t-143.5 -208.5t-174.5 -176.5t-203.5 -122.5t-233 -45.5q-95 0 -150 41.5t-79.5 111t-22.5 160.5zM759 1839q4 13 31 36t62 45t69.5 38t51.5 16q15 0 48 -15t68.5 -37t63.5 -44.5t32 -38.5 q6 -11 -2.5 -27t-23 -30.5t-30.5 -24t-27 -9.5q-13 0 -32 16.5t-38 39t-35.5 44.5t-23.5 33q-6 -9 -22 -31t-35 -44.5t-39 -40t-33 -17.5q-11 0 -27.5 9.5t-29.5 23t-22.5 29.5t-5.5 29z" />
<glyph unicode="&#xd5;" d="M72 313q2 91 20 189.5t47.5 197t62.5 186t63.5 155t51.5 101.5q68 118 166.5 225.5t215 177t244 86.5t250.5 -46q11 -6 30 -16t36 -23.5t27.5 -29.5t4.5 -35q-4 -9 -16 -18t-27 -14.5t-33 -6.5t-34 9q-11 6 -26 17t-35 21.5t-44 19t-50 8.5q-63 0 -132 -41t-134.5 -103.5 t-121.5 -134.5t-94 -134q-61 -101 -122.5 -232t-103 -264.5t-51 -256.5t34.5 -209q19 -34 53 -37.5t74.5 12.5t85 46t84.5 63.5t70.5 64.5t45.5 48q97 118 184 266t159 355q27 76 36.5 126t12 89t1.5 75t3 83q0 19 8.5 30.5t20 16t23 5.5t16.5 1q38 0 61 -23.5t34.5 -60.5 t12.5 -82.5t-3 -90t-11.5 -84.5t-13.5 -63q-27 -99 -72 -209.5t-108.5 -219.5t-143.5 -208.5t-174.5 -176.5t-203.5 -122.5t-233 -45.5q-95 0 -150 41.5t-79.5 111t-22.5 160.5zM746.5 1803.5q10.5 26.5 40.5 57t69 55t66 22.5t49.5 -15t73.5 -40q21 0 52 19t60.5 36 t49.5 20.5t18 -28.5q-4 -40 -27.5 -72t-55 -54.5t-62.5 -37t-50 -16.5q-23 0 -42 8.5t-37 20t-36 22t-39 14.5q-15 0 -28.5 -7t-26.5 -14.5t-27.5 -14t-29.5 -4.5q-28 2 -17.5 28.5z" />
<glyph unicode="&#xd6;" d="M72 313q2 91 20 189.5t47.5 197t62.5 186t63.5 155t51.5 101.5q68 118 166.5 225.5t215 177t244 86.5t250.5 -46q11 -6 30 -16t36 -23.5t27.5 -29.5t4.5 -35q-4 -9 -16 -18t-27 -14.5t-33 -6.5t-34 9q-11 6 -26 17t-35 21.5t-44 19t-50 8.5q-63 0 -132 -41t-134.5 -103.5 t-121.5 -134.5t-94 -134q-61 -101 -122.5 -232t-103 -264.5t-51 -256.5t34.5 -209q19 -34 53 -37.5t74.5 12.5t85 46t84.5 63.5t70.5 64.5t45.5 48q97 118 184 266t159 355q27 76 36.5 126t12 89t1.5 75t3 83q0 19 8.5 30.5t20 16t23 5.5t16.5 1q38 0 61 -23.5t34.5 -60.5 t12.5 -82.5t-3 -90t-11.5 -84.5t-13.5 -63q-27 -99 -72 -209.5t-108.5 -219.5t-143.5 -208.5t-174.5 -176.5t-203.5 -122.5t-233 -45.5q-95 0 -150 41.5t-79.5 111t-22.5 160.5zM781 1803q-2 40 14.5 71.5t65.5 25.5q25 -4 38 -17t17 -34q2 -13 1 -29.5t-8.5 -31.5 t-20 -25.5t-29.5 -10.5q-21 0 -48.5 12.5t-29.5 38.5zM996.5 1839.5q2.5 22.5 23.5 43.5q17 23 61 17q23 -4 37 -17t18 -34q2 -11 0 -28.5t-9.5 -32.5t-19 -25.5t-28.5 -10.5q-25 0 -44.5 12.5t-30 32.5t-8 42.5z" />
<glyph unicode="&#xd7;" horiz-adv-x="927" d="M61.5 442q0.5 13 21.5 21q19 8 52.5 27.5t75 49t90 64.5t99.5 75q-44 64 -83.5 122t-60.5 96q-8 13 3.5 36t29.5 44.5t35 34t23 6.5q34 -38 83.5 -102.5t98.5 -139.5q89 66 167 125.5t129 95.5q17 11 39 8.5t39 -13t25.5 -22.5t0.5 -20q-55 -49 -147 -122t-194 -149 q53 -91 85 -171.5t19 -124.5q-2 -6 -16 -20t-30 -26.5t-30.5 -15t-16.5 14.5q-4 36 -43.5 104t-92.5 148q-59 -40 -115 -76t-102.5 -63.5t-83.5 -43.5t-60 -18q-6 0 -17 8.5t-17.5 21t-6 25.5z" />
<glyph unicode="&#xd8;" d="M72 319q2 91 20 188.5t48.5 196t62.5 184t62.5 152.5t51.5 102q47 83 111.5 161.5t139.5 144t158.5 112t170.5 63.5q25 68 43 112t32 69.5t23.5 36t15.5 15.5q15 8 21 6q49 -4 67 -39t27 -73q13 -53 -15 -70q-6 -6 -13 -7q-4 -4 -9.5 -12.5t-17.5 -35.5q63 -11 122 -40 q11 -6 30 -16t36 -23.5t27.5 -29.5t4.5 -35q-4 -9 -16 -18t-27 -14.5t-33 -6.5t-34 9q-11 6 -26 17t-35 21.5t-44 19t-50 8.5l-10 -28q-25 -70 -62.5 -167t-82 -211t-94 -239t-99.5 -250t-98.5 -247.5t-90.5 -228.5q36 21 71 48.5t65.5 55t54.5 51t35 38.5q97 118 184 266 t159 355q27 76 36.5 126t12 89t1.5 75t3 83q0 19 8.5 30.5t20 16t23 5.5t16.5 1q38 0 61 -23.5t34.5 -60.5t12.5 -82.5t-3 -90t-11.5 -84.5t-13.5 -63q-25 -91 -65.5 -192.5t-96.5 -203t-126 -196t-152.5 -172.5t-178.5 -133t-204 -76q-21 -57 -39 -105t-29 -86 q-8 -34 -30 -49q-15 -9 -21 -8.5t-21 11.5q-13 8 -22.5 18.5t-6.5 23.5q6 36 17.5 83.5t28.5 102.5q-91 2 -144 44.5t-76 113t-21 161.5zM267.5 350.5q-9.5 -123.5 34.5 -208.5q17 -30 45 -36q46 144 109.5 319.5t130.5 355t130.5 349t113.5 304.5q-44 -32 -85 -73 t-78 -84.5t-69 -88.5t-55 -84q-61 -101 -122.5 -232t-103 -264.5t-51 -257z" />
<glyph unicode="&#xd9;" horiz-adv-x="1088" d="M78 256q6 -70 33 -117.5t69 -77t98 -42.5t118 -13q72 0 141.5 33t132 88t119.5 124t105 141.5t85 139.5t64 118q47 91 96.5 207t92 237.5t74 237t40.5 208.5q2 23 -0.5 42.5t-19.5 23.5q-30 2 -71 -9.5t-82 -30.5t-74 -43.5t-47 -49.5q-17 -17 -15 -29t14.5 -19 t28.5 -10.5t27 -3.5q13 -2 26.5 -3t23.5 -5q-34 -146 -79 -300.5t-104.5 -304t-134.5 -288t-168 -252.5q-131 -161 -250 -161q-74 0 -104.5 50t-32 130t20 181t54 203.5t68.5 196.5t62 160q40 104 77 200t64 176q9 28 24 69t22 78t-3.5 63.5t-50.5 26.5q-25 0 -73 -12.5 t-98.5 -30.5t-92 -39t-55.5 -40q-11 -17 -10 -29t9.5 -19.5t22.5 -11.5t30 -6l26 -4t23 -5v-14.5t-4 -31.5q-42 -163 -101.5 -312t-112.5 -288t-86.5 -271t-21.5 -261zM743 1966q2 17 17.5 27.5t33.5 15.5t35 3t26 -10q6 -6 26 -23.5t45.5 -41.5t52 -52.5t44.5 -54 t22.5 -45.5t-12.5 -29q-27 -13 -77 5t-99 51t-84 75t-30 79z" />
<glyph unicode="&#xda;" horiz-adv-x="1088" d="M78 256q-11 129 22 261t86 271t112.5 288t101.5 312q4 21 4 31.5v14.5q-9 4 -22.5 5.5t-26.5 3.5q-15 2 -29.5 6t-23 11.5t-9.5 19.5t10 29q13 19 55 40t92.5 39t98.5 30.5t73 12.5q40 0 50.5 -26.5t3.5 -63.5t-22 -78t-24 -69q-27 -80 -64 -175.5t-77 -200.5 q-27 -66 -62.5 -160t-68 -196.5t-54 -203.5t-20 -181t32 -130t104.5 -50q119 0 250 161q93 114 168 252.5t134.5 288t104.5 304t79 300.5q-9 4 -22.5 5t-27.5 3q-11 0 -27 3.5t-28.5 10.5t-14.5 19t15 29q13 25 46.5 49.5t74.5 43.5t82 30.5t71 9.5q17 -4 19.5 -23.5 t0.5 -42.5q-9 -93 -40.5 -208.5t-74 -237t-92 -237.5t-96.5 -207q-27 -51 -64 -118t-85 -139.5t-105 -141.5t-119.5 -124t-132 -88t-141.5 -33q-63 0 -118.5 13t-97.5 42.5t-69.5 77t-32.5 117.5zM817.5 1785q5.5 20 25.5 46.5t48.5 54t56 52.5t49 43t29.5 23q9 8 28 10 t39 -3t35 -15.5t19 -27.5q6 -38 -32 -80.5t-92 -76.5t-109 -51t-83 -4q-19 9 -13.5 29z" />
<glyph unicode="&#xdb;" horiz-adv-x="1088" d="M78 256q-11 129 22 261t86 271t112.5 288t101.5 312q4 21 4 31.5v14.5q-9 4 -22.5 5.5t-26.5 3.5q-15 2 -29.5 6t-23 11.5t-9.5 19.5t10 29q13 19 55 40t92.5 39t98.5 30.5t73 12.5q40 0 50.5 -26.5t3.5 -63.5t-22 -78t-24 -69q-27 -80 -64 -175.5t-77 -200.5 q-27 -66 -62.5 -160t-68 -196.5t-54 -203.5t-20 -181t32 -130t104.5 -50q119 0 250 161q93 114 168 252.5t134.5 288t104.5 304t79 300.5q-9 4 -22.5 5t-27.5 3q-11 0 -27 3.5t-28.5 10.5t-14.5 19t15 29q13 25 46.5 49.5t74.5 43.5t82 30.5t71 9.5q17 -4 19.5 -23.5 t0.5 -42.5q-9 -93 -40.5 -208.5t-74 -237t-92 -237.5t-96.5 -207q-27 -51 -64 -118t-85 -139.5t-105 -141.5t-119.5 -124t-132 -88t-141.5 -33q-63 0 -118.5 13t-97.5 42.5t-69.5 77t-32.5 117.5zM702 1839q4 13 31 36t62.5 45t69.5 38t51 16q15 0 48 -15t68.5 -37t64 -44.5 t31.5 -38.5q6 -11 -2.5 -27t-23 -30.5t-30.5 -24t-27 -9.5q-13 0 -32 16.5t-38 39t-35.5 44.5t-23.5 33q-6 -9 -22 -31t-35 -44.5t-39 -40t-33 -17.5q-11 0 -27.5 9.5t-29.5 23t-22.5 29.5t-5.5 29z" />
<glyph unicode="&#xdc;" horiz-adv-x="1088" d="M78 256q-11 129 22 261t86 271t112.5 288t101.5 312q4 21 4 31.5v14.5q-9 4 -22.5 5.5t-26.5 3.5q-15 2 -29.5 6t-23 11.5t-9.5 19.5t10 29q13 19 55 40t92.5 39t98.5 30.5t73 12.5q40 0 50.5 -26.5t3.5 -63.5t-22 -78t-24 -69q-27 -80 -64 -175.5t-77 -200.5 q-27 -66 -62.5 -160t-68 -196.5t-54 -203.5t-20 -181t32 -130t104.5 -50q119 0 250 161q93 114 168 252.5t134.5 288t104.5 304t79 300.5q-9 4 -22.5 5t-27.5 3q-11 0 -27 3.5t-28.5 10.5t-14.5 19t15 29q13 25 46.5 49.5t74.5 43.5t82 30.5t71 9.5q17 -4 19.5 -23.5 t0.5 -42.5q-9 -93 -40.5 -208.5t-74 -237t-92 -237.5t-96.5 -207q-27 -51 -64 -118t-85 -139.5t-105 -141.5t-119.5 -124t-132 -88t-141.5 -33q-63 0 -118.5 13t-97.5 42.5t-69.5 77t-32.5 117.5zM753 1803q-2 40 14 71.5t65 25.5q25 -4 38.5 -17t16.5 -34q2 -13 1 -29.5 t-8.5 -31.5t-19.5 -25.5t-29 -10.5q-21 0 -48.5 12.5t-29.5 38.5zM968 1839.5q3 22.5 24 43.5q17 23 60 17q23 -4 37 -17t18 -34q2 -11 0.5 -28.5t-9.5 -32.5t-19 -25.5t-28 -10.5q-25 0 -45 12.5t-30.5 32.5t-7.5 42.5z" />
<glyph unicode="&#xdd;" horiz-adv-x="970" d="M-125 32q-2 30 78 46q2 2 11 9.5t31 30t59 63.5t96 107q102 116 202.5 233.5t195.5 242.5q-27 66 -48.5 144t-39.5 157.5t-32.5 153.5t-25.5 135q-8 40 -13.5 74t-9.5 44q-15 9 -40.5 16.5t-33.5 28.5q-8 25 11.5 45t49.5 35t62.5 23.5t49.5 8.5q30 0 47 -8.5t26.5 -24.5 t13.5 -40t10 -54q27 -146 41.5 -294t41.5 -309q87 108 161 200t127 162t84.5 115.5t37.5 58.5q4 9 -1 13.5t-12.5 8t-16 7.5t-10.5 13q-9 25 11.5 43t52 29.5t64.5 17t48 5.5q82 0 83 -38t-43 -104q-114 -176 -255.5 -342.5t-296.5 -346.5q9 -34 20.5 -73.5t-14.5 -77.5 q-11 -13 -23.5 -10.5t-25 14t-24 25.5t-16.5 24q-106 -123 -196.5 -236t-157.5 -200.5t-108 -141.5t-45 -57q-8 -8 -34 -8h-39t-65 3t-61.5 9.5t-27.5 19.5zM703.5 1785q5.5 20 25.5 46.5t48.5 54t56 52.5t49.5 43t29 23q9 8 28.5 10t39 -3t35 -15.5t18.5 -27.5 q6 -38 -32 -80.5t-92 -76.5t-109 -51t-83 -4q-19 9 -13.5 29z" />
<glyph unicode="&#xde;" horiz-adv-x="914" d="M-8 61q11 46 41.5 136.5t72.5 208t92 251.5t104.5 267.5t106.5 258t98.5 220t81.5 154.5t54 62q42 8 74 -16.5t50 -58t19 -64.5t-20 -39q-17 -6 -41.5 -38t-54 -83t-63.5 -119.5t-70 -146.5q34 9 73.5 14t83.5 5q34 0 85.5 -10.5t99.5 -34t82.5 -62.5t34.5 -94 q0 -101 -33.5 -182t-100.5 -139t-170.5 -86.5t-243.5 -22.5q-101 4 -152 38q-63 -163 -106.5 -286.5t-52.5 -166.5q-6 -21 -31.5 -28.5t-52 -2t-46.5 21.5t-15 43zM341 594q8 -6 25 -10q76 -21 158.5 -13.5t150.5 41t112.5 91t44.5 139.5q0 40 -36.5 60.5t-91.5 26.5 t-118 -0.5t-116 -23.5q-32 -78 -65 -156t-64 -155z" />
<glyph unicode="&#xdf;" horiz-adv-x="978" d="M-36.5 -1q-9.5 16 6.5 28q4 4 20 41.5t39.5 97.5t54 136.5t61.5 157t60.5 158.5t54 141.5t40 105t19.5 51.5q6 19 34 76t85 118.5t146 110t214 48.5q114 0 163.5 -26.5t52 -70.5t-27.5 -100.5t-73 -115.5t-87.5 -117t-68.5 -103q-25 -46 -22 -88.5t20 -81.5t41.5 -76 t45.5 -73t29.5 -71t-4.5 -71q-21 -55 -63 -104.5t-97 -86.5t-119.5 -58.5t-130.5 -21.5q-68 2 -96.5 17t-36 36t0 43.5t13.5 39.5q6 19 16 29.5t20.5 13.5t18 0t7.5 -10q0 -9 38 -8.5t88 17.5t102.5 52t80.5 92q19 38 15.5 75t-20 72t-39 70t-41.5 68.5t-29.5 64.5t0.5 60 q9 28 40 69t65 84.5t65 85t42.5 76t-3.5 54.5t-72 18t-105.5 -39t-88 -96t-72 -130t-57 -137.5t-41.5 -121.5t-29 -81q-17 -40 -44.5 -119.5t-56 -161.5t-50 -146t-23.5 -76q-4 -9 -20 -17.5t-39 -14.5t-47.5 -8t-45.5 2q-40 6 -49.5 22z" />
<glyph unicode="&#xe0;" horiz-adv-x="895" d="M-8 248q-2 -36 1 -79.5t16.5 -80.5t39 -62.5t69.5 -25.5q119 0 231 53q74 32 150 91q-23 -42 -15.5 -71t33 -47t61.5 -25t69.5 -1t56 24t22.5 46q0 21 -11 23t-23.5 0t-24 -1t-11.5 22v5q47 70 91 155.5t73.5 166t39.5 150t-9 107.5q-13 25 -26 39t-24.5 21.5t-20 9.5 t-10.5 2h-2q-21 0 -30.5 -16t-7.5 -37q2 -55 -36 -128t-92 -146t-113.5 -138.5t-99.5 -103.5q-11 -11 -42.5 -31t-65.5 -37t-64.5 -23t-42.5 11q-25 49 9.5 171.5t142.5 280.5q27 38 68.5 81.5t91 80.5t103.5 61.5t103 24.5q51 0 86.5 -9.5t59.5 -16.5q13 -4 22.5 -8 t19.5 -4q27 0 36 29q8 25 -6 51q-15 23 -41.5 38t-56 24.5t-60.5 13t-54 3.5q-112 0 -233.5 -55t-223 -149.5t-170.5 -220.5t-79 -269zM436 1252q2 17 17 27t33 15t35.5 3t26.5 -9q6 -6 26 -24t45.5 -42t52 -52t44.5 -54t22.5 -46t-12.5 -29q-27 -13 -77 5t-99 51t-84.5 75 t-29.5 80z" />
<glyph unicode="&#xe1;" horiz-adv-x="948" d="M-8 248q9 142 78.5 268.5t171 221t223 149.5t233.5 55q23 0 54 -3.5t60.5 -13t56 -24.5t41.5 -38q13 -27 6 -51q-9 -28 -36 -29q-9 0 -19 4t-23 8q-25 8 -60 17t-86 9q-49 0 -103 -24.5t-103.5 -61.5t-91 -80.5t-68.5 -81.5q-108 -157 -142 -279.5t-10 -172.5 q11 -17 42 -11t65 23t65 37t43 31q40 38 99.5 103.5t113.5 138.5t92 146t36 128q-2 21 7.5 37t30.5 16h2q2 0 10.5 -2t20 -9.5t24.5 -22t26 -38.5q19 -38 9 -107.5t-39.5 -150t-73 -165.5t-91.5 -156v-5q0 -21 11.5 -22t24 1t23.5 0t11 -23q0 -28 -22.5 -46t-56 -24t-69.5 1 t-61.5 25t-33 47t15.5 71q-76 -59 -150 -91q-112 -53 -231 -53q-44 0 -69.5 25.5t-39 62.5t-16 80.5t-1.5 79.5zM665.5 1068q5.5 20 25.5 47t48.5 54.5t56 52t49.5 42.5t29 24q9 8 28.5 9.5t39 -3.5t35 -15t19.5 -27q6 -38 -32.5 -81t-92.5 -77t-109 -51t-83 -4 q-19 9 -13.5 29z" />
<glyph unicode="&#xe2;" horiz-adv-x="895" d="M-8 248q9 142 78.5 268.5t171 221t223 149.5t233.5 55q23 0 54 -3.5t60.5 -13t56 -24.5t41.5 -38q13 -27 6 -51q-9 -28 -36 -29q-9 0 -19 4t-23 8q-25 8 -60 17t-86 9q-49 0 -103 -24.5t-103.5 -61.5t-91 -80.5t-68.5 -81.5q-108 -157 -142 -279.5t-10 -172.5 q11 -17 42 -11t65 23t65 37t43 31q40 38 99.5 103.5t113.5 138.5t92 146t36 128q-2 21 7.5 37t30.5 16h2q2 0 10.5 -2t20 -9.5t24.5 -22t26 -38.5q19 -38 9 -107.5t-39.5 -150t-73 -165.5t-91.5 -156v-5q0 -21 11.5 -22t24 1t23.5 0t11 -23q0 -28 -22.5 -46t-56 -24t-69.5 1 t-61.5 25t-33 47t15.5 71q-76 -59 -150 -91q-112 -53 -231 -53q-44 0 -69.5 25.5t-39 62.5t-16 80.5t-1.5 79.5zM430 1126q4 13 31.5 36t62.5 45t69.5 38t51.5 16q15 0 48 -15t68 -37t63.5 -44.5t32.5 -38.5q6 -11 -2.5 -27t-23 -30.5t-30.5 -24t-27 -9.5q-13 0 -32.5 16.5 t-38 39t-35 44.5t-23.5 33q-6 -9 -22 -31t-35 -44.5t-39 -40t-33 -17.5q-11 0 -27.5 9.5t-29.5 23t-22.5 29.5t-6.5 29z" />
<glyph unicode="&#xe3;" horiz-adv-x="895" d="M-8 248q9 142 78.5 268.5t171 221t223 149.5t233.5 55q23 0 54 -3.5t60.5 -13t56 -24.5t41.5 -38q13 -27 6 -51q-9 -28 -36 -29q-9 0 -19 4t-23 8q-25 8 -60 17t-86 9q-49 0 -103 -24.5t-103.5 -61.5t-91 -80.5t-68.5 -81.5q-108 -157 -142 -279.5t-10 -172.5 q11 -17 42 -11t65 23t65 37t43 31q40 38 99.5 103.5t113.5 138.5t92 146t36 128q-2 21 7.5 37t30.5 16h2q2 0 10.5 -2t20 -9.5t24.5 -22t26 -38.5q19 -38 9 -107.5t-39.5 -150t-73 -165.5t-91.5 -156v-5q0 -21 11.5 -22t24 1t23.5 0t11 -23q0 -28 -22.5 -46t-56 -24t-69.5 1 t-61.5 25t-33 47t15.5 71q-76 -59 -150 -91q-112 -53 -231 -53q-44 0 -69.5 25.5t-39 62.5t-16 80.5t-1.5 79.5zM419.5 1087.5q9.5 25.5 38.5 56t68 55t66 24.5h3q27 -2 49.5 -15t74.5 -40q21 0 52 19t60.5 36t49.5 21t18 -28q-4 -40 -27.5 -72.5t-55 -55t-63 -37 t-49.5 -16.5q-23 0 -42 8.5t-37 20t-36 22t-39 14.5q-15 0 -28.5 -6.5t-26.5 -14.5t-27.5 -14.5t-29.5 -4.5q-28 2 -18.5 27.5z" />
<glyph unicode="&#xe4;" horiz-adv-x="895" d="M-8 248q9 142 78.5 268.5t171 221t223 149.5t233.5 55q23 0 54 -3.5t60.5 -13t56 -24.5t41.5 -38q13 -27 6 -51q-9 -28 -36 -29q-9 0 -19 4t-23 8q-25 8 -60 17t-86 9q-49 0 -103 -24.5t-103.5 -61.5t-91 -80.5t-68.5 -81.5q-108 -157 -142 -279.5t-10 -172.5 q11 -17 42 -11t65 23t65 37t43 31q40 38 99.5 103.5t113.5 138.5t92 146t36 128q-2 21 7.5 37t30.5 16h2q2 0 10.5 -2t20 -9.5t24.5 -22t26 -38.5q19 -38 9 -107.5t-39.5 -150t-73 -165.5t-91.5 -156v-5q0 -21 11.5 -22t24 1t23.5 0t11 -23q0 -28 -22.5 -46t-56 -24t-69.5 1 t-61.5 25t-33 47t15.5 71q-76 -59 -150 -91q-112 -53 -231 -53q-44 0 -69.5 25.5t-39 62.5t-16 80.5t-1.5 79.5zM448 1087q-2 40 14 71t65 25q25 -4 38 -17t17 -34q2 -13 1 -29t-8.5 -31.5t-20 -26t-29.5 -10.5q-21 0 -48.5 12.5t-28.5 39.5zM663 1122.5q3 22.5 23 43.5 q17 23 61 17q23 -4 37 -17t18 -34q2 -11 0 -28t-9.5 -32.5t-19 -26t-28.5 -10.5q-25 0 -44.5 12.5t-30 32.5t-7.5 42.5z" />
<glyph unicode="&#xe5;" horiz-adv-x="895" d="M-8 248q9 142 78.5 268.5t171 221t223 149.5t233.5 55q23 0 54 -3.5t60.5 -13t56 -24.5t41.5 -38q13 -27 6 -51q-9 -28 -36 -29q-9 0 -19 4t-23 8q-25 8 -60 17t-86 9q-49 0 -103 -24.5t-103.5 -61.5t-91 -80.5t-68.5 -81.5q-108 -157 -142 -279.5t-10 -172.5 q11 -17 42 -11t65 23t65 37t43 31q40 38 99.5 103.5t113.5 138.5t92 146t36 128q-2 21 7.5 37t30.5 16h2q2 0 10.5 -2t20 -9.5t24.5 -22t26 -38.5q19 -38 9 -107.5t-39.5 -150t-73 -165.5t-91.5 -156v-5q0 -21 11.5 -22t24 1t23.5 0t11 -23q0 -28 -22.5 -46t-56 -24t-69.5 1 t-61.5 25t-33 47t15.5 71q-76 -59 -150 -91q-112 -53 -231 -53q-44 0 -69.5 25.5t-39 62.5t-16 80.5t-1.5 79.5zM539 1121q-8 87 29.5 138t138.5 38q57 -9 79 -36t26 -51q4 -27 -4 -60t-25 -62.5t-42.5 -50.5t-59.5 -21q-21 0 -44.5 6t-44.5 19t-36.5 33t-16.5 47zM624 1140 q2 -15 23.5 -24.5t42.5 -9.5q25 0 33.5 28t6.5 51q-4 21 -20 31.5t-37 10.5q-32 0 -41.5 -29.5t-7.5 -57.5z" />
<glyph unicode="&#xe6;" horiz-adv-x="1473" d="M-4.5 208q-8.5 54 4.5 103q23 76 64.5 137.5t101.5 105t134.5 66.5t160.5 23q27 0 65.5 -3t76.5 -13.5t68.5 -31t39.5 -56.5q6 13 19 37.5t26.5 55t22 62.5t5.5 57.5t-21 43t-59 17.5q-21 0 -42 -5t-41 -12.5t-40 -13t-42 -5.5q-15 0 -24 10t-4 27.5t26.5 41t67.5 51.5 q38 23 95 33.5t111 1t94.5 -43.5t46.5 -101q9 6 16 12t14 9q91 59 176.5 92t159.5 33q125 -4 176 -70q34 -44 39 -87.5t-11 -84t-47.5 -78.5t-70.5 -70t-79.5 -58t-74.5 -43q-49 -25 -96 -38t-84.5 -18.5t-65 -7.5t-41.5 -6q-15 -4 -25.5 -5.5t-19.5 -1.5q-32 0 -28.5 3.5 t20.5 18.5q140 80 226.5 133t135 90t66.5 63.5t22 51.5q6 21 4.5 46.5t-16.5 40.5q-17 17 -40 17q-55 0 -104 -21.5t-91.5 -57t-78 -79t-61.5 -85.5q-49 -80 -82.5 -153.5t-51.5 -135t-21 -108t13 -69.5q19 -28 56.5 -25.5t85 20.5t97 47.5t88.5 57t63.5 45.5t20.5 16 q38 30 55 28.5t17 -21.5t-13 -48.5t-34 -51.5q-32 -36 -82.5 -71t-113 -63.5t-135.5 -45.5t-153 -17q-38 0 -63.5 22t-41.5 54t-24.5 68t-10.5 68q-87 -91 -182 -140q-123 -66 -260 -66q-55 0 -98.5 29t-71 74t-36 99zM195 228q0 -59 25 -91q17 -25 48.5 -22t70 23.5 t81.5 55t82.5 75t73 81.5t54.5 75q25 42 12.5 62.5t-41 28t-62 6.5t-52.5 -1q-51 0 -103 -26.5t-94 -69t-68.5 -94.5t-26.5 -103z" />
<glyph unicode="&#xe7;" horiz-adv-x="796" d="M-8 265q9 142 72 265.5t157 215.5t207.5 144t225.5 52q83 0 125 -21.5t55.5 -54t5 -69.5t-27.5 -68t-41 -50t-33 -15q-27 8 -32.5 33t-8.5 52.5t-10.5 49.5t-37.5 22q-49 0 -93 -17t-82 -45.5t-69 -64.5t-58 -74q-55 -78 -91 -153.5t-55 -138.5t-19 -108.5t19 -64.5 q17 -19 52 -19.5t79.5 14.5t94 44.5t98.5 72.5q63 55 109.5 95t80.5 40q19 0 19 -23.5t-21 -60.5t-60.5 -82.5t-98.5 -89.5q-123 -89 -245 -123v-2q-13 -25 -22.5 -49t-9.5 -33q23 0 49.5 -6.5t47 -20.5t30 -37t-3.5 -57q-15 -38 -44.5 -64.5t-68.5 -42.5t-81.5 -23.5 t-84.5 -7.5h-23.5t-26.5 2.5t-21.5 10t-9.5 23.5q6 38 36 47t67 14t70.5 16.5t44.5 54.5q-61 -2 -82 30.5t14 93.5l20 32q-21 -4 -42.5 -4h-42.5q-44 2 -70.5 29.5t-40.5 68t-18.5 86t-3.5 81.5z" />
<glyph unicode="&#xe8;" horiz-adv-x="805" d="M-8 223q0 -60 14.5 -109.5t46.5 -80.5t85 -31q114 0 208 27.5t166 68t120.5 89t70 89.5t17 68.5t-38.5 27.5q-23 0 -55 -40t-85.5 -87.5t-132 -87t-192.5 -39.5q-42 0 -50.5 53t11.5 133.5t63.5 173.5t106.5 173.5t141.5 133.5t165.5 53q28 0 39 -23.5t12 -48.5 q0 -64 -50 -108.5t-118.5 -80t-137.5 -64t-107 -58.5q-9 -9 -18.5 -21.5t-4.5 -22.5q9 -15 34 -14t40 5q57 13 147 43.5t176.5 80t149 119.5t62.5 161q0 57 -45.5 96.5t-161.5 39.5q-216 0 -371.5 -100.5t-253.5 -316.5q-13 -27 -25.5 -76t-20.5 -107.5t-8 -118.5zM436 1252 q2 17 17 27t33 15t35.5 3t26.5 -9q6 -6 26 -24t45.5 -42t52 -52t44.5 -54t22.5 -46t-12.5 -29q-27 -13 -77 5t-99 51t-84.5 75t-29.5 80z" />
<glyph unicode="&#xe9;" horiz-adv-x="805" d="M-8 223q0 60 8 118.5t20 108t26 75.5q99 216 254 316.5t371 100.5q116 0 161.5 -39.5t45.5 -96.5q0 -91 -62.5 -161t-149 -119.5t-176.5 -80t-147 -43.5q-15 -4 -39.5 -5t-34.5 14q-6 9 4 22t19 22q38 30 107 58.5t137.5 64t118.5 80t50 108.5q-2 25 -12 48.5t-39 23.5 q-87 0 -165.5 -53t-141.5 -133.5t-106.5 -173.5t-63.5 -173.5t-11.5 -133.5t50.5 -53q114 0 192.5 39.5t132 87t85.5 87.5t55 40q34 0 38.5 -27.5t-17 -68.5t-70 -89.5t-120.5 -89t-166 -68t-208 -27.5q-53 0 -85 31t-46.5 80.5t-14.5 109.5zM533 1068q6 20 25.5 47t48 54.5 t56 52t49.5 42.5t29 24q9 8 28.5 9.5t39.5 -3.5t35 -15t19 -27q6 -38 -32 -81t-92 -77t-109.5 -51t-83.5 -4q-19 9 -13 29z" />
<glyph unicode="&#xea;" horiz-adv-x="805" d="M-8 223q0 60 8 118.5t20 108t26 75.5q99 216 254 316.5t371 100.5q116 0 161.5 -39.5t45.5 -96.5q0 -91 -62.5 -161t-149 -119.5t-176.5 -80t-147 -43.5q-15 -4 -39.5 -5t-34.5 14q-6 9 4 22t19 22q38 30 107 58.5t137.5 64t118.5 80t50 108.5q-2 25 -12 48.5t-39 23.5 q-87 0 -165.5 -53t-141.5 -133.5t-106.5 -173.5t-63.5 -173.5t-11.5 -133.5t50.5 -53q114 0 192.5 39.5t132 87t85.5 87.5t55 40q34 0 38.5 -27.5t-17 -68.5t-70 -89.5t-120.5 -89t-166 -68t-208 -27.5q-53 0 -85 31t-46.5 80.5t-14.5 109.5zM374 1126q4 13 31 36t62.5 45 t69.5 38t51 16q15 0 48 -15t68.5 -37t63.5 -44.5t32 -38.5q6 -11 -2.5 -27t-23 -30.5t-30.5 -24t-27 -9.5q-13 0 -32 16.5t-38 39t-35.5 44.5t-23.5 33q-6 -9 -22 -31t-35 -44.5t-39 -40t-33 -17.5q-11 0 -27.5 9.5t-29.5 23t-22.5 29.5t-5.5 29z" />
<glyph unicode="&#xeb;" horiz-adv-x="805" d="M-8 223q0 60 8 118.5t20 108t26 75.5q99 216 254 316.5t371 100.5q116 0 161.5 -39.5t45.5 -96.5q0 -91 -62.5 -161t-149 -119.5t-176.5 -80t-147 -43.5q-15 -4 -39.5 -5t-34.5 14q-6 9 4 22t19 22q38 30 107 58.5t137.5 64t118.5 80t50 108.5q-2 25 -12 48.5t-39 23.5 q-87 0 -165.5 -53t-141.5 -133.5t-106.5 -173.5t-63.5 -173.5t-11.5 -133.5t50.5 -53q114 0 192.5 39.5t132 87t85.5 87.5t55 40q34 0 38.5 -27.5t-17 -68.5t-70 -89.5t-120.5 -89t-166 -68t-208 -27.5q-53 0 -85 31t-46.5 80.5t-14.5 109.5zM372 1087q-2 40 14 71t65 25 q25 -4 38.5 -17t16.5 -34q2 -13 1 -29t-8.5 -31.5t-20 -26t-29.5 -10.5q-21 0 -48 12.5t-29 39.5zM587 1122.5q3 22.5 24 43.5q17 23 60 17q23 -4 37 -17t18 -34q2 -11 0 -28t-9.5 -32.5t-19 -26t-28.5 -10.5q-25 0 -44.5 12.5t-30 32.5t-7.5 42.5z" />
<glyph unicode="&#xec;" horiz-adv-x="428" d="M-27 101q-11 -30 3.5 -54t38 -36.5t50 -10.5t39.5 23q23 40 60 114.5t78.5 164t83.5 184t74 179t48.5 147t8.5 87.5q-11 30 -42.5 37.5t-67.5 1t-67.5 -22.5t-42.5 -31q-32 -49 -26.5 -74t26.5 -50q6 -8 -10.5 -59t-45.5 -124t-65 -156t-67.5 -154.5t-53.5 -118.5z M190 1252q2 17 17 27t33 15t35 3t27 -9q6 -6 25.5 -24t45 -42t52 -52t44.5 -54t23 -46t-12 -29q-27 -13 -77 5t-99.5 51t-84.5 75t-29 80z" />
<glyph unicode="&#xed;" horiz-adv-x="428" d="M-27 101l22 47t53.5 118.5t67.5 154.5t65 156t45.5 124.5t10.5 58.5q-21 25 -26.5 49.5t26.5 74.5q11 15 42.5 31t67.5 22.5t67.5 -1t42.5 -37.5q8 -25 -8.5 -87.5t-48.5 -147t-74 -179t-83.5 -184t-78.5 -164t-60 -114.5q-13 -21 -39.5 -23t-50 10.5t-38 36t-3.5 54.5z M400 1068q6 20 26 47t48.5 54.5t56 52t49 42.5t29.5 24q9 8 28 9.5t39 -3.5t35 -15t19 -27q6 -38 -32 -81t-92 -77t-109.5 -51t-83.5 -4q-19 9 -13 29z" />
<glyph unicode="&#xee;" horiz-adv-x="432" d="M-27 101l22 47t53.5 118.5t67.5 154.5t65 156t45.5 124.5t10.5 58.5q-21 25 -26.5 49.5t26.5 74.5q11 15 42.5 31t67.5 22.5t67.5 -1t42.5 -37.5q8 -25 -8.5 -87.5t-48.5 -147t-74 -179t-83.5 -184t-78.5 -164t-60 -114.5q-13 -21 -39.5 -23t-50 10.5t-38 36t-3.5 54.5z M155 1126q4 13 31.5 36t62.5 45t69.5 38t51.5 16q15 0 48 -15t68 -37t63.5 -44.5t32.5 -38.5q6 -11 -2.5 -27t-23 -30.5t-30.5 -24t-27 -9.5q-13 0 -32 16.5t-38 39t-35.5 44.5t-23.5 33q-6 -9 -22 -31t-35 -44.5t-39 -40t-33 -17.5q-11 0 -27.5 9.5t-29.5 23t-22.5 29.5 t-6.5 29z" />
<glyph unicode="&#xef;" horiz-adv-x="432" d="M-27 101l22 47t53.5 118.5t67.5 154.5t65 156t45.5 124.5t10.5 58.5q-21 25 -26.5 49.5t26.5 74.5q11 15 42.5 31t67.5 22.5t67.5 -1t42.5 -37.5q8 -25 -8.5 -87.5t-48.5 -147t-74 -179t-83.5 -184t-78.5 -164t-60 -114.5q-13 -21 -39.5 -23t-50 10.5t-38 36t-3.5 54.5z M205 1087q-2 40 14 71t65 25q25 -4 38.5 -17t16.5 -34q2 -13 1 -29t-8.5 -31.5t-19.5 -26t-29 -10.5q-21 0 -48.5 12.5t-29.5 39.5zM420 1122.5q3 22.5 24 43.5q17 23 60 17q23 -4 37 -17t18 -34q2 -11 0.5 -28t-9.5 -32.5t-19 -26t-28 -10.5q-25 0 -45 12.5t-30.5 32.5 t-7.5 42.5z" />
<glyph unicode="&#xf0;" horiz-adv-x="934" d="M11 248q9 142 81.5 276t178.5 237.5t230.5 166t236.5 62.5h15t17 -2q-28 102 -56 172.5t-71.5 114t-114.5 62.5t-189 19q-51 0 -64 13t-3.5 28.5t34 28.5t49.5 13q161 0 259.5 -34t159 -97.5t93 -155.5t60.5 -208q21 -13 36 -34q13 -27 6 -51q-6 -21 -21 -27 q19 -95 -1 -192.5t-67.5 -190t-118.5 -174.5t-152.5 -143.5t-170.5 -96.5t-174 -35q-61 0 -109.5 13.5t-81.5 43.5t-49 76.5t-13 114.5zM179.5 188q-6.5 -53 8.5 -76q15 -25 55.5 -16.5t95 43t117 87.5t122 118.5t111.5 136.5t85.5 141t42 131.5t-18.5 109.5q-32 6 -66 6 q-49 0 -103 -25t-103.5 -62t-91 -80.5t-68.5 -81.5q-55 -78 -95 -158.5t-62.5 -150.5t-29 -123zM430 1215.5q0 9.5 8 15.5t25 0q40 -15 98.5 -15t128 4.5t141.5 9t136 3.5q19 0 33.5 -13.5t22 -27.5t7.5 -27.5t-10 -13.5q-76 -9 -162 -17t-167.5 -7t-148 12.5t-100.5 41.5 q-4 4 -8 14.5t-4 20z" />
<glyph unicode="&#xf1;" horiz-adv-x="923" d="M-28 101l14 32t37.5 83t53 115.5t59 132t56 131t45.5 111t26.5 74t-1.5 20.5q-9 4 -23.5 5t-29.5 3q-15 0 -30.5 3t-25 10.5t-11.5 19.5t10 29q11 15 56.5 43t101.5 49.5t107 28t72 -19.5q8 -11 -3.5 -44.5t-34.5 -114.5q9 13 45.5 33t85 40t103.5 37t104 20.5t86 -8 t50 -45.5q21 -63 12.5 -140.5t-35 -158t-63.5 -158t-70 -143t-57 -112t-24 -63.5q0 -21 11.5 -22t24 1t24 0t11.5 -23q0 -23 -19 -38t-47.5 -22.5t-63 -7.5t-62.5 6.5t-47 21t-19 36.5q0 13 24.5 70t59.5 134t75 164t69.5 162t41.5 127.5t-7 59.5q-34 15 -90 7.5t-111 -26.5 t-99.5 -44.5t-57.5 -44.5q-9 -15 -35 -67t-59 -123.5t-69 -150t-66.5 -146t-51.5 -114t-23 -51.5q-13 -21 -39.5 -23t-50 10.5t-38 36t-2.5 54.5zM504.5 1104.5q11.5 25.5 41 56t69 55t66.5 24.5q27 -2 49.5 -15t73.5 -40q21 0 52 19t60.5 36t49.5 21t18 -28 q-4 -40 -27.5 -72.5t-55 -55t-62.5 -37t-50 -16.5q-23 0 -42 9t-37 20t-36 21.5t-39 14.5q-15 0 -28 -6.5t-26.5 -14.5t-27.5 -14.5t-30 -4.5q-30 2 -18.5 27.5z" />
<glyph unicode="&#xf2;" horiz-adv-x="811" d="M-8 269q-4 -68 14.5 -118t54.5 -83.5t86 -50.5t111 -17q68 0 141 34t138.5 90t120.5 128t91 150t46.5 154.5t-12.5 141.5q-9 27 -22.5 41t-26 21.5t-21.5 8.5t-11 1h-2q-21 0 -30.5 -16t-7.5 -37q2 -55 -23 -128t-64.5 -146t-86 -138.5t-86.5 -103.5q-11 -11 -42.5 -33 t-67.5 -40t-67.5 -25.5t-42.5 9.5q-11 25 -15 71t7.5 107t40 135t83.5 151q27 38 61.5 81t77.5 80t90.5 60.5t96.5 23.5q51 0 86 -9.5t60 -16.5q13 -4 22.5 -8t19.5 -4q27 0 36 29q7 24 -6 51q-15 23 -41.5 38t-56 24.5t-61 13t-53.5 3.5q-112 0 -222 -52t-199.5 -142 t-148 -213.5t-68.5 -265.5zM436 1252q2 17 17 27t33 15t35.5 3t26.5 -9q6 -6 26 -24t45.5 -42t52 -52t44.5 -54t22.5 -46t-12.5 -29q-27 -13 -77 5t-99 51t-84.5 75t-29.5 80z" />
<glyph unicode="&#xf3;" horiz-adv-x="811" d="M-8 269q9 142 68 265.5t148.5 213.5t199.5 142t222 52q23 0 54 -3.5t60.5 -13t56 -24.5t41.5 -38q13 -27 6 -51q-9 -28 -36 -29q-9 0 -19 4t-23 8q-25 8 -60 17t-86 9q-49 0 -96.5 -23.5t-90.5 -60.5t-78 -80t-61 -81q-55 -78 -83.5 -151.5t-40 -134.5t-7.5 -107t15 -71 q11 -17 42.5 -9.5t67.5 25.5t67.5 40t42.5 33q40 38 86.5 103.5t86 138.5t64.5 146t23 128q-2 21 7.5 37t30.5 16h2q2 0 11 -1t21.5 -8.5t26 -22t22.5 -40.5q23 -64 12.5 -141t-46.5 -155t-91 -150t-120.5 -128t-138.5 -90t-141 -34q-61 0 -111 17t-86 50.5t-54 83.5 t-15 118zM514 1068q6 20 25.5 47t48 54.5t56 52t49.5 42.5t29 24q9 8 28.5 9.5t39.5 -3.5t35 -15t19 -27q6 -38 -32 -81t-92 -77t-109.5 -51t-83.5 -4q-19 9 -13 29z" />
<glyph unicode="&#xf4;" horiz-adv-x="811" d="M-8 269q9 142 68 265.5t148.5 213.5t199.5 142t222 52q23 0 54 -3.5t60.5 -13t56 -24.5t41.5 -38q13 -27 6 -51q-9 -28 -36 -29q-9 0 -19 4t-23 8q-25 8 -60 17t-86 9q-49 0 -96.5 -23.5t-90.5 -60.5t-78 -80t-61 -81q-55 -78 -83.5 -151.5t-40 -134.5t-7.5 -107t15 -71 q11 -17 42.5 -9.5t67.5 25.5t67.5 40t42.5 33q40 38 86.5 103.5t86 138.5t64.5 146t23 128q-2 21 7.5 37t30.5 16h2q2 0 11 -1t21.5 -8.5t26 -22t22.5 -40.5q23 -64 12.5 -141t-46.5 -155t-91 -150t-120.5 -128t-138.5 -90t-141 -34q-61 0 -111 17t-86 50.5t-54 83.5 t-15 118zM355 1126q4 13 31 36t62.5 45t69.5 38t51 16q15 0 48 -15t68.5 -37t63.5 -44.5t32 -38.5q6 -11 -2.5 -27t-23 -30.5t-30.5 -24t-27 -9.5q-13 0 -32 16.5t-38 39t-35.5 44.5t-23.5 33q-6 -9 -22 -31t-35 -44.5t-39 -40t-33 -17.5q-11 0 -27.5 9.5t-29.5 23 t-22.5 29.5t-5.5 29z" />
<glyph unicode="&#xf5;" horiz-adv-x="811" d="M-8 269q9 142 68 265.5t148.5 213.5t199.5 142t222 52q23 0 54 -3.5t60.5 -13t56 -24.5t41.5 -38q13 -27 6 -51q-9 -28 -36 -29q-9 0 -19 4t-23 8q-25 8 -60 17t-86 9q-49 0 -96.5 -23.5t-90.5 -60.5t-78 -80t-61 -81q-55 -78 -83.5 -151.5t-40 -134.5t-7.5 -107t15 -71 q11 -17 42.5 -9.5t67.5 25.5t67.5 40t42.5 33q40 38 86.5 103.5t86 138.5t64.5 146t23 128q-2 21 7.5 37t30.5 16h2q2 0 11 -1t21.5 -8.5t26 -22t22.5 -40.5q23 -64 12.5 -141t-46.5 -155t-91 -150t-120.5 -128t-138.5 -90t-141 -34q-61 0 -111 17t-86 50.5t-54 83.5 t-15 118zM363.5 1088.5q10.5 26.5 40.5 57t69 55t66 22.5t49.5 -15t73.5 -40q21 0 52 19t60.5 36t49.5 21t18 -28q-4 -40 -27.5 -72.5t-55 -55t-62.5 -37t-50 -16.5q-23 0 -42 8.5t-37 20t-36 22t-39 14.5q-15 0 -28.5 -6.5t-26.5 -14.5t-27.5 -14.5t-29.5 -4.5 q-28 2 -17.5 28.5z" />
<glyph unicode="&#xf6;" horiz-adv-x="811" d="M-8 269q9 142 68 265.5t148.5 213.5t199.5 142t222 52q23 0 54 -3.5t60.5 -13t56 -24.5t41.5 -38q13 -27 6 -51q-9 -28 -36 -29q-9 0 -19 4t-23 8q-25 8 -60 17t-86 9q-49 0 -96.5 -23.5t-90.5 -60.5t-78 -80t-61 -81q-55 -78 -83.5 -151.5t-40 -134.5t-7.5 -107t15 -71 q11 -17 42.5 -9.5t67.5 25.5t67.5 40t42.5 33q40 38 86.5 103.5t86 138.5t64.5 146t23 128q-2 21 7.5 37t30.5 16h2q2 0 11 -1t21.5 -8.5t26 -22t22.5 -40.5q23 -64 12.5 -141t-46.5 -155t-91 -150t-120.5 -128t-138.5 -90t-141 -34q-61 0 -111 17t-86 50.5t-54 83.5 t-15 118zM429 1087q-2 40 14 71t65 25q25 -4 38 -17t17 -34q2 -13 1 -29t-8.5 -31.5t-20 -26t-29.5 -10.5q-21 0 -48.5 12.5t-28.5 39.5zM644 1122.5q3 22.5 23 43.5q17 23 61 17q23 -4 37 -17t18 -34q2 -11 0 -28t-9.5 -32.5t-19 -26t-28.5 -10.5q-25 0 -44.5 12.5 t-30 32.5t-7.5 42.5z" />
<glyph unicode="&#xf7;" horiz-adv-x="1243" d="M137 684.5q0 17.5 9 29t32 3.5q34 -13 89 -17t122.5 -3t142.5 5.5t150 8.5t144 7t126 1q23 0 41 -20t28.5 -44.5t10.5 -44.5t-12 -20q-64 -8 -145.5 -15.5t-168 -12t-172.5 -4.5t-161 7.5t-133 21.5t-88 41q-6 6 -10.5 22.5t-4.5 34zM500.5 340.5q3.5 29.5 30.5 55.5 q13 17 32 22t46 1q30 -4 49 -21.5t23 -44.5q2 -15 -1 -37t-11.5 -42t-23.5 -33t-38 -13q-32 0 -58 16t-39 41.5t-9.5 55zM508 929q0 25 4 49.5t16 42.5t32.5 27.5t50.5 5.5q32 -4 50 -21.5t22 -44.5q4 -17 1 -38t-11.5 -41t-25 -33t-38.5 -13q-13 0 -30.5 3.5t-32.5 12 t-25.5 21t-12.5 29.5z" />
<glyph unicode="&#xf8;" horiz-adv-x="811" d="M-8 269q8 118 50.5 223t109 190.5t151 146t177.5 89.5v2q25 74 43.5 119.5t33 72t25 38t15.5 16.5q15 8 21 6q49 -4 67.5 -39t27.5 -73q13 -53 -15 -70q-6 -6 -13 -8q-4 -4 -10 -12.5t-15 -28.5q47 -4 101 -22t81 -56q13 -27 6 -51q-9 -28 -36 -29q-9 0 -19 4t-23 8 q-25 8 -60 17t-86 9h-13l-8 -23q-27 -72 -59 -166.5t-72 -214.5q-21 -57 -39 -112t-35 -108l4 4q40 38 86.5 103.5t86 138.5t64.5 146t23 128q-2 21 7.5 37t30.5 16h2q2 0 11 -1t21.5 -8.5t26 -22t22.5 -40.5q30 -87 1 -195.5t-96.5 -209t-160.5 -178t-189 -104.5l-61 -193 q-8 -34 -30 -49q-15 -9 -21 -8.5t-21 11.5q-13 8 -22.5 18.5t-6.5 23.5q0 4 12.5 54l33.5 134q-106 9 -171.5 75.5t-58.5 191.5zM167 183q4 -46 15 -71q9 -13 26.5 -13t39.5 9q21 80 45 171t50 187l72 251q-36 -34 -65.5 -71t-51.5 -70q-55 -78 -83.5 -151.5t-40 -134.5 t-7.5 -107z" />
<glyph unicode="&#xf9;" horiz-adv-x="948" d="M10.5 202q-10.5 -84 13 -140t101.5 -56q51 0 107 14t111 38t106.5 55t92.5 67l48 44q-27 -63 -44 -109.5t-21 -61.5q-6 -27 27.5 -39t79 -16t89 0t60.5 8q11 2 16 13t-0.5 24.5t-24.5 26.5t-55 23q-17 4 -15 38t18 88t41.5 121.5t55 138.5t59.5 140t55 126q23 49 40 87 t32 63q-11 21 -42.5 32.5t-65.5 14t-62.5 -3t-34.5 -18.5q-11 -30 -19.5 -79.5t-35 -123.5t-80.5 -172.5t-155 -225.5q-148 -188 -305 -188q-36 0 -43.5 34t4.5 91t39.5 129t61 148t67.5 149t59.5 130t39 93t3.5 37q-36 8 -88 6t-100.5 -9.5t-84.5 -16t-40 -16.5 q-15 -21 -5.5 -33t26.5 -22.5t36 -21t27 -27.5q4 -11 -22 -74.5t-61 -152t-68 -189t-43.5 -184.5zM446 1252q2 17 17 27t33 15t35 3t27 -9q6 -6 25.5 -24t45 -42t52 -52t44.5 -54t23 -46t-12 -29q-27 -13 -77 5t-99.5 51t-84.5 75t-29 80z" />
<glyph unicode="&#xfa;" horiz-adv-x="948" d="M10.5 202q10.5 84 43.5 184.5t68 189t61 152t22 74.5q-8 17 -27 27.5t-36 21t-26.5 23t5.5 32.5q4 8 40 16.5t84.5 16t100.5 9.5t88 -6q9 -2 -4 -37.5t-38.5 -92.5t-59.5 -130t-67.5 -149t-61 -148t-39.5 -129t-4.5 -91t43.5 -34q157 0 305 188q101 127 155 225.5 t80.5 172.5t35 123t19.5 80q6 13 34.5 18.5t62.5 3t65.5 -14t42.5 -32.5q-15 -25 -32 -62.5t-40 -87.5q-25 -57 -55 -126t-59.5 -140t-55 -138.5t-41.5 -121.5t-18 -88t15 -38q36 -9 55 -22.5t24.5 -27t1 -24.5t-16.5 -13q-17 -4 -60.5 -8t-89 0t-78.5 16.5t-28 38.5 q4 15 21 61.5t44 109.5l-48 -44q-42 -36 -93 -67t-106 -55t-111 -38t-107 -14q-78 0 -101.5 56t-13 140zM504.5 1068q5.5 20 25.5 47t48.5 54.5t56 52t49 42.5t29.5 24q9 8 28 9.5t39 -3.5t35.5 -15t18.5 -27q6 -38 -32 -81t-92 -77t-109 -51t-83 -4q-19 9 -13.5 29z" />
<glyph unicode="&#xfb;" horiz-adv-x="948" d="M6 148q0 53 15 118.5t37 132.5t47.5 132.5t47 120.5t37 94t15.5 52q0 17 -14.5 26.5t-32.5 18t-32 17.5t-14 24q0 23 65.5 43.5t188.5 20.5q19 0 45.5 -2t26.5 -11q0 -17 -21 -66.5t-52 -116.5t-68 -147t-68.5 -156.5t-52.5 -144t-21 -111.5q0 -63 48 -62q157 0 305 188 q101 127 155 225.5t80.5 172.5t35 123t19.5 80q4 9 26 15t48 6q40 0 79 -10.5t52 -35.5q-9 -15 -35 -68t-59 -126t-70 -158.5t-67.5 -166t-50 -148t-19.5 -103.5q0 -30 15 -32q46 -11 64.5 -29t18.5 -34q0 -23 -32 -28.5t-93 -5.5q-27 0 -54 3t-48 8.5t-34.5 15t-13.5 24.5 q0 9 16.5 57t48.5 120l-48 -44q-42 -36 -93 -67t-106 -55t-111 -38t-107 -14q-66 0 -92.5 38.5t-26.5 103.5zM404 1121q0 13 25.5 35.5t61.5 45.5t71 41t56 18q19 0 55 -18t72 -41.5t61.5 -47.5t25.5 -37q0 -11 -9 -25.5t-22.5 -27t-28.5 -21t-25 -8.5q-13 0 -32 16.5 t-38 39t-35 44.5l-24 33q-6 -9 -22 -31t-35 -44.5t-38.5 -40t-33.5 -17.5q-11 0 -25.5 8.5t-27.5 21t-22.5 27.5t-9.5 29z" />
<glyph unicode="&#xfc;" horiz-adv-x="948" d="M10.5 202q10.5 84 43.5 184.5t68 189t61 152t22 74.5q-8 17 -27 27.5t-36 21t-26.5 23t5.5 32.5q4 8 40 16.5t84.5 16t100.5 9.5t88 -6q9 -2 -4 -37.5t-38.5 -92.5t-59.5 -130t-67.5 -149t-61 -148t-39.5 -129t-4.5 -91t43.5 -34q157 0 305 188q101 127 155 225.5 t80.5 172.5t35 123t19.5 80q6 13 34.5 18.5t62.5 3t65.5 -14t42.5 -32.5q-15 -25 -32 -62.5t-40 -87.5q-25 -57 -55 -126t-59.5 -140t-55 -138.5t-41.5 -121.5t-18 -88t15 -38q36 -9 55 -22.5t24.5 -27t1 -24.5t-16.5 -13q-17 -4 -60.5 -8t-89 0t-78.5 16.5t-28 38.5 q4 15 21 61.5t44 109.5l-48 -44q-42 -36 -93 -67t-106 -55t-111 -38t-107 -14q-78 0 -101.5 56t-13 140zM440 1087q-2 40 14.5 71t65.5 25q25 -4 38 -17t17 -34q2 -13 1 -29t-9 -31.5t-20 -26t-29 -10.5q-21 0 -48.5 12.5t-29.5 39.5zM655 1122.5q3 22.5 24 43.5 q17 23 61 17q23 -4 37 -17t18 -34q2 -11 0 -28t-10 -32.5t-19 -26t-28 -10.5q-25 0 -45 12.5t-30.5 32.5t-7.5 42.5z" />
<glyph unicode="&#xfd;" horiz-adv-x="872" d="M-91.5 -538.5q-9.5 11.5 4 26.5t62.5 30q34 11 84.5 43.5t104.5 81t105 110t88 131.5q30 59 59.5 123.5t59.5 130.5q-36 -32 -66.5 -56.5t-62.5 -41.5t-69 -25.5t-83 -8.5q-78 0 -110 54t-34 135.5t16 179t41 183t40 147t13 72.5q-8 17 -25.5 30.5t-34 26t-25 27.5 t6.5 36q4 8 43 21t88.5 20.5t96.5 2t68 -35.5q4 -6 -6.5 -43t-28.5 -93t-39.5 -124.5t-41.5 -139.5t-35.5 -138t-17 -119.5t12.5 -84.5t50 -32q57 0 128 43.5t138 106.5q44 102 80.5 197t61 166t35 111t3.5 34q-8 19 -34.5 27.5t-50 17t-35 22.5t9.5 47q11 15 55.5 26.5 t96 11.5t96 -13.5t55.5 -43.5q6 -17 -7.5 -71t-41 -133t-67 -177.5t-86 -205.5t-98 -218t-100.5 -214q-30 -61 -91 -135.5t-135 -140t-152.5 -110t-142.5 -44.5q-25 0 -49 7.5t-33.5 19zM419 1068q6 20 26 47t48 54.5t55.5 52t49.5 42.5t30 24q9 8 28 9.5t39 -3.5t35 -15 t19 -27q6 -38 -32 -81t-92 -77t-109.5 -51t-83.5 -4q-19 9 -13 29z" />
<glyph unicode="&#xfe;" horiz-adv-x="931" d="M-129 -303q11 46 41.5 144t72.5 227t94 279t106 299.5t107 289t98.5 246.5t81.5 173.5t55 70.5q42 8 74 -17t50 -58t19 -64.5t-20 -38.5q-15 -6 -36.5 -36.5t-49 -80.5t-58 -116.5t-62.5 -144.5q78 55 157 87.5t159 32.5q34 0 69.5 -9.5t63 -32.5t45.5 -60.5t18 -92.5 q0 -66 -26.5 -151t-72 -173t-109 -173.5t-138.5 -150.5t-157.5 -106t-166.5 -41q-106 0 -151 40q-47 -138 -79.5 -240t-40.5 -138q-6 -21 -31.5 -28.5t-52 -1.5t-46.5 22t-14 43zM186 186q-4 -30 1 -50t23 -24q51 -13 115 15t130 82.5t128 127.5t110 149.5t76 149.5t24 128 q-4 53 -30.5 70t-65.5 9.5t-85.5 -34t-90 -59.5t-79.5 -69t-53 -61q-34 -49 -65.5 -102t-58.5 -105q-44 -118 -79 -227z" />
<glyph unicode="&#xff;" horiz-adv-x="1024" d="M-91.5 -538.5q-9.5 11.5 4 26.5t62.5 30q34 11 84.5 43.5t104.5 81t105 110t88 131.5q30 59 59.5 123.5t59.5 130.5q-36 -32 -66.5 -56.5t-62.5 -41.5t-69 -25.5t-83 -8.5q-78 0 -110 54t-34 135.5t16 179t41 183t40 147t13 72.5q-8 17 -25.5 30.5t-34 26t-25 27.5 t6.5 36q4 8 43 21t88.5 20.5t96.5 2t68 -35.5q4 -6 -6.5 -43t-28.5 -93t-39.5 -124.5t-41.5 -139.5t-35.5 -138t-17 -119.5t12.5 -84.5t50 -32q57 0 128 43.5t138 106.5q44 102 80.5 197t61 166t35 111t3.5 34q-8 19 -34.5 27.5t-50 17t-35 22.5t9.5 47q11 15 55.5 26.5 t96 11.5t96 -13.5t55.5 -43.5q6 -17 -7.5 -71t-41 -133t-67 -177.5t-86 -205.5t-98 -218t-100.5 -214q-30 -61 -91 -135.5t-135 -140t-152.5 -110t-142.5 -44.5q-25 0 -49 7.5t-33.5 19zM353 1087q-2 40 14 71t65 25q25 -4 38.5 -17t16.5 -34q2 -13 1 -29t-8.5 -31.5 t-19.5 -26t-30 -10.5q-21 0 -48 12.5t-29 39.5zM568 1122.5q3 22.5 24 43.5q17 23 60 17q23 -4 37 -17t18 -34q2 -11 0 -28t-9.5 -32.5t-19 -26t-28.5 -10.5q-25 0 -44.5 12.5t-30 32.5t-7.5 42.5z" />
<glyph unicode="&#x152;" horiz-adv-x="1803" d="M72 313q2 91 20 189.5t47.5 197t62.5 186t63.5 155t51.5 101.5q64 112 157 215t203 173t229.5 95t238.5 -19q30 6 67.5 9t74.5 4.5t72 1.5h63q9 0 12 -5.5t6 -13t10.5 -13.5t26.5 -6q70 0 162 10.5t202 10.5q47 0 90 -2.5t73.5 -11t48.5 -25t18 -44.5q0 -44 -19 -80 t-42 -61.5t-43.5 -39.5t-26.5 -14q-17 0 -28.5 22.5t-22.5 66.5h-17t-17.5 1t-36 1.5t-73 2.5t-127 6t-198.5 9q-55 -210 -131.5 -412t-158.5 -412q119 -6 249 -6q21 0 34 -21t13 -42q0 -19 -18 -27.5t-44.5 -12t-56 -3.5h-52.5q-40 0 -81.5 2t-85.5 5l-149 -369h76h244 h135.5t64.5 -1t35 -1t33.5 15t31.5 35t30 36t32 16t24 -18t7 -41q0 -63 -18 -98.5t-48.5 -53.5t-70.5 -22t-85 -4q-59 0 -134 4t-150 9.5t-141 11t-108 9.5l-15 -32q-4 -9 -17.5 -14t-27.5 -8t-25.5 -3h-13.5q-6 0 -20 2t-28 7t-25.5 12.5t-11.5 18.5q0 17 20 28.5t29 34.5 l46 127q-102 -93 -223.5 -150t-260.5 -57q-95 0 -150 41.5t-79.5 111t-22.5 160.5zM267.5 351q-9.5 -123 34.5 -209q19 -34 53 -37.5t74.5 12.5t85 46t84.5 63.5t70.5 64.5t45.5 48q38 46 74 96t70 105q-27 8 -48.5 21.5t-21.5 37.5q0 13 7.5 26.5t32.5 13.5q8 0 28.5 -4.5 t52.5 -8.5q40 72 76 151.5t68 174.5q61 201 90.5 329t38.5 168q-2 0 -2 2q-11 6 -26 17t-35 21.5t-44 19t-50 8.5q-63 0 -132 -41t-134.5 -103.5t-121.5 -134.5t-94 -134q-61 -101 -122.5 -232t-103 -264.5t-51 -256.5z" />
<glyph unicode="&#x153;" horiz-adv-x="1369" d="M-8 269q9 142 68 265.5t148.5 213.5t199.5 142t222 52q23 0 54 -3.5t60.5 -13t56 -24.5t41.5 -38q8 -15 8 -32q158 111 386 111q116 0 161.5 -39.5t45.5 -96.5q0 -91 -62.5 -161t-149 -119.5t-176.5 -80t-147 -43.5q-15 -4 -39.5 -5t-34.5 14q-6 9 4 22t19 22 q38 30 107 58.5t137.5 64t119 80t50.5 108.5q-2 25 -12.5 48.5t-39.5 23.5q-87 0 -165.5 -53t-141 -133.5t-106.5 -173.5t-64 -173.5t-11 -133.5t50 -53q114 0 192.5 39.5t132 87t85.5 87.5t55 40q34 0 38.5 -27.5t-17 -68.5t-70 -89.5t-120.5 -89t-166 -68t-207 -27.5 q-64 0 -96.5 41.5t-44.5 104.5q-70 -66 -149.5 -107t-155.5 -41q-61 0 -111 17t-86 50.5t-54 83.5t-15 118zM167 183q4 -46 15 -71q11 -17 42.5 -9.5t67.5 25.5t67.5 40t42.5 33q46 44 99 118.5t93 160.5q4 13 8.5 24.5t8.5 20.5q6 13 11.5 25.5t12.5 25.5q13 38 21 74t6 67 q-2 21 7.5 37t30.5 16h2q4 0 19 -4t32 -21q19 23 40 40l-23 10q-25 8 -60 17t-86 9q-49 0 -96.5 -23.5t-90.5 -60.5t-78 -80t-61 -81q-55 -78 -83.5 -151.5t-40 -134.5t-7.5 -107z" />
<glyph unicode="&#x178;" horiz-adv-x="972" d="M-125 32q-2 30 78 46q2 2 11 9.5t31 30t59 63.5t96 107q102 116 202.5 233.5t195.5 242.5q-27 66 -48.5 144t-39.5 157.5t-32.5 153.5t-25.5 135q-8 40 -13.5 74t-9.5 44q-15 9 -40.5 16.5t-33.5 28.5q-8 25 11.5 45t49.5 35t62.5 23.5t49.5 8.5q30 0 47 -8.5t26.5 -24.5 t13.5 -40t10 -54q27 -146 41.5 -294t41.5 -309q87 108 161 200t127 162t84.5 115.5t37.5 58.5q4 9 -1 13.5t-12.5 8t-16 7.5t-10.5 13q-9 25 11.5 43t52 29.5t64.5 17t48 5.5q82 0 83 -38t-43 -104q-114 -176 -255.5 -342.5t-296.5 -346.5q9 -34 20.5 -73.5t-14.5 -77.5 q-11 -13 -23.5 -10.5t-25 14t-24 25.5t-16.5 24q-106 -123 -196.5 -236t-157.5 -200.5t-108 -141.5t-45 -57q-8 -8 -34 -8h-39t-65 3t-61.5 9.5t-27.5 19.5zM631 1803q-2 40 14.5 71.5t65.5 25.5q25 -4 38 -17t17 -34q2 -13 1 -29.5t-8.5 -31.5t-20 -25.5t-29.5 -10.5 q-21 0 -48.5 12.5t-29.5 38.5zM847 1839.5q3 22.5 23 43.5q17 23 61 17q23 -4 37 -17t18 -34q2 -11 0 -28.5t-9.5 -32.5t-19 -25.5t-28.5 -10.5q-25 0 -44.5 12.5t-30 32.5t-7.5 42.5z" />
<glyph unicode="&#x2c6;" horiz-adv-x="714" d="M144 1126q4 13 31.5 36t62.5 45t69 38t51 16q15 0 48.5 -15t68.5 -37t63.5 -44.5t32.5 -38.5q6 -11 -3 -27t-23 -30.5t-30 -24t-28 -9.5q-13 0 -32 16.5t-38 39t-35 44.5l-24 33q-6 -9 -22 -31t-34.5 -44.5t-38.5 -40t-34 -17.5q-11 0 -27 9.5t-29.5 23t-23 29.5t-5.5 29 z" />
<glyph unicode="&#x2dc;" horiz-adv-x="769" d="M146 1087.5q9 25.5 38.5 56t68.5 55t66 24.5h3q27 -2 49.5 -15t74.5 -40q21 0 52 19t60.5 36t49.5 21t18 -28q-4 -40 -27.5 -72.5t-55 -55t-63 -37t-50.5 -16.5q-23 0 -41.5 8.5t-36.5 20t-36 22t-39 14.5q-15 0 -28.5 -6.5t-26.5 -14.5t-27.5 -14.5t-29.5 -4.5 q-28 2 -19 27.5z" />
<glyph unicode="&#x2000;" horiz-adv-x="1017" />
<glyph unicode="&#x2001;" horiz-adv-x="2035" />
<glyph unicode="&#x2002;" horiz-adv-x="1017" />
<glyph unicode="&#x2003;" horiz-adv-x="2035" />
<glyph unicode="&#x2004;" horiz-adv-x="678" />
<glyph unicode="&#x2005;" horiz-adv-x="508" />
<glyph unicode="&#x2006;" horiz-adv-x="339" />
<glyph unicode="&#x2007;" horiz-adv-x="339" />
<glyph unicode="&#x2008;" horiz-adv-x="254" />
<glyph unicode="&#x2009;" horiz-adv-x="407" />
<glyph unicode="&#x200a;" horiz-adv-x="113" />
<glyph unicode="&#x2010;" horiz-adv-x="824" d="M144 601q0 21 7.5 35.5t24.5 8.5q40 -15 89.5 -15t107 4.5t120.5 9.5t127 3q19 0 33 -22t22 -47.5t8 -47.5t-10 -22q-76 -9 -152.5 -16.5t-147 -7t-127 12t-91.5 42.5q-4 4 -7.5 22.5t-3.5 39.5z" />
<glyph unicode="&#x2011;" horiz-adv-x="824" d="M144 601q0 21 7.5 35.5t24.5 8.5q40 -15 89.5 -15t107 4.5t120.5 9.5t127 3q19 0 33 -22t22 -47.5t8 -47.5t-10 -22q-76 -9 -152.5 -16.5t-147 -7t-127 12t-91.5 42.5q-4 4 -7.5 22.5t-3.5 39.5z" />
<glyph unicode="&#x2012;" horiz-adv-x="824" d="M144 601q0 21 7.5 35.5t24.5 8.5q40 -15 89.5 -15t107 4.5t120.5 9.5t127 3q19 0 33 -22t22 -47.5t8 -47.5t-10 -22q-76 -9 -152.5 -16.5t-147 -7t-127 12t-91.5 42.5q-4 4 -7.5 22.5t-3.5 39.5z" />
<glyph unicode="&#x2013;" horiz-adv-x="936" d="M87 562q0 20 7.5 33.5t24.5 7.5q40 -15 122.5 -15t180.5 4.5t193.5 9.5t160.5 3q19 0 33 -21t21.5 -45.5t7.5 -45.5t-9 -21q-51 -6 -117.5 -11.5t-140.5 -9t-148 -3.5t-138.5 5.5t-114 17t-71.5 32.5q-4 4 -8 21.5t-4 37.5z" />
<glyph unicode="&#x2014;" horiz-adv-x="1295" d="M83 556.5q0 19.5 8 33t25 7.5q27 -9 99.5 -12t171 -2t211.5 4t217.5 6.5t188.5 5.5t128 0q19 0 33 -20.5t22 -45.5t8 -46t-10 -21q-49 -6 -143 -11.5t-207.5 -9t-235 -3.5t-226 5.5t-180 17t-98.5 32.5q-4 4 -8 22t-4 37.5z" />
<glyph unicode="&#x2018;" horiz-adv-x="532" d="M180 1062q-19 51 5.5 110t79.5 120.5t114 108t106.5 71t58.5 13.5q19 -19 1 -53t-44.5 -73t-46.5 -77t-6 -66q11 -28 11 -70t-18 -79t-55 -62t-98 -19q-89 25 -108 76z" />
<glyph unicode="&#x2019;" horiz-adv-x="635" d="M181 1028q18 34 44.5 73t46.5 77t7 66q-11 28 -11.5 70t17.5 79t55 61.5t98 18.5q78 -8 109 -34t30 -66t-28.5 -87.5t-69 -95t-90 -90t-92 -73.5t-75.5 -46.5t-40 -5.5q-19 19 -1 53z" />
<glyph unicode="&#x201a;" horiz-adv-x="557" d="M31 -155.5q-3 5.5 3 11.5t12 6t33 17t55.5 40.5t47.5 49t8 42.5q-11 19 -22 62t-6 87.5t30.5 78.5t84.5 34t89 -20t41.5 -48.5t7 -59.5t-12.5 -56q-9 -23 -45.5 -67.5t-82 -87t-93.5 -75t-82 -32.5t-49.5 6t-18.5 11.5z" />
<glyph unicode="&#x201c;" horiz-adv-x="785" d="M133 1062q-19 51 5.5 110t79.5 120.5t114 108t106 71t59 13.5q19 -19 1 -53t-44.5 -73t-46.5 -77t-7 -66q11 -28 11 -70t-18 -79t-54.5 -62t-97.5 -19q-89 25 -108 76zM465.5 1086.5q0.5 39.5 28 87t69.5 95t90.5 90t92 74t75.5 46.5t40 6q19 -19 1 -53t-44.5 -73 t-46.5 -77t-7 -66q11 -28 11.5 -70t-17.5 -79t-55 -62t-98 -19q-78 8 -109 34.5t-30.5 66z" />
<glyph unicode="&#x201d;" horiz-adv-x="813" d="M160 1028q18 34 44.5 73t46.5 77t7 66q-11 28 -11 70t18 79t54.5 61.5t97.5 18.5q78 -8 109.5 -34t30.5 -66t-28.5 -87.5t-69.5 -95t-90.5 -90t-92 -73.5t-75.5 -46.5t-40 -5.5q-19 19 -1 53zM524 1028q18 34 44.5 73t46.5 77t7 66q-11 28 -11 70t18 79t54.5 61.5 t97.5 18.5q66 -19 93 -53t24 -74.5t-29.5 -87t-65.5 -91t-84.5 -83.5t-85 -66.5t-70 -40t-38.5 -2.5q-19 19 -1 53z" />
<glyph unicode="&#x201e;" horiz-adv-x="881" d="M31 -155.5q-3 5.5 3 11.5t12 6t33 17t55.5 40.5t47.5 49t8 42.5q-11 19 -22 62t-6 87.5t30.5 78.5t84.5 34t89 -20t41.5 -48.5t7 -59.5t-12.5 -56q-9 -23 -45.5 -67.5t-82 -87t-93.5 -75t-82 -32.5t-49.5 6t-18.5 11.5zM355.5 -155.5q-2.5 5.5 3 11.5t11.5 6t33 17 t55.5 40.5t47.5 49t8 42.5q-11 19 -21.5 62t-6 87.5t30 78.5t84.5 34t89.5 -20t41.5 -48.5t6.5 -59.5t-12.5 -56q-9 -23 -45 -67.5t-81.5 -87t-94 -75t-82.5 -32.5t-49.5 6t-18 11.5z" />
<glyph unicode="&#x2022;" horiz-adv-x="720" d="M142 633q0 106 41 168t153 62q114 0 178 -55t64 -165q0 -55 -19 -96t-48 -68.5t-67 -40.5t-78 -13t-79.5 12t-72 38t-52.5 65.5t-20 92.5z" />
<glyph unicode="&#x2026;" horiz-adv-x="1217" d="M26.5 46.5q7.5 33.5 23.5 66.5t28 50q23 36 58.5 65.5t79.5 29.5q21 0 31.5 -20t12.5 -47.5t-2 -56t-11 -43.5q-8 -17 -20.5 -38t-32.5 -41t-48 -33t-68 -13t-49.5 23.5t-2 57zM386.5 46.5q7.5 33.5 24 66.5t27.5 50q23 36 58.5 65.5t79.5 29.5q21 0 31.5 -20t12.5 -47.5 t-2 -56t-11 -43.5q-8 -17 -20 -38t-32 -41t-48.5 -33t-68.5 -13t-49.5 23.5t-2 57zM747.5 46.5q7.5 33.5 23.5 66.5t27 50q23 36 59 65.5t80 29.5q21 0 31 -20t12 -47.5t-1.5 -56t-11.5 -43.5q-8 -17 -20 -38t-32 -41t-48.5 -33t-68.5 -13t-49 23.5t-1.5 57z" />
<glyph unicode="&#x202f;" horiz-adv-x="407" />
<glyph unicode="&#x2039;" horiz-adv-x="731" d="M126.5 461q-8.5 42 0.5 64q9 27 52 69.5t104.5 89t132.5 93t136.5 84.5t118.5 61.5t76 23.5h4q23 0 32 -19q11 -27 -1 -42t-33 -30q-46 -34 -107.5 -69t-127.5 -76t-130.5 -90t-116.5 -112q4 -27 36.5 -87.5t73 -127.5t80.5 -125t59 -81q17 -21 2.5 -40t-41 -33 t-55 -22.5t-37.5 -8.5h-13.5t-13.5 2q-4 2 -10.5 7.5t-19.5 26.5q-9 19 -31 58t-47.5 87t-51 102t-44.5 103.5t-27.5 91.5z" />
<glyph unicode="&#x203a;" horiz-adv-x="910" d="M-11 34q-8 25 1.5 50.5t30.5 36.5q40 23 101.5 58t126 76t120.5 82.5t84 75.5q8 15 -4.5 47.5t-36 73.5t-52 86.5t-55 86t-44.5 72t-20 46.5q-4 17 -4 38t6.5 38t21 29t37.5 12q4 0 13 2t22.5 0t27.5 -10.5t29 -28.5q21 -28 60 -93t75 -139t60 -144t14 -110q0 -2 -3 -5.5 t-11.5 -14t-24.5 -29t-44 -48.5q-15 -21 -54 -53t-87.5 -68t-102.5 -71t-99.5 -64.5t-78 -47.5t-37.5 -18q-27 0 -47 5.5t-25 28.5z" />
<glyph unicode="&#x205f;" horiz-adv-x="508" />
<glyph unicode="&#x20ac;" horiz-adv-x="1024" d="M-5 697q1 14 12.5 24.5t43.5 10.5q19 0 43 -1t50 -3q9 28 18 57t18 55q-30 9 -54.5 21.5t-43.5 29.5q-8 6 -14.5 23t-5.5 33t13.5 25.5t40.5 -1.5q21 -9 47.5 -13t56.5 -8q27 61 51.5 112t45.5 89q49 87 121 171.5t160 152t190.5 108t210.5 40.5q46 0 95 -3.5t94.5 -19 t81 -44.5t50.5 -81q23 -64 -67 -172q-9 -13 -24 -30.5t-32.5 -30.5t-32.5 -20.5t-24 -0.5q-13 13 -11.5 36t8 48.5t12.5 49.5t4 37q-9 40 -31 64.5t-51.5 37t-63.5 14t-68 -1.5q-34 -13 -74 -37t-80 -58q-99 -82 -184 -202.5t-152 -256.5q119 8 244.5 18t239.5 5 q30 -2 53 -22t36 -44.5t13 -44.5t-15 -22q-74 -9 -154.5 -18t-163 -14.5t-163 -6.5t-154.5 3q-9 -21 -17 -43.5t-17 -45.5q129 -6 265.5 -5t252.5 24q30 6 52.5 -14t35 -46t13.5 -48.5t-14 -24.5q-76 -9 -158.5 -15t-167 -9t-166 -1t-155.5 8q-9 -30 -16 -59.5t-12 -56.5 q-11 -63 -17 -126t8 -116.5t58 -86.5t129 -33q95 0 194.5 59t190.5 169q19 21 47.5 33t45.5 12q23 0 20 -15t-16.5 -35t-30.5 -39t-23 -27q-44 -51 -87 -97.5t-98 -82.5q-61 -42 -135 -60.5t-165 -18.5q-82 0 -155.5 23.5t-119.5 103.5q-47 91 -45.5 219t34.5 264 q-64 15 -99 36q-8 4 -15.5 17.5t-6.5 27.5z" />
<glyph unicode="&#x2122;" horiz-adv-x="1166" d="M142 599q0 9 6.5 13t10.5 6q9 4 10 6q4 9 18 43.5t32 81t40 100.5t41.5 106t36 97.5t23.5 73.5q-55 -13 -86 -16t-45.5 -1t-16.5 8t-2 11q0 11 5 36t15.5 51.5t25.5 48.5t36 25q80 17 174.5 11.5t223.5 -5.5q15 0 30.5 -7.5t17.5 -13.5q21 8 50 15.5t50 7.5q23 0 27 -20 t0 -41q11 -74 29 -147t39 -145q13 11 37 39t55 65t65.5 79.5t68.5 86.5q-23 38 0 62q6 9 33 15t59.5 6t64.5 -3.5t47 -11.5q9 -17 -5 -67.5t-36.5 -109t-46 -113.5t-35.5 -84q-19 -47 -37 -93.5t-33 -87.5t-26.5 -74t-15.5 -52q-2 -6 0 -10.5t4 -10t0 -11.5t-9 -10 q-11 -8 -38 -5.5t-52.5 11t-42.5 20.5t-12 24q0 6 10.5 34t43.5 110q19 53 42.5 115.5t44.5 123.5q-27 -32 -53.5 -62.5t-52.5 -57.5q-32 -34 -58 -61.5t-50.5 -36t-47.5 11.5t-45 81q-19 46 -35 104q-27 -70 -54 -138.5t-49 -123.5t-37 -90t-15 -37q-6 -9 -27.5 -12 t-46.5 -3t-45.5 4.5t-24.5 14.5l19 38q42 83 67.5 159t42.5 138.5t29.5 108t29.5 70.5h-6l-116 28q-21 -46 -53 -116.5t-64.5 -146.5t-59 -144.5t-35.5 -107.5q-2 -4 -1 -6t1 -4q2 -2 4.5 -5.5t1.5 -9.5q-2 -11 -12 -15q-4 -4 -10.5 -6t-36.5 -2l-17 1t-39 2t-44 4.5 t-29 9.5q-6 4 -7 8.5t-1 8.5z" />
<glyph unicode="&#x25fc;" horiz-adv-x="976" d="M0 0v977h977v-977h-977z" />
<glyph unicode="&#xfb01;" horiz-adv-x="1039" d="M-264 -525.5q17 64.5 56 172.5t95 247.5t117.5 290.5t124.5 301.5t116 279.5q-42 15 -70.5 29.5t-26.5 40.5q2 19 13.5 32.5t26.5 13.5q8 0 30.5 -8.5t65.5 -18.5q19 51 47.5 119.5t62 140.5t67.5 143t63.5 128t52 93t32.5 42q30 15 67 15t74 -14t69 -40t55 -60 q9 -15 12 -35t-2.5 -37t-19.5 -28.5t-37 -11.5q-23 2 -44 6t-41 4t-38.5 -6.5t-41.5 -25.5q-4 -4 -19 -31.5t-36 -69.5t-45.5 -92t-47.5 -99.5t-42 -92t-28 -67.5q49 -8 92.5 -12.5t81.5 -2.5q83 2 162 29.5t141.5 51t105.5 30.5t56 -33q8 -25 -8.5 -87.5t-48.5 -147 t-74 -179t-83.5 -184t-78.5 -164t-60 -114.5q-13 -21 -39.5 -23t-50.5 10.5t-38 36t-3 54.5l21 45q21 46 51.5 115t65.5 150.5t64.5 154.5t47.5 126t14 67q-32 -11 -73 -20t-81 -14.5t-75 -8.5t-56 -1l-55 6q21 -63 16 -135q-4 -76 -23 -157.5t-61 -176.5 q-40 -91 -108 -194.5t-151.5 -203t-174.5 -189.5t-173 -154q-25 -51 -55 -78t-57 -25q-17 2 0 66.5zM-53 -277q19 13 56 52t83.5 101.5t95.5 146t91 186t70 221t32 249.5q-53 -119 -112.5 -252t-116.5 -262t-109 -243.5t-90 -198.5zM964 1081q-1 15 2 31t7 28q4 11 15 27 t27.5 29.5t37 20.5t45.5 -1q23 -9 32.5 -25.5t9.5 -34.5t-5 -37t-9 -31q-9 -25 -43 -48.5t-78 -7.5q-21 8 -30.5 21t-10.5 28z" />
<glyph unicode="&#xfb02;" horiz-adv-x="1105" d="M-264 -525.5q17 64.5 56 172.5t95 247.5t117.5 290.5t124.5 301.5t116 279.5q-42 15 -70.5 29.5t-26.5 40.5q2 19 13.5 32.5t26.5 13.5q8 0 30.5 -8.5t65.5 -18.5q19 51 47.5 119.5t62 140.5t67.5 143t63.5 128t52.5 93t32 42q27 13 65.5 7.5t82 -21t88 -33.5t84.5 -29 t94 -19.5t103.5 -16.5t84.5 -17.5t39 -24.5q8 -44 -18 -137.5t-72.5 -215t-105 -258t-114.5 -264.5t-104.5 -237t-71.5 -175q-11 -32 -40.5 -54t-59 -28t-48.5 8.5t-9 52.5q11 49 41.5 133.5t69.5 188t84.5 220t89 233t80.5 224.5t60 195q6 23 -5.5 40t-32.5 31.5t-46 24 t-47 14.5q-27 8 -57 10t-60.5 -2t-56 -13.5t-42.5 -24.5q-4 -4 -20 -35l-40 -77.5t-52.5 -103.5t-54 -111t-45.5 -99.5t-29 -70.5q49 -8 92.5 -9.5t81.5 -5.5q30 -2 57 -3t46.5 -6.5t31 -18t9.5 -36.5q0 -23 -17 -33.5t-43.5 -12.5t-58.5 0t-65 4l-55 6q21 -63 16 -135 q-4 -76 -23 -157.5t-61 -176.5q-40 -91 -108 -194.5t-151.5 -203t-174.5 -189.5t-173 -154q-25 -51 -55 -78t-57 -25q-17 2 0 66.5zM-53 -277q19 13 56 52t83.5 101.5t95.5 146t91 186t70 221t32 249.5q-53 -119 -112.5 -252t-116.5 -262t-109 -243.5t-90 -198.5z" />
</font>
</defs>
</svg>
